<?xml version="1.0" encoding="utf-8"?>
<!-- Generator: Adobe Illustrator 26.1.0, SVG Export Plug-In . SVG Version: 6.00 Build 0)  -->
<svg version="1.1" id="Calque_1" xmlns="http://www.w3.org/2000/svg" xmlns:xlink="http://www.w3.org/1999/xlink" x="0px" y="0px"
	 viewBox="0 0 35 39.6" style="enable-background:new 0 0 35 39.6;" xml:space="preserve">
<style type="text/css">
	.st0{fill:none;stroke:#4D3F2D;stroke-width:2;stroke-miterlimit:10;}
</style>
<g id="a">
</g>
<g id="b">
	<g id="c">
		<g>
			<path class="st0" d="M15.2,1H22c6.6,0,12,5.4,12,12v13.6c0,6.6-5.4,12-12,12h-6.8c-6.6,0-12-5.4-12-12V13C3.2,6.4,8.6,1,15.2,1z"
				/>
			<line class="st0" x1="0" y1="8.2" x2="6.3" y2="8.2"/>
			<line class="st0" x1="0" y1="14.1" x2="6.3" y2="14.1"/>
			<line class="st0" x1="0" y1="25.9" x2="6.3" y2="25.9"/>
			<line class="st0" x1="0" y1="31.8" x2="6.3" y2="31.8"/>
			<line class="st0" x1="0" y1="20" x2="6.3" y2="20"/>
			<path class="st0" d="M13.1,25.9c3.7-7.9,7.4-7.9,11.2,0"/>
			<circle class="st0" cx="18.8" cy="13.5" r="3.4"/>
		</g>
	</g>
</g>
</svg>
