<?xml version="1.0" encoding="utf-8"?>
<!-- Generator: Adobe Illustrator 26.1.0, SVG Export Plug-In . SVG Version: 6.00 Build 0)  -->
<svg version="1.1" id="Calque_1" xmlns="http://www.w3.org/2000/svg" xmlns:xlink="http://www.w3.org/1999/xlink" x="0px" y="0px"
	 viewBox="0 0 288.5 365.4" style="enable-background:new 0 0 288.5 365.4;" xml:space="preserve">
<style type="text/css">
	.st0{fill:#B9D4A8;}
	.st1{fill:#6C8BC4;}
	.st2{fill:none;stroke:#1D1D1B;stroke-width:4.49;stroke-miterlimit:10;}
	.st3{fill:none;stroke:#56873F;stroke-width:3.53;stroke-miterlimit:10;}
	.st4{fill:none;}
	.st5{font-family:'Montana-Bold';}
	.st6{font-size:26px;}
</style>
<g id="a">
</g>
<g>
	<g>
		<path class="st0" d="M286.2,307.7v5c0,3.6-1.7,7-4.5,9.1c-4.3,3.3-10.5,8.5-14,13.4c-1.4,1.9-3.3,3.2-5.6,3.7
			c-3.1,0.6-7.2,1.8-9.2,4.3c-1,1.2-2.2,2.4-3.6,3.2l-4.9,2.8c-1,0.6-1.7,1.6-1.9,2.8c-0.2,1.4-1.4,2.3-2.8,2.2l-7.5-0.6
			c-1.4-0.1-2.8-0.8-3.7-1.9c-1.5-1.8-4.3-3.8-7.5,0.4c-0.7,1-1.7,1.7-2.7,2.3l-2.9,1.7c-0.7,0.4-1.6,0.6-2.5,0.5l-1.7-0.3
			c-1.6-0.3-3.2,0.5-3.9,1.9c-1.6,3.1-4.8,7.6-7.5,3.2c-0.9-1.5-2.9-2.1-4.4-1.2l-2.1,1.2c-0.6,0.3-1.2,0.5-1.8,0.5
			c-3,0-5.8-1.6-7.3-4.2l-3.1-5.4c-0.9-1.5-1.4-3.1-1.7-4.8l-1-6c-0.1-0.5-0.2-0.9-0.5-1.3l-6.7-11.6l-4.3-7.5
			c-1.1-1.8-3.1-2.9-5.2-2.8l-3.9,0.3c-1.7,0.1-3.1-1.1-3.3-2.8l-0.5-4.4v-0.1c0-0.4,0.3-0.8,0.7-0.9c1.4-0.3,2.4-1.5,2.4-2.9
			c0-0.1,0-0.2,0-0.3c-0.2-2.1-1.9-3.8-4-4l-5.8-0.5c0,0-8.1,0.3-7.5-5.8c0.4-3.8,0.6-7.9,0.8-10.6c0.1-1.6,0.8-3,2-4
			c4-3.3,11.6-12.6-6.3-27.2c0,0-4.1-1.8,2.2-6.2c3.2-2.2,2.4-3.3,0.9-3.9l14.4-1c2.9-0.2,4.9-2.6,4.9-5.3c0-0.5-0.1-0.9-0.2-1.4
			c-0.4-1.4-1.4-2.5-2.7-3.1l-32.5-14.7c-2.2-1-4.6-1.7-7-2.1l-7-1.2c-7.4-1.2-15,0.1-21.5,3.9l-9.2,5.3c-2.7,1.6-5.7,2.7-8.8,3.3
			l-3.6,0.7c-6,1.1-11.4,4.6-14.8,9.7l-6.8,10c-1.5,2.2-2.9,4.6-4,7.1l-7.9,17c-0.3,0.6-0.4,1.2-0.4,1.8c0,0.7,0.2,1.5,0.5,2.1
			c0.8,1.4,2.6,1.6,3.8,0.5l10.6-10.3c0.1,1.8,0.8,3.5,2.1,4.9c1.2,1.3,2.9,2,4.6,2c2.4,0,4.3,1.9,4.3,4.3v1c0,2-1.4,3.8-3.3,4.3
			l-2,0.5c-2.7,0.7-4.7,3-5.2,5.7l-0.2,1.1c-0.1,0.4-0.4,0.7-0.8,0.7c-0.2,0-0.3,0-0.4-0.1c-2.7-1.6-6.2-1.1-8.3,1.2l-1.9,2
			c0,0-6.5,6.7-11.6,2.7c-1.6-1.3-3.5-2.1-5.5-2.1h-9.1c-1.9,0-3.7,0.5-5.3,1.4l-0.1,0.1c-3.2,1.6-2.3-1.6-2.3-1.6
			c0.6-1.1,0.8-2.3,0.7-3.5C2.8,290,3,287,5.2,283.5c0.6-0.9,1.4-1.6,2.3-2.2l1.7-1c0-1.5,1.1-2.8,2.7-3l2.4-0.4
			c0.9-0.1,1.7-0.4,2.5-0.9c1.4-0.8,2.9-1.2,4.5-1.2h3.5c2.9,0,4.5-3.4,2.5-5.5l-0.1-0.1c-0.9-1-1.5-2.2-1.5-3.6c0-1,0.4-2,1.4-2.8
			c0.6-0.5,1.4-1.5,1.8-2.1c0.3-0.6,0.7-1.2,1.1-1.9c0.7-1.2,1.7-2.2,2.9-3c2.2-1.4,5.4-4.5-0.2-8.9c-3.5-2.8-6.5-5-8.8-6.5
			c-2.9-2-4.7-5.3-4.9-8.8l-0.1-1.7c-0.1-1.8,0.4-3.6,1.4-5.1l6.8-10c0.5-0.8,1.3-1.5,2.2-1.9c1.7-0.9,4.2-2.9,0.3-7
			c-5.5-5.6-4.9-5.3-4.9-5.3l43.2-32c2.9-2.2,6-4.2,9.3-5.9c2.4-1.2,5-3.2,3.1-5.7c-1.1-1.4-1.8-3.1-1.8-4.9v-3.3
			c0-1,0.5-1.9,1.4-2.5c2.2-1.2,3.6-3.5,3.7-6l0.3-4.9c0.1-1.4-0.3-2.7-1.1-3.7c-1.6-1.9-3.7-5.8-1.3-10.4
			c2.6-4.9,12.8-8.1,18.2-9.6c2.1-0.6,4.2-0.8,6.4-0.8h0.5c4.3,0,8.2-2.4,10.1-6.3l5-10.1c1-2,2.5-3.7,4.4-4.9l18.4-11.7
			c0.3-0.2,0.6-0.4,0.9-0.7l19.4-16.6c1.3-1.1,2.1-2.7,2.1-4.4c0.1-2.9,1.1-7.3,6.3-8c1.3-0.2,2.5-0.7,3.4-1.6
			c1.9-1.8,5-4.7,7.1-6.6c1.8-1.6,2.5-4.1,1.7-6.4c-1-3-4-6-12.7-3.6c-0.3,0.1-0.7,0.1-1,0.2c-0.7,0-2.2,0.1-3.8,0.2
			c-0.2,0-0.3,0-0.5,0c-3.9,0-7.1-3.1-7.1-7.1c0-1.7,0.5-3.4,1.6-4.8c1.6-2.1,4.2-5.2,7-6.4c1.3-0.5,2.1-1.8,2.1-3.1V9.2
			c0-3.9,3.2-7.1,7.1-6.9l24.9,0.7c2.4,0.1,4.1,2.3,3.5,4.6c-1.1,4.5-0.8,10.5,9.6,7.9c2.1-0.5,4.2-0.1,6.1,0.9l14.8,8.5
			c0.3,0.2,0.6,0.3,0.9,0.4l14.8,5.4c1.7,0.6,3,2.1,3.3,3.9l0.1,0.7c0.3,1.6,1.3,3,2.7,3.8l0.2,0.1c1.2,0.7,1.9,1.9,1.9,3.3
			c0,0.2,0,0.3,0,0.5c-0.3,2-2,3.5-4,3.5h-12.6c-2.2,0-4.3-1-5.6-2.9c-1.3-2-3.5-3.5-6.9,1c-0.9,1.2-2.2,2-3.8,2.1
			c-4.5,0.4-13.9,1.3-17.2,1.6c-0.7,0.1-1.4,0-2.1-0.2c-2.6-0.8-9.9-2.5-12.1,4.8c-0.8,2.7-3.1,4.7-5.9,4.9
			c-1.3,0.1-2.6,0.2-3.8,0.3c-2.4,0.2-4.5,1.6-5.7,3.6l-0.1,0.2c-0.5,0.9-1.2,1.6-2.1,2.1l-8.9,5.2l-5.1,3l-7.4,4.3
			c-1,0.6-1.9,1.5-2.5,2.5c-0.6,1-0.9,2.2-0.9,3.4c0,1.4-0.2,2.8-0.7,4.1c-1.3,3.2-2.4,9.5,11.4,1.5c0.8-0.4,1.6-0.7,2.5-0.7h8.4
			c0.8,0,1.6,0.2,2.3,0.6l4.7,2.7c1.4,0.8,2.2,2.2,2.4,3.7l0.6,5.3c0.1,1.1-0.3,2.3-1.1,3.1c-3.4,3.4-11.7,12.7,0.6,12.1
			c0.4,0,0.8,0,1.2,0.1c2.1,0.4,9.7,1.3,17.2-4.8c1-0.8,2.4-1.1,3.6-0.8c3.9,1.1,10.9,3.9,2.1,9.4c-1.2,0.8-1.7,2.3-0.9,3.6
			c1.1,1.9,2.3,4.8,1.8,6.9c-0.4,1.5,0.4,2.8,1.9,2.9l12,1.1c0.6,0.1,1.2,0.3,1.7,0.6c2.8,1.9,11.5,8.5,4.8,10.9
			c-1.6,0.6-2.6,2-2.6,3.7l0.1,2.5c0.1,1.6-0.9,3.1-2.3,3.9c-1.7,0.8-3.6,2.8-3.2,7.4l0.3,5.1c0.1,2.3,1.5,4.4,3.6,5.3l5.7,2.6
			c1.9,0.9,3.2,2.8,3.4,4.9l0.4,6.5c0,0.1,0,0.2,0,0.2c0,2.1-1.6,3.9-3.8,4.1c-2.2,0.2-4.2,1.8-4.7,4l-1.8,6.8
			c-0.5,1.9-1.7,3.5-3.4,4.4l-4,2.3c-1.8,1.1-3.2,2.8-3.7,4.9l-4.7,18.4c-0.3,1.1-0.8,2.2-1.6,3.1c-1.2,1.4-2.8,3.8-2.4,5.4
			c0.3,1.3,0.4,2.6-0.1,3.8c-0.5,1.4-0.9,3.1,0.1,4.1c1.1,1.1,1.7,2.5,1.8,4c0.1,3.9,0.7,9.1,4.5,2.1c1.1-2,3-3.4,5.3-3.8l0.6-0.1
			c2.2-0.4,4.5,0.2,6.4,1.4c1.8,1.1,4.6,1.8,8.3-0.7c5.8-3.9,15.7-4.5,18.6-4.6c0.5,0,1,0,1.5,0l9.6,0.8c2.8,0.2,5,2.6,5,5.4v8.6
			c0,2.7,0.7,5.3,2,7.6c1.1,1.8,2.7,3.9,5,5.7c2.2,1.8,3.8,4.2,4.4,7c1.4,6.5,4.1,18,6.4,22.1C285.9,305.1,286.2,306.4,286.2,307.7
			L286.2,307.7z M173.4,114.3c0.8-0.9,0-2.3-1.2-2.2l-6.4,0.8c-4.3,0.5-8.4,2.4-11.5,5.4l-20.6,19.4c-1.2,1.2-2.5,2.2-3.9,3.2
			l-13.8,10.1c-1,0.7-1.5,1.9-1.4,3.2l0.1,0.6c0.2,1.5,1.8,2.3,3.1,1.5l1.9-1.1c1.5-0.9,3.1-1.6,4.8-2l6.4-1.9c3.6-1.1,7-2.8,10-5.1
			l15.4-11.8c1-0.7,1.6-1.8,1.8-3.1c0.2-1.4,0.8-2.7,1.6-3.8c0.9-1.1,2-1.9,3.3-2.4c1.6-0.6,2.9-1.6,4-2.9L173.4,114.3L173.4,114.3z
			"/>
		<path class="st1" d="M172.1,112.1c1.2-0.2,2,1.2,1.2,2.2l-6.4,8.2c-1,1.3-2.4,2.3-4,2.9c-1.3,0.5-2.5,1.3-3.3,2.4
			c-0.9,1-1.4,2.3-1.6,3.7c-0.2,1.2-0.8,2.3-1.8,3.1l-15.4,11.8c-3,2.3-6.4,4-10,5.1l-6.4,1.9c-1.7,0.5-3.2,1.2-4.8,2l-1.9,1.1
			c-1.3,0.7-2.9-0.1-3.1-1.5l-0.1-0.6c-0.2-1.2,0.4-2.5,1.4-3.2l13.8-10.1c1.4-1,2.7-2.1,3.9-3.2l20.6-19.4c3.2-3,7.2-4.9,11.5-5.4
			L172.1,112.1L172.1,112.1z"/>
		<path class="st1" d="M158.7,237.3c0.1,0.5,0.2,0.9,0.2,1.4c0,2.7-2.1,5.1-4.9,5.3l-14.4,1c-1.5-0.6-3.9-0.6-3.9-0.6h-32.5
			c-2.1,0-4.3,0.5-6.2,1.5l-15.1,7.8c0,0-11.9,6.5-19.7-2.7c-5.7-6.9-11.6,6.1-14.3,13.4c-0.3,0.8-0.5,1.7-0.5,2.6
			c0,0.1,0,0.2,0,0.3l-10.6,10.3c-1.1,1.1-3,0.8-3.8-0.5c-0.4-0.6-0.5-1.4-0.5-2.1c0-0.6,0.1-1.2,0.4-1.8l7.9-17
			c1.1-2.5,2.5-4.8,4-7.1l6.8-10c3.4-5.1,8.8-8.6,14.8-9.7l3.6-0.7c3.1-0.6,6.1-1.7,8.8-3.3l9.2-5.3c6.5-3.8,14.1-5.1,21.5-3.9
			l7,1.2c2.4,0.4,4.8,1.1,7,2.1l32.5,14.7C157.3,234.8,158.3,235.9,158.7,237.3L158.7,237.3z"/>
	</g>
	<g>
		<path class="st2" d="M139.6,245c1.5,0.6,2.3,1.7-0.9,3.9c-6.3,4.4-2.2,6.2-2.2,6.2c17.9,14.6,10.3,23.9,6.3,27.2
			c-1.2,1-1.9,2.4-2,4c-0.1,2.6-0.4,6.8-0.8,10.6c-0.6,6.1,7.5,5.8,7.5,5.8l5.8,0.5c2.1,0.2,3.8,1.8,4,4c0,0.1,0,0.2,0,0.3
			c0,1.4-1,2.7-2.4,2.9c-0.4,0.1-0.7,0.4-0.7,0.9v0.1l0.5,4.4c0.2,1.7,1.7,2.9,3.3,2.8l3.9-0.3c2.1-0.2,4.2,0.9,5.2,2.8l4.3,7.5
			L178,340c0.2,0.4,0.4,0.9,0.5,1.3l1,6c0.3,1.7,0.9,3.3,1.7,4.8l3.1,5.4c1.5,2.6,4.3,4.2,7.3,4.2c0.6,0,1.3-0.2,1.8-0.5l2.1-1.2
			c1.5-0.9,3.5-0.3,4.4,1.2c2.7,4.4,5.8-0.1,7.5-3.2c0.8-1.4,2.3-2.2,3.9-1.9l1.7,0.3c0.9,0.1,1.7,0,2.5-0.5l2.9-1.7
			c1-0.6,2-1.4,2.7-2.3c3.2-4.2,6-2.2,7.5-0.4c0.9,1.1,2.3,1.8,3.7,1.9l7.5,0.6c1.4,0.1,2.6-0.8,2.8-2.2c0.2-1.2,0.9-2.2,1.9-2.8
			l4.9-2.8c1.4-0.8,2.5-2,3.6-3.2c2-2.5,6.2-3.7,9.2-4.3c2.3-0.5,4.3-1.8,5.6-3.7c3.4-4.9,9.7-10.1,14-13.4c2.8-2.2,4.5-5.5,4.5-9.1
			v-5c0-1.3-0.4-2.6-1-3.8c-2.3-4.1-5-15.5-6.4-22.1c-0.6-2.8-2.1-5.2-4.4-7c-2.3-1.8-3.9-3.9-5-5.7c-1.4-2.3-2-4.9-2-7.6V253
			c0-2.8-2.2-5.2-5-5.4l-9.6-0.8c-0.5,0-1-0.1-1.5,0c-2.9,0.1-12.7,0.7-18.6,4.6c-3.8,2.5-6.6,1.9-8.3,0.7c-1.9-1.2-4.1-1.8-6.4-1.4
			l-0.6,0.1c-2.2,0.4-4.2,1.8-5.3,3.8c-3.8,7-4.4,1.8-4.5-2.1c0-1.5-0.7-2.9-1.8-4c-1-1-0.6-2.7-0.1-4.1c0.5-1.2,0.4-2.5,0.1-3.8
			c-0.4-1.7,1.3-4,2.4-5.4c0.8-0.9,1.3-2,1.6-3.1l4.7-18.4c0.5-2.1,1.9-3.8,3.7-4.9l4-2.3c1.7-1,2.9-2.6,3.4-4.4l1.8-6.8
			c0.6-2.2,2.5-3.8,4.7-4c2.1-0.2,3.8-1.9,3.8-4.1c0-0.1,0-0.2,0-0.2l-0.4-6.5c-0.1-2.1-1.4-4.1-3.4-4.9l-5.7-2.6
			c-2.1-1-3.5-3-3.6-5.3l-0.3-5.1c-0.4-4.6,1.5-6.6,3.2-7.4c1.5-0.7,2.4-2.2,2.3-3.9l-0.1-2.5c-0.1-1.7,1-3.1,2.6-3.7
			c6.7-2.4-2.1-9-4.8-10.9c-0.5-0.4-1.1-0.6-1.7-0.6l-12-1.1c-1.5-0.1-2.3-1.4-1.9-2.9c0.6-2.2-0.7-5-1.8-6.9
			c-0.7-1.3-0.3-2.8,0.9-3.6c8.8-5.5,1.9-8.3-2.1-9.4c-1.3-0.4-2.6-0.1-3.6,0.8c-7.5,6.1-15.1,5.2-17.2,4.8
			c-0.4-0.1-0.8-0.1-1.2-0.1c-12.3,0.6-4-8.7-0.6-12.1c0.8-0.8,1.2-1.9,1.1-3.1l-0.6-5.3c-0.2-1.6-1.1-2.9-2.4-3.7l-4.7-2.7
			c-0.7-0.4-1.5-0.6-2.3-0.6h-8.4c-0.9,0-1.7,0.2-2.5,0.7c-13.9,8-12.7,1.8-11.4-1.5c0.5-1.3,0.7-2.7,0.7-4.1c0-1.2,0.3-2.4,0.9-3.4
			c0.6-1,1.4-1.8,2.5-2.5l7.4-4.3l5.1-3l8.9-5.2c0.9-0.5,1.6-1.2,2.1-2.1l0.1-0.2c1.2-2.1,3.3-3.4,5.7-3.6c1.2-0.1,2.5-0.2,3.8-0.3
			c2.8-0.2,5.1-2.2,5.9-4.9c2.1-7.4,9.5-5.7,12.1-4.8c0.7,0.2,1.4,0.3,2.1,0.2c3.3-0.3,12.7-1.2,17.2-1.6c1.5-0.2,2.8-0.9,3.8-2.1
			c3.4-4.5,5.6-3,6.9-1c1.2,1.9,3.3,2.9,5.6,2.9h12.6c2,0,3.8-1.5,4-3.5c0-0.2,0-0.3,0-0.5c0-1.3-0.7-2.6-1.9-3.3l-0.2-0.1
			c-1.4-0.8-2.4-2.2-2.7-3.8l-0.1-0.7c-0.4-1.8-1.6-3.3-3.3-3.9L238,25.4c-0.3-0.1-0.6-0.3-0.9-0.4l-14.8-8.5
			c-1.8-1.1-4-1.4-6.1-0.9c-10.4,2.5-10.7-3.4-9.6-7.9c0.6-2.3-1.1-4.6-3.5-4.6l-24.9-0.7c-3.9-0.1-7.1,3-7.1,6.9v0.1
			c0,1.4-0.8,2.6-2.1,3.1c-2.8,1.2-5.4,4.2-7,6.4c-1,1.4-1.6,3-1.6,4.8c0,4,3.2,7.1,7.1,7.1c0.2,0,0.3,0,0.5,0
			c1.6-0.1,3.1-0.2,3.8-0.2c0.3,0,0.7-0.1,1-0.2c8.7-2.4,11.7,0.6,12.7,3.6c0.8,2.3,0,4.8-1.7,6.4c-2.1,1.9-5.2,4.8-7.1,6.6
			c-0.9,0.9-2.1,1.5-3.4,1.6c-5.2,0.7-6.2,5.1-6.3,8c-0.1,1.7-0.8,3.3-2.1,4.4l-19.4,16.6c-0.3,0.3-0.6,0.5-0.9,0.7l-18.4,11.7
			c-1.9,1.2-3.4,2.9-4.4,4.9l-5,10.1c-1.9,3.9-5.8,6.3-10.1,6.3h-0.5c-2.2,0-4.3,0.3-6.4,0.8c-5.4,1.4-15.7,4.7-18.2,9.6
			c-2.4,4.6-0.3,8.4,1.3,10.4c0.8,1,1.2,2.4,1.1,3.7l-0.3,4.9c-0.2,2.5-1.6,4.8-3.7,6c-0.9,0.5-1.4,1.5-1.4,2.5v3.3
			c0,1.8,0.7,3.4,1.8,4.9c1.9,2.5-0.7,4.5-3.1,5.7c-3.3,1.7-6.3,3.7-9.3,5.9l-43.2,32c0,0-0.5-0.4,4.9,5.3c3.9,4,1.5,6.1-0.3,7
			c-0.9,0.4-1.7,1.1-2.2,1.9l-6.8,10c-1,1.5-1.5,3.3-1.4,5.1l0.1,1.7c0.2,3.5,2,6.8,4.9,8.8c2.3,1.6,5.3,3.8,8.8,6.5
			c5.5,4.4,2.4,7.5,0.2,8.9c-1.2,0.8-2.2,1.8-2.9,3c-0.4,0.6-0.7,1.3-1.1,1.9c-0.4,0.7-1.2,1.6-1.8,2.1c-1,0.8-1.4,1.9-1.4,2.8
			c-0.1,1.4,0.5,2.6,1.5,3.6l0.1,0.1c2,2.1,0.4,5.5-2.5,5.5h-3.5c-1.6,0-3.1,0.4-4.5,1.2c-0.8,0.4-1.6,0.7-2.5,0.9l-2.4,0.4
			c-1.5,0.2-2.7,1.5-2.7,3l-1.7,1c-0.9,0.5-1.8,1.3-2.3,2.2C3,287,2.8,290,3,291.8c0.2,1.2-0.1,2.4-0.7,3.5c0,0-0.8,3.2,2.3,1.6
			l0.1-0.1c1.6-0.9,3.5-1.4,5.3-1.4h9.2c2,0,3.9,0.8,5.5,2.1c5.1,4.1,11.6-2.7,11.6-2.7l1.9-2c2.2-2.3,5.6-2.8,8.3-1.2
			c0.1,0.1,0.3,0.1,0.4,0.1c0.4,0,0.8-0.3,0.8-0.7l0.2-1.1c0.4-2.8,2.5-5,5.2-5.7l2-0.5c1.9-0.5,3.3-2.3,3.3-4.3v-1
			c0-2.4-1.9-4.3-4.3-4.3c-1.7,0-3.4-0.7-4.6-2c-1.3-1.3-2-3-2.1-4.9c0-0.1,0-0.2,0-0.3c0-0.9,0.2-1.7,0.5-2.6
			c2.7-7.3,8.6-20.2,14.3-13.4c7.8,9.3,19.7,2.7,19.7,2.7L97,246c1.9-1,4-1.5,6.2-1.5h32.5C135.7,244.5,138,244.5,139.6,245
			L139.6,245z"/>
		<path class="st2" d="M47.5,267.2l-10.6,10.3c-1.1,1.1-3,0.8-3.8-0.5c-0.4-0.6-0.5-1.4-0.5-2.1c0-0.6,0.1-1.2,0.4-1.8l7.9-17
			c1.1-2.5,2.5-4.8,4-7.1l6.8-10c3.4-5.1,8.8-8.6,14.8-9.7l3.6-0.7c3.1-0.6,6.1-1.7,8.8-3.3l9.2-5.3c6.5-3.8,14.1-5.1,21.5-3.9
			l7,1.2c2.4,0.4,4.8,1.1,7,2.1l32.5,14.7c1.3,0.6,2.3,1.7,2.7,3.1c0.1,0.5,0.2,0.9,0.2,1.4c0,2.7-2.1,5.1-4.9,5.3l-14.4,1"/>
		<path class="st2" d="M115.9,151.1l13.8-10.1c1.4-1,2.7-2.1,3.9-3.2l20.6-19.4c3.2-3,7.2-4.9,11.5-5.4l6.4-0.8
			c1.2-0.2,2,1.2,1.2,2.2l-6.4,8.2c-1,1.3-2.4,2.3-4,2.9c-1.3,0.5-2.5,1.3-3.3,2.4c-0.9,1.1-1.4,2.3-1.6,3.8
			c-0.2,1.2-0.8,2.3-1.8,3.1l-15.4,11.8c-3,2.3-6.4,4-10,5.1l-6.4,1.9c-1.7,0.5-3.2,1.2-4.8,2l-1.9,1.1c-1.3,0.7-2.9-0.1-3.1-1.5
			l-0.1-0.6C114.4,153.1,114.9,151.8,115.9,151.1L115.9,151.1z"/>
	</g>
</g>
<g>
	<path class="st3" d="M103.1,132.3c2.2-8.8,8.7-11,17.3-10C117.1,130.4,111.3,133.6,103.1,132.3c-7.1,2.3-5.1,23.6-5.1,23.6
		c-0.7-10.5-7.1-16.3-7.1-16.3c3.8-3.6-1.7-12.9-11.9-11c3.8,9.9,7.8,13.2,11.9,11"/>
	<line class="st3" x1="93.2" y1="151.1" x2="98.9" y2="156.7"/>
	<line class="st3" x1="102.6" y1="151.1" x2="96.9" y2="156.7"/>
</g>
<g>
	<path class="st3" d="M33.7,266.7c2.2-8.8,8.7-11,17.3-10C47.6,264.7,41.9,268,33.7,266.7c-7.1,2.3-5.1,23.6-5.1,23.6
		c-0.7-10.5-7.1-16.3-7.1-16.3c3.8-3.6-1.7-12.9-11.9-11c3.8,9.9,7.8,13.2,11.9,11"/>
	<line class="st3" x1="23.8" y1="285.5" x2="29.4" y2="291.1"/>
	<line class="st3" x1="33.1" y1="285.5" x2="27.5" y2="291.1"/>
</g>
<g>
	<path class="st3" d="M124.6,188.2c2.2-8.8,8.7-11,17.3-10C138.6,186.3,132.8,189.5,124.6,188.2c-7.1,2.3-5.1,23.6-5.1,23.6
		c-0.7-10.5-7.1-16.3-7.1-16.3c3.8-3.6-1.7-12.9-11.9-11c3.8,9.9,7.8,13.2,11.9,11"/>
	<line class="st3" x1="114.8" y1="207" x2="120.4" y2="212.6"/>
	<line class="st3" x1="124.1" y1="207" x2="118.5" y2="212.6"/>
</g>
<g>
	<path class="st3" d="M188.7,249.4c2.2-8.8,8.7-11,17.3-10C202.7,247.4,196.9,250.7,188.7,249.4c-7.1,2.3-5.1,23.6-5.1,23.6
		c-0.7-10.5-7.1-16.3-7.1-16.3c3.8-3.6-1.7-12.9-11.9-11c3.8,9.9,7.8,13.2,11.9,11"/>
	<line class="st3" x1="178.8" y1="268.2" x2="184.4" y2="273.8"/>
	<line class="st3" x1="188.1" y1="268.2" x2="182.5" y2="273.8"/>
</g>
<g>
	<path class="st3" d="M205.7,292.5c2.2-8.8,8.7-11,17.3-10C219.7,290.6,213.9,293.9,205.7,292.5c-7.1,2.3-5.1,23.6-5.1,23.6
		c-0.7-10.5-7.1-16.3-7.1-16.3c3.8-3.6-1.7-12.9-11.9-11c3.8,9.9,7.8,13.2,11.9,11"/>
	<line class="st3" x1="195.8" y1="311.3" x2="201.4" y2="317"/>
	<line class="st3" x1="205.1" y1="311.3" x2="199.5" y2="317"/>
</g>
<rect x="38.4" y="295.5" class="st4" width="50.3" height="19.5"/>
<text transform="matrix(1 0 0 1 38.4118 313.2583)" class="st5 st6">Genéve</text>
<rect x="45.5" y="141.3" class="st4" width="50.3" height="19.5"/>
<text transform="matrix(1 0 0 1 45.4546 159.103)" class="st5 st6">Orbe</text>
<rect x="134.9" y="190.3" class="st4" width="71.1" height="19.5"/>
<text transform="matrix(1 0 0 1 134.8646 208.0286)" class="st5 st6">Lausanne</text>
<rect x="152.6" y="256.1" class="st4" width="71.1" height="19.5"/>
<text transform="matrix(1 0 0 1 152.5675 273.8223)" class="st5 st6">Bex</text>
<rect x="209" y="301.6" class="st4" width="71.1" height="19.5"/>
<text transform="matrix(1 0 0 1 209.0009 319.3295)" class="st5 st6">Martigny</text>
</svg>
