<?xml version="1.0" encoding="UTF-8"?><svg xmlns="http://www.w3.org/2000/svg" viewBox="0 0 288.49 365.36"><defs><style>.d{fill:#b9d4a8;}.e{fill:#6c8bc4;}.f{stroke:#1d1d1b;stroke-width:4.49px;}.f,.g{fill:none;stroke-miterlimit:10;}.g{stroke:#56873f;stroke-width:3.53px;}</style></defs><g id="a"/><g id="b"><g id="c"><g><g><g><path class="d" d="M286.24,307.73v4.96c0,3.58-1.67,6.95-4.51,9.13-4.27,3.29-10.53,8.51-13.95,13.36-1.35,1.91-3.34,3.23-5.63,3.68-3.07,.61-7.2,1.84-9.23,4.33-1.02,1.25-2.16,2.39-3.56,3.2l-4.85,2.79c-1.02,.58-1.72,1.6-1.91,2.76-.22,1.35-1.45,2.3-2.82,2.19l-7.49-.64c-1.44-.12-2.79-.79-3.72-1.9-1.49-1.76-4.29-3.78-7.46,.43-.73,.95-1.68,1.73-2.73,2.33l-2.91,1.67c-.74,.44-1.62,.59-2.47,.45l-1.69-.29c-1.59-.27-3.16,.49-3.91,1.91-1.65,3.1-4.79,7.58-7.48,3.19-.92-1.53-2.85-2.09-4.39-1.2l-2.13,1.23c-.55,.33-1.18,.49-1.82,.49-3,0-5.77-1.6-7.26-4.2l-3.15-5.44c-.85-1.49-1.44-3.12-1.72-4.81l-.99-6.04c-.07-.46-.22-.91-.46-1.31l-6.72-11.63-4.31-7.47c-1.07-1.84-3.11-2.92-5.24-2.75l-3.85,.29c-1.67,.13-3.15-1.09-3.33-2.76l-.49-4.42v-.09c0-.43,.3-.79,.72-.86,1.44-.26,2.45-1.49,2.45-2.92,0-.09,0-.19-.01-.28-.2-2.13-1.9-3.8-4.03-3.97l-5.77-.47s-8.08,.3-7.47-5.79c.38-3.76,.64-7.94,.79-10.59,.09-1.56,.82-3.01,2.03-3.99,4-3.28,11.59-12.57-6.32-27.17,0,0-4.13-1.83,2.2-6.24,3.16-2.21,2.42-3.32,.9-3.87l14.4-1.02c2.85-.2,4.92-2.58,4.92-5.27,0-.47-.07-.94-.2-1.42-.39-1.38-1.37-2.51-2.68-3.11l-32.49-14.66c-2.22-1.01-4.57-1.72-6.97-2.12l-7.03-1.17c-7.4-1.23-15,.15-21.5,3.89l-9.16,5.29c-2.73,1.58-5.71,2.68-8.81,3.28l-3.6,.68c-6.04,1.14-11.36,4.64-14.81,9.71l-6.8,10.01c-1.53,2.25-2.87,4.62-4.02,7.08l-7.89,16.95c-.26,.56-.38,1.17-.38,1.77,0,.73,.18,1.46,.55,2.1,.79,1.35,2.62,1.6,3.75,.52l10.62-10.31c.06,1.79,.77,3.52,2.06,4.85,1.22,1.26,2.88,1.96,4.62,1.96,2.37,0,4.29,1.92,4.29,4.29v.98c0,2.02-1.36,3.78-3.3,4.3l-2,.53c-2.7,.73-4.73,2.97-5.16,5.74l-.17,1.09c-.07,.43-.44,.71-.83,.71-.15,0-.29-.03-.43-.11-2.73-1.57-6.17-1.07-8.33,1.22l-1.87,1.99s-6.51,6.74-11.59,2.68c-1.58-1.27-3.48-2.08-5.5-2.08H10.11c-1.87,0-3.71,.49-5.33,1.44l-.1,.06c-3.15,1.59-2.34-1.59-2.34-1.59,.62-1.07,.84-2.29,.7-3.5-.21-1.77-.09-4.8,2.13-8.23,.58-.91,1.41-1.64,2.34-2.18l1.71-.99c0-1.54,1.13-2.84,2.65-3.05l2.45-.35c.87-.12,1.73-.42,2.49-.85,1.36-.8,2.91-1.2,4.49-1.2h3.5c2.87,0,4.48-3.44,2.52-5.55l-.11-.11c-.93-.98-1.54-2.25-1.48-3.61,.03-.98,.38-2.03,1.42-2.83,.62-.47,1.38-1.45,1.77-2.12,.34-.58,.72-1.25,1.08-1.86,.7-1.21,1.69-2.21,2.88-2.96,2.25-1.41,5.36-4.51-.17-8.95-3.46-2.77-6.48-4.96-8.79-6.54-2.93-2-4.72-5.26-4.88-8.81l-.08-1.69c-.07-1.79,.43-3.58,1.44-5.06l6.78-9.98c.55-.83,1.32-1.48,2.22-1.93,1.72-.85,4.2-2.94,.27-6.98-5.49-5.63-4.94-5.28-4.94-5.28l43.15-31.97c2.94-2.18,6-4.22,9.27-5.89,2.38-1.21,5.03-3.25,3.1-5.71-1.1-1.41-1.82-3.07-1.82-4.86v-3.31c0-1.01,.54-1.95,1.42-2.47,2.16-1.25,3.57-3.5,3.74-5.99l.31-4.86c.09-1.35-.3-2.67-1.14-3.71-1.57-1.94-3.69-5.75-1.29-10.37,2.55-4.86,12.79-8.12,18.22-9.55,2.09-.55,4.23-.82,6.38-.82h.54c4.3,0,8.22-2.43,10.12-6.29l4.98-10.13c1-2.01,2.51-3.71,4.41-4.91l18.4-11.71c.34-.21,.65-.45,.95-.71l19.37-16.57c1.3-1.11,2.08-2.71,2.13-4.42,.1-2.88,1.11-7.3,6.3-7.95,1.28-.16,2.46-.73,3.4-1.6,1.91-1.77,5.04-4.68,7.1-6.61,1.75-1.62,2.47-4.11,1.72-6.37-1-3-4.02-6-12.71-3.61-.33,.09-.66,.15-1,.17-.73,.04-2.19,.15-3.83,.25-.16,.01-.31,.01-.47,.01-3.89,0-7.09-3.15-7.09-7.1,0-1.71,.54-3.38,1.57-4.75,1.59-2.14,4.24-5.19,7.01-6.38,1.26-.54,2.09-1.76,2.09-3.13v-.12c0-3.91,3.23-7.06,7.13-6.95l24.91,.66c2.39,.07,4.09,2.32,3.53,4.64-1.08,4.52-.79,10.48,9.6,7.94,2.05-.5,4.23-.15,6.07,.92l14.81,8.55c.29,.17,.59,.31,.92,.43l14.82,5.44c1.72,.63,2.98,2.11,3.34,3.9l.13,.68c.33,1.6,1.32,3,2.74,3.81l.18,.1c1.19,.68,1.9,1.93,1.9,3.26,0,.17-.01,.33-.03,.48-.26,2.03-1.99,3.54-4.04,3.54h-12.57c-2.22,0-4.34-1.04-5.55-2.91-1.28-1.95-3.53-3.46-6.89,1.01-.91,1.2-2.25,1.99-3.75,2.13-4.52,.43-13.95,1.32-17.24,1.64-.7,.07-1.39,0-2.05-.22-2.58-.85-9.93-2.55-12.07,4.82-.8,2.71-3.12,4.71-5.95,4.94-1.27,.11-2.6,.21-3.79,.31-2.39,.2-4.52,1.56-5.72,3.63l-.13,.22c-.5,.89-1.25,1.62-2.13,2.13l-8.95,5.17-5.15,2.96-7.37,4.26c-1.03,.61-1.88,1.46-2.46,2.46-.58,1.01-.91,2.16-.91,3.37,0,1.4-.22,2.8-.74,4.11-1.26,3.24-2.45,9.48,11.42,1.46,.75-.44,1.6-.66,2.48-.66h8.39c.8,0,1.58,.21,2.28,.62l4.72,2.73c1.36,.79,2.25,2.16,2.42,3.71l.58,5.26c.12,1.14-.27,2.28-1.08,3.08-3.42,3.4-11.68,12.7,.61,12.07,.42-.02,.84,.01,1.25,.09,2.11,.39,9.66,1.26,17.17-4.81,1.02-.82,2.38-1.11,3.65-.75,3.9,1.08,10.86,3.95,2.05,9.41-1.22,.76-1.66,2.34-.94,3.6,1.1,1.94,2.33,4.76,1.78,6.94-.38,1.49,.42,2.77,1.94,2.91l12.04,1.08c.59,.06,1.18,.26,1.67,.61,2.76,1.91,11.5,8.48,4.81,10.89-1.57,.57-2.65,2.02-2.59,3.69l.09,2.51c.06,1.64-.86,3.15-2.34,3.86-1.72,.83-3.61,2.78-3.17,7.39l.26,5.08c.12,2.31,1.51,4.36,3.62,5.33l5.73,2.61c1.95,.9,3.25,2.8,3.37,4.95l.36,6.52c0,.08,.01,.16,.01,.24,0,2.13-1.65,3.93-3.79,4.08-2.25,.18-4.16,1.77-4.73,3.96l-1.78,6.83c-.48,1.87-1.69,3.46-3.37,4.42l-4.03,2.32c-1.84,1.07-3.17,2.83-3.7,4.88l-4.72,18.37c-.3,1.14-.84,2.2-1.59,3.12-1.17,1.41-2.79,3.76-2.43,5.44,.28,1.26,.39,2.57-.07,3.79-.54,1.41-.86,3.13,.1,4.13,1.05,1.09,1.74,2.48,1.76,4,.06,3.88,.73,9.05,4.49,2.05,1.08-2,3.03-3.39,5.27-3.75l.58-.09c2.23-.36,4.46,.22,6.38,1.44,1.76,1.11,4.57,1.77,8.33-.74,5.82-3.88,15.7-4.46,18.55-4.55,.49-.02,.98,0,1.47,.03l9.58,.76c2.82,.24,4.98,2.58,4.98,5.41v8.62c0,2.66,.66,5.28,2.03,7.56,1.08,1.81,2.67,3.88,4.97,5.72,2.21,1.77,3.76,4.22,4.35,6.98,1.4,6.55,4.07,17.98,6.35,22.07,.65,1.18,1.04,2.48,1.04,3.81ZM173.37,114.32c.75-.95-.03-2.34-1.25-2.19l-6.43,.81c-4.33,.54-8.37,2.45-11.53,5.43l-20.58,19.38c-1.22,1.16-2.52,2.23-3.88,3.22l-13.81,10.13c-1.01,.73-1.53,1.95-1.37,3.19l.09,.64c.19,1.47,1.81,2.27,3.08,1.53l1.88-1.09c1.49-.86,3.08-1.55,4.75-2.04l6.45-1.93c3.61-1.08,6.99-2.79,9.98-5.07l15.45-11.76c.98-.74,1.63-1.84,1.79-3.05,.21-1.4,.8-2.69,1.65-3.75,.87-1.07,2.02-1.9,3.34-2.38,1.57-.56,2.95-1.56,3.97-2.88l6.41-8.19Z"/><path class="e" d="M172.13,112.13c1.21-.16,2,1.23,1.25,2.19l-6.41,8.19c-1.02,1.32-2.4,2.32-3.97,2.88-1.32,.48-2.47,1.31-3.34,2.38-.85,1.05-1.44,2.34-1.65,3.75-.17,1.21-.82,2.31-1.79,3.05l-15.45,11.76c-3,2.28-6.37,3.99-9.98,5.07l-6.45,1.93c-1.66,.49-3.25,1.18-4.75,2.04l-1.88,1.09c-1.28,.74-2.89-.06-3.08-1.53l-.09-.64c-.16-1.23,.36-2.46,1.37-3.19l13.81-10.13c1.36-.99,2.66-2.06,3.88-3.22l20.58-19.38c3.16-2.98,7.2-4.89,11.53-5.43l6.43-.81Z"/><path class="e" d="M158.69,237.31c.13,.48,.2,.95,.2,1.42,0,2.69-2.08,5.07-4.92,5.27l-14.4,1.02c-1.54-.55-3.86-.55-3.86-.55h-32.54c-2.14,0-4.26,.52-6.17,1.49l-15.08,7.8s-11.88,6.55-19.65-2.74c-5.73-6.87-11.63,6.1-14.34,13.37-.31,.83-.46,1.71-.46,2.56,0,.09,0,.18,.01,.27l-10.62,10.31c-1.12,1.09-2.96,.83-3.75-.52-.37-.64-.55-1.37-.55-2.1,0-.61,.12-1.21,.38-1.77l7.89-16.95c1.14-2.46,2.49-4.82,4.02-7.08l6.8-10.01c3.44-5.07,8.77-8.57,14.81-9.71l3.6-.68c3.1-.59,6.08-1.69,8.81-3.28l9.16-5.29c6.51-3.75,14.1-5.13,21.5-3.89l7.03,1.17c2.4,.4,4.75,1.11,6.97,2.12l32.49,14.66c1.31,.59,2.29,1.73,2.68,3.11Z"/></g><g><path class="f" d="M139.56,245.03c1.53,.55,2.27,1.66-.9,3.87-6.33,4.41-2.2,6.24-2.2,6.24,17.9,14.59,10.32,23.89,6.32,27.17-1.21,.99-1.94,2.43-2.03,3.99-.15,2.65-.4,6.83-.79,10.59-.61,6.09,7.47,5.79,7.47,5.79l5.77,.47c2.13,.17,3.83,1.84,4.03,3.97,.01,.09,.01,.19,.01,.28,0,1.42-1.01,2.66-2.45,2.92-.42,.08-.72,.44-.72,.86v.09l.49,4.42c.18,1.67,1.66,2.89,3.33,2.76l3.85-.29c2.13-.17,4.17,.91,5.24,2.75l4.31,7.47,6.72,11.63c.24,.4,.39,.85,.46,1.31l.99,6.04c.28,1.69,.86,3.32,1.72,4.81l3.15,5.44c1.49,2.59,4.26,4.2,7.26,4.2,.64,0,1.27-.17,1.82-.49l2.13-1.23c1.54-.89,3.47-.33,4.39,1.2,2.69,4.4,5.83-.09,7.48-3.19,.75-1.41,2.32-2.18,3.91-1.91l1.69,.29c.85,.15,1.73-.01,2.47-.45l2.91-1.67c1.04-.61,2-1.38,2.73-2.33,3.17-4.21,5.97-2.19,7.46-.43,.93,1.11,2.29,1.77,3.72,1.9l7.49,.64c1.37,.11,2.59-.84,2.82-2.19,.19-1.16,.89-2.18,1.91-2.76l4.85-2.79c1.39-.81,2.54-1.95,3.56-3.2,2.03-2.49,6.16-3.72,9.23-4.33,2.29-.45,4.29-1.77,5.63-3.68,3.42-4.85,9.68-10.07,13.95-13.36,2.84-2.18,4.51-5.55,4.51-9.13v-4.96c0-1.33-.39-2.64-1.04-3.81-2.28-4.08-4.95-15.51-6.35-22.07-.59-2.76-2.14-5.2-4.35-6.98-2.3-1.84-3.89-3.91-4.97-5.72-1.37-2.28-2.03-4.9-2.03-7.56v-8.62c0-2.83-2.16-5.17-4.98-5.41l-9.58-.76c-.49-.03-.98-.06-1.47-.03-2.85,.09-12.73,.67-18.55,4.55-3.77,2.51-6.57,1.85-8.33,.74-1.92-1.21-4.15-1.79-6.38-1.44l-.58,.09c-2.24,.36-4.2,1.75-5.27,3.75-3.76,7-4.43,1.83-4.49-2.05-.02-1.53-.71-2.92-1.76-4-.96-1-.64-2.71-.1-4.13,.46-1.22,.35-2.54,.07-3.79-.36-1.68,1.27-4.03,2.43-5.44,.75-.92,1.29-1.97,1.59-3.12l4.72-18.37c.53-2.05,1.86-3.81,3.7-4.88l4.03-2.32c1.67-.96,2.88-2.55,3.37-4.42l1.78-6.83c.57-2.19,2.48-3.78,4.73-3.96,2.14-.16,3.79-1.95,3.79-4.08,0-.08-.01-.16-.01-.24l-.36-6.52c-.11-2.14-1.41-4.05-3.37-4.95l-5.73-2.61c-2.11-.96-3.5-3.02-3.62-5.33l-.26-5.08c-.44-4.61,1.46-6.56,3.17-7.39,1.48-.71,2.4-2.22,2.34-3.86l-.09-2.51c-.06-1.67,1.02-3.12,2.59-3.69,6.69-2.41-2.05-8.99-4.81-10.89-.49-.35-1.08-.55-1.67-.61l-12.04-1.08c-1.53-.13-2.32-1.41-1.94-2.91,.55-2.19-.68-5-1.78-6.94-.72-1.26-.28-2.84,.94-3.6,8.81-5.46,1.85-8.33-2.05-9.41-1.27-.36-2.62-.07-3.65,.75-7.52,6.07-15.07,5.2-17.17,4.81-.4-.08-.83-.11-1.25-.09-12.28,.63-4.03-8.67-.61-12.07,.81-.81,1.2-1.94,1.08-3.08l-.58-5.26c-.17-1.55-1.07-2.93-2.42-3.71l-4.72-2.73c-.7-.4-1.48-.62-2.28-.62h-8.39c-.87,0-1.73,.22-2.48,.66-13.86,8.02-12.68,1.78-11.42-1.46,.52-1.3,.74-2.7,.74-4.11,0-1.2,.33-2.36,.91-3.37,.57-1,1.42-1.85,2.46-2.46l7.37-4.26,5.15-2.96,8.95-5.17c.89-.52,1.63-1.25,2.13-2.13l.13-.22c1.2-2.08,3.33-3.43,5.72-3.63,1.19-.1,2.52-.2,3.79-.31,2.83-.22,5.15-2.22,5.95-4.94,2.14-7.37,9.49-5.68,12.07-4.82,.66,.22,1.36,.29,2.05,.22,3.29-.31,12.72-1.21,17.24-1.64,1.49-.15,2.84-.93,3.75-2.13,3.35-4.46,5.61-2.96,6.89-1.01,1.21,1.86,3.33,2.91,5.55,2.91h12.57c2.05,0,3.78-1.51,4.04-3.54,.02-.16,.03-.31,.03-.48,0-1.33-.71-2.58-1.9-3.26l-.18-.1c-1.41-.82-2.41-2.21-2.74-3.81l-.13-.68c-.36-1.79-1.63-3.28-3.34-3.9l-14.82-5.44c-.33-.11-.63-.26-.92-.43l-14.81-8.55c-1.84-1.07-4.02-1.42-6.07-.92-10.39,2.54-10.68-3.42-9.6-7.94,.56-2.32-1.14-4.58-3.53-4.64l-24.91-.66c-3.9-.1-7.13,3.04-7.13,6.95v.12c0,1.37-.83,2.59-2.09,3.13-2.77,1.19-5.42,4.24-7.01,6.38-1.03,1.37-1.57,3.04-1.57,4.75,0,3.95,3.2,7.1,7.09,7.1,.16,0,.31,0,.47-.01,1.64-.1,3.1-.2,3.83-.25,.34-.02,.67-.08,1-.17,8.69-2.39,11.71,.62,12.71,3.61,.75,2.27,.03,4.76-1.72,6.37-2.06,1.93-5.19,4.83-7.1,6.61-.94,.87-2.12,1.45-3.4,1.6-5.19,.65-6.2,5.07-6.3,7.95-.06,1.71-.83,3.31-2.13,4.42l-19.37,16.57c-.3,.26-.62,.49-.95,.71l-18.4,11.71c-1.9,1.2-3.41,2.91-4.41,4.91l-4.98,10.13c-1.9,3.86-5.82,6.29-10.12,6.29h-.54c-2.15,0-4.3,.27-6.38,.82-5.43,1.42-15.67,4.69-18.22,9.55-2.4,4.61-.28,8.42,1.29,10.37,.84,1.04,1.23,2.37,1.14,3.71l-.31,4.86c-.17,2.49-1.57,4.75-3.74,5.99-.89,.52-1.42,1.46-1.42,2.47v3.31c0,1.78,.72,3.44,1.82,4.86,1.93,2.46-.72,4.5-3.1,5.71-3.26,1.67-6.33,3.71-9.27,5.89l-43.15,31.97s-.55-.35,4.94,5.28c3.93,4.04,1.45,6.12-.27,6.98-.9,.45-1.67,1.1-2.22,1.93l-6.78,9.98c-1.01,1.48-1.5,3.26-1.44,5.06l.08,1.69c.16,3.54,1.95,6.81,4.88,8.81,2.31,1.58,5.34,3.77,8.79,6.54,5.53,4.44,2.42,7.54,.17,8.95-1.19,.75-2.19,1.75-2.88,2.96-.36,.62-.74,1.28-1.08,1.86-.39,.67-1.16,1.65-1.77,2.12-1.04,.8-1.39,1.85-1.42,2.83-.06,1.36,.55,2.64,1.48,3.61l.11,.11c1.95,2.11,.35,5.55-2.52,5.55h-3.5c-1.58,0-3.13,.4-4.49,1.2-.76,.44-1.62,.73-2.49,.85l-2.45,.35c-1.51,.21-2.65,1.51-2.65,3.05l-1.71,.99c-.93,.54-1.76,1.27-2.34,2.18-2.22,3.43-2.34,6.46-2.13,8.23,.15,1.21-.08,2.43-.7,3.5,0,0-.81,3.19,2.34,1.59l.1-.06c1.62-.94,3.46-1.44,5.33-1.44h9.16c2.02,0,3.91,.81,5.5,2.08,5.08,4.06,11.59-2.68,11.59-2.68l1.87-1.99c2.16-2.29,5.61-2.79,8.33-1.22,.13,.08,.28,.11,.43,.11,.39,0,.76-.28,.83-.71l.17-1.09c.43-2.77,2.46-5.01,5.16-5.74l2-.53c1.94-.52,3.3-2.28,3.3-4.3v-.98c0-2.37-1.92-4.29-4.29-4.29-1.74,0-3.4-.71-4.62-1.96-1.29-1.32-2.01-3.05-2.06-4.85-.01-.09-.01-.18-.01-.27,0-.85,.15-1.73,.46-2.56,2.7-7.27,8.6-20.24,14.34-13.37,7.77,9.29,19.65,2.74,19.65,2.74l15.08-7.8c1.91-.98,4.03-1.49,6.17-1.49h32.54s2.32,0,3.86,.55Z"/><path class="f" d="M47.48,267.23l-10.62,10.31c-1.12,1.09-2.96,.83-3.75-.52-.37-.64-.55-1.37-.55-2.1,0-.61,.12-1.21,.38-1.77l7.89-16.95c1.14-2.46,2.49-4.82,4.02-7.08l6.8-10.01c3.44-5.07,8.77-8.57,14.81-9.71l3.6-.68c3.1-.59,6.08-1.69,8.81-3.28l9.16-5.29c6.51-3.75,14.1-5.13,21.5-3.89l7.03,1.17c2.4,.4,4.75,1.11,6.97,2.12l32.49,14.66c1.31,.59,2.29,1.73,2.68,3.11,.13,.48,.2,.95,.2,1.42,0,2.69-2.08,5.07-4.92,5.27l-14.4,1.02"/><path class="f" d="M115.89,151.1l13.81-10.13c1.36-.99,2.66-2.06,3.88-3.22l20.58-19.38c3.16-2.98,7.2-4.89,11.53-5.43l6.43-.81c1.21-.16,2,1.23,1.25,2.19l-6.41,8.19c-1.02,1.32-2.4,2.32-3.97,2.88-1.32,.48-2.47,1.31-3.34,2.38-.85,1.05-1.44,2.34-1.65,3.75-.17,1.21-.82,2.31-1.79,3.05l-15.45,11.76c-3,2.28-6.37,3.99-9.98,5.07l-6.45,1.93c-1.66,.49-3.25,1.18-4.75,2.04l-1.88,1.09c-1.28,.74-2.89-.06-3.08-1.53l-.09-.64c-.16-1.23,.36-2.46,1.37-3.19Z"/></g></g><g><path class="g" d="M195.42,192.13c2.21-8.81,8.73-10.97,17.29-9.98-3.3,8.02-9.09,11.3-17.29,9.98-7.06,2.3-5.05,23.61-5.05,23.61-.67-10.46-7.13-16.27-7.13-16.27,3.79-3.62-1.69-12.86-11.9-11,3.77,9.85,7.75,13.19,11.9,11"/><line class="g" x1="185.55" y1="210.93" x2="191.17" y2="216.55"/><line class="g" x1="194.87" y1="210.93" x2="189.25" y2="216.55"/></g><g><path class="g" d="M30.81,262.2c2.21-8.81,8.73-10.97,17.29-9.98-3.3,8.02-9.09,11.3-17.29,9.98-7.06,2.3-5.05,23.61-5.05,23.61-.67-10.46-7.13-16.27-7.13-16.27,3.79-3.62-1.69-12.86-11.9-11,3.77,9.85,7.75,13.19,11.9,11"/><line class="g" x1="20.94" y1="281" x2="26.56" y2="286.62"/><line class="g" x1="30.26" y1="281" x2="24.64" y2="286.62"/></g><g><path class="g" d="M110.43,188.22c2.21-8.81,8.73-10.97,17.29-9.98-3.3,8.02-9.09,11.3-17.29,9.98-7.06,2.3-5.05,23.61-5.05,23.61-.67-10.46-7.13-16.27-7.13-16.27,3.79-3.62-1.69-12.86-11.9-11,3.77,9.85,7.75,13.19,11.9,11"/><line class="g" x1="100.56" y1="207.01" x2="106.18" y2="212.63"/><line class="g" x1="109.88" y1="207.01" x2="104.26" y2="212.63"/></g><g><path class="g" d="M195.46,261.8c2.21-8.81,8.73-10.97,17.29-9.98-3.3,8.02-9.09,11.3-17.29,9.98-7.06,2.3-5.05,23.61-5.05,23.61-.67-10.46-7.13-16.27-7.13-16.27,3.79-3.62-1.69-12.86-11.9-11,3.77,9.85,7.75,13.19,11.9,11"/><line class="g" x1="185.58" y1="280.6" x2="191.2" y2="286.22"/><line class="g" x1="194.91" y1="280.6" x2="189.29" y2="286.22"/></g></g></g></g></svg>