<?xml version="1.0" encoding="utf-8"?>
<!-- Generator: Adobe Illustrator 26.1.0, SVG Export Plug-In . SVG Version: 6.00 Build 0)  -->
<svg version="1.1" id="Calque_1" xmlns="http://www.w3.org/2000/svg" xmlns:xlink="http://www.w3.org/1999/xlink" x="0px" y="0px"
	 viewBox="0 0 261.9 377" style="enable-background:new 0 0 261.9 377;" xml:space="preserve">
<style type="text/css">
	.st0{fill:none;stroke:#1D1D1B;stroke-width:1.63;stroke-miterlimit:10;}
	.st1{fill:#FCDCC3;stroke:#000000;stroke-width:1.21;stroke-miterlimit:10;}
	.st2{fill:#EDE1B0;stroke:#000000;stroke-width:1.21;stroke-miterlimit:10;}
	.st3{opacity:0.25;fill:#B0C3EA;enable-background:new    ;}
	.st4{fill:#4E9D48;stroke:#1D1D1B;stroke-width:0.72;stroke-miterlimit:10;}
	.st5{fill:#AEBBDE;stroke:#1D1D1B;stroke-width:1.38;stroke-miterlimit:10;}
	.st6{fill:#AEBBDE;stroke:#1D1D1B;stroke-width:1.29;stroke-miterlimit:10;}
	.st7{fill:#AEBBDE;stroke:#1D1D1B;stroke-width:1.33;stroke-miterlimit:10;}
	.st8{fill:#AEBBDE;stroke:#1D1D1B;stroke-miterlimit:10;}
	.st9{fill:#B8ACD1;stroke:#1D1D1B;stroke-miterlimit:10;}
	.st10{fill:#B8ACD1;stroke:#1D1D1B;stroke-width:0.93;stroke-miterlimit:10;}
	.st11{fill:#B8ACD1;stroke:#1D1D1B;stroke-width:0.97;stroke-miterlimit:10;}
	.st12{fill:#B8ACD1;stroke:#1D1D1B;stroke-width:0.83;stroke-miterlimit:10;}
	.st13{fill:#B8ACD1;stroke:#1D1D1B;stroke-width:1.11;stroke-miterlimit:10;}
	.st14{fill:#B8ACD1;stroke:#1D1D1B;stroke-width:0.7;stroke-miterlimit:10;}
	.st15{fill:#B8ACD1;stroke:#1D1D1B;stroke-width:0.54;stroke-miterlimit:10;}
	.st16{fill:none;}
	.st17{fill:#5F76AD;}
	.st18{opacity:0.24;}
	.st19{fill:#DCD7EA;}
	.st20{fill:#C7D2EA;}
	.st21{opacity:0.35;}
	.st22{opacity:0.64;}
	.st23{opacity:0.22;}
	.st24{fill:#8195BD;}
	.st25{opacity:0.74;}
	.st26{fill:#E9EEF8;}
</style>
<g id="a">
</g>
<g>
	<path class="st0" d="M163.9,248.6c0,0,58.9-18.8,32.9-71.5"/>
	<line class="st0" x1="164.1" y1="249.2" x2="187.9" y2="256.1"/>
	<line class="st0" x1="164.6" y1="248.9" x2="170.5" y2="226.7"/>
</g>
<g>
	<path class="st0" d="M18.8,344.4c0,0-12.5-60.5,46.2-63.6"/>
	<line class="st0" x1="18.2" y1="344.5" x2="0.6" y2="327"/>
	<line class="st0" x1="18.2" y1="343.9" x2="34.7" y2="327.9"/>
</g>
<g>
	<polygon class="st1" points="127,255 138.4,241.8 132.1,253.6 147.8,244.2 135.5,254.8 150.5,251.8 134.6,258.6 153.2,259.4 
		132.1,262.9 	"/>
	<path class="st2" d="M90.6,282.6c-2.9-11.8,16.4-30.7,33.4-29.8c3.9,0.2,4.8,7.2,8.2,9.9C140.6,272.3,98.4,294,90.6,282.6
		L90.6,282.6z"/>
	<path class="st3" d="M105.5,284.9c0,0,3.7-12.9-2.3-24.8c0,0,12.6-8.8,20.8-7.3c0,0,3.3,1.3,5.1,5.6c0,0,4.1,5.7,4.2,6.8
		C133.3,265.2,134.3,275.9,105.5,284.9L105.5,284.9z"/>
</g>
<g>
	<g>
		<path class="st4" d="M200.5,59.1c0,0,2.8,73.4-24.5,143.3c0,0,4.2-1.4,4.4,7.7c0,0,26.8-79.4,22.8-151"/>
		<g>
			<path class="st5" d="M199,59.7c-2.9-26.9-19.2-30.9-19.8-47.9c5.5,3,10,7,13.1,12c-1.4-7.7-1.5-15.1,0.3-22.1
				c3.7,6.2,6.1,13.2,7.4,21.1c1.6-7,4-13.5,7.4-19.4c1.5,6.2,1.7,12.7,0.4,19.6c3.3-4.6,6.9-8.4,11.2-10.2
				C219.6,27.2,206,27.2,199,59.7L199,59.7z"/>
			<path class="st5" d="M202.7,63.4c26.7-4.4,29.7-21,46.6-22.6c-2.7,5.7-6.4,10.4-11.2,13.8c7.6-1.9,15-2.4,22.1-1
				c-6,4-12.8,6.9-20.6,8.6c7,1.2,13.7,3.2,19.8,6.3c-6.1,1.9-12.6,2.4-19.5,1.6c4.8,3,8.8,6.4,10.9,10.6
				C236.3,82,235.5,68.5,202.7,63.4L202.7,63.4z"/>
			<path class="st5" d="M199.3,67.7c6.2,26.3,22.9,28.3,25.7,45c-5.9-2.3-10.8-5.7-14.5-10.3c2.4,7.5,3.4,14.8,2.4,21.9
				c-4.4-5.7-7.8-12.3-10-20c-0.8,7.1-2.3,13.9-4.9,20.1c-2.3-6-3.3-12.4-2.9-19.4c-2.7,5-5.8,9.2-9.8,11.6
				C183,102.5,196.5,100.7,199.3,67.7L199.3,67.7z"/>
			<path class="st5" d="M195.1,63.8c-26.8,4-30.1,20.5-47,21.9c2.8-5.7,6.5-10.3,11.5-13.6c-7.7,1.8-15.1,2.2-22.1,0.6
				c6-3.9,12.9-6.7,20.7-8.3c-7-1.3-13.6-3.4-19.6-6.6c6.1-1.8,12.6-2.2,19.6-1.3c-4.7-3.1-8.7-6.5-10.7-10.7
				C161.8,44.6,162.4,58.2,195.1,63.8L195.1,63.8z"/>
			<path class="st6" d="M201.6,66.4c21.4,15.7,34.1,7.6,46.9,18.2c-5.5,1.7-11.1,2-16.6,0.7c6.5,4.1,12,8.9,16,14.6
				c-6.7-1.6-13.4-4.6-19.9-8.9c4.1,5.6,7.5,11.4,9.8,17.5c-5.4-3.1-10.3-7.2-14.6-12.5c1.4,5.2,2.1,10,0.8,14
				C213.1,101.1,221.2,92.2,201.6,66.4z"/>
			<path class="st7" d="M201.6,60.7c16-22.7,7.5-35.5,18.3-49.1c1.8,5.7,2.2,11.4,0.9,17.2c4.2-6.9,9.1-12.7,14.9-17
				c-1.6,7-4.6,14-9,20.8c5.8-4.4,11.7-8.1,18-10.6c-3.1,5.7-7.3,10.9-12.8,15.5c5.3-1.6,10.3-2.4,14.5-1.3
				C237.3,47.8,228,39.7,201.6,60.7L201.6,60.7z"/>
			<path class="st5" d="M195.1,60.7c-22.8-14.7-36.1-4.5-49.7-14.6c5.8-2.4,11.7-3.4,17.6-2.6c-6.9-3.7-12.8-8.3-17-14.1
				c7.1,1,14.2,3.5,21.1,7.4c-4.4-5.6-7.9-11.6-10.4-17.9c5.8,2.7,11,6.7,15.5,11.9c-1.5-5.5-2.2-10.6-0.9-15.1
				C182.7,24.3,174.2,34.9,195.1,60.7L195.1,60.7z"/>
			<path class="st7" d="M196.5,66.8c-15.1,23.3-6,35.8-16.3,49.8c-2-5.6-2.6-11.3-1.6-17.1c-3.9,7.1-8.5,13.1-14.2,17.6
				c1.3-7.1,4-14.1,8.1-21.2c-5.6,4.7-11.4,8.6-17.5,11.4c2.9-5.9,6.9-11.2,12.1-16c-5.2,1.8-10.2,2.8-14.4,1.9
				C161.3,81.2,171,88.9,196.5,66.8L196.5,66.8z"/>
			<path class="st8" d="M201.6,64.7c17.9,5.7,25.5-4.5,36.4-0.1c-3.6,3-7.5,4.9-11.6,5.6c5.3,1.2,10.1,3.3,13.9,6.5
				c-5.1,0.8-10.3,0.5-15.6-0.9c3.9,3.1,7.3,6.6,10,10.7c-4.4-0.7-8.6-2.5-12.6-5.3c1.9,3.6,3.2,7.2,3.1,10.7
				C215.8,88.2,220,78.8,201.6,64.7L201.6,64.7z"/>
			<path class="st8" d="M203,61.9c14.2-12.4,9.4-24.1,18.8-31.2c0.7,4.6,0.3,9-1.2,12.9c3.8-3.9,8-6.9,12.8-8.5
				c-1.9,4.7-4.9,9-8.8,12.9c4.7-1.7,9.4-2.8,14.3-3c-2.9,3.4-6.6,6.1-11,8c4.1,0.2,7.8,1,10.7,2.9C230.5,61.9,224.6,53.5,203,61.9
				L203,61.9z"/>
			<path class="st8" d="M199.1,61.9c-14.6-11.9-25.3-5.2-33.9-13.3c4.5-1.4,8.8-1.8,12.9-1c-4.5-3.1-8.2-6.7-10.5-11.2
				c5,1.1,9.7,3.3,14.2,6.5c-2.5-4.3-4.4-8.8-5.4-13.6c3.8,2.3,7.1,5.4,9.7,9.5c-0.5-4-0.4-7.8,1.1-11
				C194.4,34.8,187.1,42,199.1,61.9L199.1,61.9z"/>
			<path class="st8" d="M199.5,65.6c-2.6,18.6,8.7,24.4,6.2,35.9c-3.5-3.1-6.1-6.6-7.5-10.5c-0.3,5.5-1.5,10.5-4.1,14.8
				c-1.6-4.9-2.2-10-1.8-15.6c-2.4,4.4-5.3,8.3-8.8,11.6c0-4.5,1-8.9,3.1-13.2c-3.2,2.5-6.5,4.4-10,4.8
				C178.7,83.6,188.7,86.1,199.5,65.6L199.5,65.6z"/>
			<path class="st8" d="M196.2,64.2c-17.2,7.5-16.2,20.2-27.3,24.1c0.8-4.6,2.4-8.6,5.1-11.9c-4.8,2.6-9.7,4.2-14.7,4.2
				c3.3-3.9,7.4-7.1,12.3-9.6c-5,0.2-9.9-0.2-14.5-1.4c3.8-2.3,8.1-3.8,12.9-4.3c-3.8-1.5-7.1-3.3-9.3-6
				C170,55.9,173,65.8,196.2,64.2L196.2,64.2z"/>
			<path class="st9" d="M191.7,48.5c4.5,2.8,7.2,6.9,6.8,13.4C194.1,59.3,191.8,54.8,191.7,48.5z"/>
			<path class="st10" d="M199.5,63.7c5.2,0.8,9.3,3.1,11.2,8.4C205.5,71.4,201.8,68.6,199.5,63.7L199.5,63.7z"/>
			<path class="st11" d="M199.3,62.8c0.4,4.6-1.4,9.1-7.1,13.1C191.7,71.3,194,67,199.3,62.8z"/>
			<path class="st9" d="M198.8,62.5c-4.5,2.8-9.4,3.4-15,0.1C188.1,59.8,193.1,59.8,198.8,62.5z"/>
			<path class="st12" d="M201.6,62.7c2.2-3.3,5.8-5.3,11.7-4.8C211.3,61.2,207.4,62.8,201.6,62.7z"/>
			<path class="st13" d="M199.4,62.1c-0.4-6.1,1.4-11.3,7.2-15C207.2,53,204.8,58,199.4,62.1z"/>
			<path class="st14" d="M199.7,62.6c2.2,2.1,3.2,5.5,2.1,11.2C199.7,71.9,198.9,68.1,199.7,62.6z"/>
			<path class="st15" d="M199.5,63.2c1.6-2,4-3.1,7.9-2.5C205.8,62.7,203.2,63.5,199.5,63.2z"/>
			<g>
				<g>
					<line class="st16" x1="189.8" y1="53" x2="198.5" y2="61.9"/>
					<path class="st17" d="M189.8,53c3.5,2.2,6.5,5.3,8.7,8.9C195,59.6,192,56.6,189.8,53L189.8,53L189.8,53z"/>
				</g>
				<g>
					<line class="st16" x1="209.1" y1="50.4" x2="203.2" y2="60.7"/>
					<path class="st17" d="M209.1,50.4c-1.1,3.8-3.1,7.4-5.9,10.2C204.3,56.8,206.3,53.3,209.1,50.4L209.1,50.4z"/>
				</g>
				<g>
					<line class="st16" x1="207.4" y1="71.4" x2="200.8" y2="63.8"/>
					<path class="st17" d="M207.4,71.4c-2.9-1.9-5.2-4.5-6.6-7.6C203.7,65.7,206,68.3,207.4,71.4L207.4,71.4z"/>
				</g>
				<g>
					<line class="st16" x1="189.8" y1="73.7" x2="198" y2="63.8"/>
					<path class="st17" d="M189.8,73.7c2-3.8,4.8-7.3,8.2-9.9C196.1,67.7,193.2,71.1,189.8,73.7L189.8,73.7z"/>
				</g>
			</g>
		</g>
		<g class="st18">
			<path class="st19" d="M201,56.4l-0.2,0.4c-0.1,0.1-0.1,0.2,0.1,0.2l0.1,0.1l-0.1-0.2c-0.1,0.1-0.2,0.3-0.3,0.4
				c0,0.1-0.1,0.1-0.1,0.2c0,0.1,0.1,0.1,0.1,0.2c0,0.1-0.1,0.2-0.1,0.3l-0.2,0.5c-0.1,0.1,0,0.2,0.1,0.3c0.2,0.1,0.4,0,0.6,0h0
				l-0.4,0.1c-0.3,0-0.1-0.1-0.2,0c0,0.1-0.1,0.2-0.2,0.2s-0.1,0.2-0.1,0.3c0,0,0,0.1,0.1,0.1c0,0,0,0,0,0c0.1,0.1,0.1,0,0.1-0.1
				l0.2-0.1l0,0c-0.1,0-0.4,0.2-0.3,0.4c0.1,0.2,0.5,0.1,0.7,0s0.6-0.3,0.4-0.5c0,0-0.1,0-0.1,0c0,0,0,0,0,0c0,0,0,0,0,0
				c0-0.1,0.1-0.1,0.1-0.2c0.1-0.2,0.2-0.3,0.1-0.5c-0.2-0.2-0.6-0.2-0.8-0.1l0.7,0.2l0.2-0.5c0.1-0.1,0.2-0.3,0.2-0.4
				c0-0.1,0-0.1,0-0.2c0,0-0.1-0.1-0.1-0.1c0,0,0,0,0,0c0,0,0,0,0,0c0.1,0,0.1-0.1,0.2-0.2l0.2-0.2c0.1-0.1,0-0.2-0.1-0.2l-0.1-0.1
				l0.1,0.2l0.2-0.4c0.1-0.2-0.1-0.3-0.3-0.3C201.5,56.2,201.1,56.2,201,56.4L201,56.4L201,56.4z"/>
		</g>
		<g class="st18">
			<path class="st19" d="M202.9,61.3c-0.4,0.1-0.7,0.2-1,0.4c-0.1,0.1-0.3,0.2-0.4,0.3c0,0-0.1,0-0.1,0.1c0,0,0,0,0,0
				c-0.1,0,0,0,0,0l-0.1,0c0.1-0.1,0.1,0,0,0c0,0,0,0,0,0c0,0,0.1,0,0.1,0c-0.1,0-0.3,0-0.4,0.1c-0.1,0-0.2,0.1-0.2,0.2
				c0,0.2,0.3,0.3,0.4,0.3c0.1,0,0.3-0.1,0.4-0.1c0.1-0.1,0.2-0.1,0.3-0.2c0.1,0,0.1-0.1,0.2-0.1c0,0,0.1,0,0,0s0,0,0,0
				c0,0,0.1,0,0.1-0.1c0.1,0,0.1-0.1,0.2-0.1c0.1,0-0.1,0,0,0l0,0c0,0,0.1,0,0.1,0s0.1,0,0.1,0c0,0,0.1,0,0,0s0,0,0,0h0.1
				c0,0,0.1,0,0.1,0c0.1,0,0.2-0.1,0.3-0.2c0.1-0.1,0.1-0.2,0.1-0.2C203.3,61.2,203,61.2,202.9,61.3L202.9,61.3L202.9,61.3z"/>
		</g>
		<g class="st18">
			<path class="st19" d="M199.8,65.3c0.2,0.4,0.4,0.8,0.6,1.2c0.2,0.4,0.3,0.8,0.2,1.2c0,0.1,0.2,0.1,0.2,0.1c0.1,0,0.2,0,0.4-0.1
				c0.1,0,0.4-0.1,0.5-0.3c0-0.4-0.1-0.8-0.2-1.2c-0.2-0.4-0.4-0.8-0.6-1.2c-0.1-0.1-0.4,0-0.5,0C200.2,65,199.8,65.2,199.8,65.3
				L199.8,65.3L199.8,65.3z"/>
		</g>
		<g class="st18">
			<path class="st19" d="M193.3,53.7c0.1,0.5,0.3,1,0.6,1.5c0.2,0.4,0.5,0.9,1,1.1c0.2,0.1,0.5,0,0.7-0.1c0.1-0.1,0.3-0.3,0.1-0.4
				c-0.4-0.2-0.6-0.6-0.8-0.9c-0.2-0.4-0.4-0.9-0.5-1.4c-0.1-0.2-0.4-0.1-0.6-0.1S193.2,53.5,193.3,53.7L193.3,53.7L193.3,53.7z"/>
		</g>
		<g class="st18">
			<path class="st19" d="M195.3,61.9c-2.4-0.5-5.3-1.2-7.5,0.4c-0.2,0.1,0.2,0.2,0.2,0.2c0.2,0,0.5-0.1,0.7-0.2
				c0.8-0.6,1.7-0.6,2.6-0.5c1,0.1,2.1,0.3,3.1,0.5c0.2,0,0.5,0,0.7-0.1C195.2,62.1,195.5,62,195.3,61.9L195.3,61.9L195.3,61.9z"/>
		</g>
		<g class="st18">
			<path class="st19" d="M207.3,59.9c0.2-0.1,0.5-0.1,0.7-0.2c-0.1,0,0.1,0,0.1,0c0.1,0,0.1,0,0.2,0c0.1,0,0.2,0,0.4,0
				c0.5-0.1,0.9-0.1,1.4-0.1c0.2,0,0.5-0.1,0.7-0.3c0.1-0.2-0.1-0.3-0.3-0.3c-1.1,0-2.2,0.1-3.2,0.4c-0.2,0-0.5,0.2-0.4,0.4
				S207.1,59.9,207.3,59.9L207.3,59.9L207.3,59.9z"/>
		</g>
		<g class="st18">
			<path class="st19" d="M196.8,67.4c-0.7,2.1-2.1,3.7-3.6,5.3c-0.2,0.2,0.1,0.2,0.3,0.2c0.2,0,0.5-0.1,0.7-0.3
				c1.5-1.6,2.9-3.3,3.6-5.5C197.9,67,196.9,67.1,196.8,67.4L196.8,67.4L196.8,67.4z"/>
		</g>
		<g>
			<path class="st20" d="M204.5,18.6c0.8,0,2.2-0.3,2.7-1c0.5-0.7-0.4-0.8-1-0.8c-0.8,0-2.2,0.3-2.7,1
				C203,18.5,203.9,18.6,204.5,18.6L204.5,18.6z"/>
		</g>
		<g>
			<path class="st20" d="M192.6,7.1c0.2,2,1.3,3.8,2,5.6s1.3,3.8,1.9,5.8c1,3.9,1.6,7.9,1.7,12c0,0.2,1,0,1-0.3c-0.1-4-0.7-8-1.7-12
				c-0.5-2-1.1-3.9-1.9-5.8s-1.8-3.6-2-5.6C193.6,6.6,192.6,6.8,192.6,7.1C192.6,7.1,192.6,7.1,192.6,7.1z"/>
		</g>
		<g class="st21">
			<path class="st20" d="M205.7,8.8c-0.3,1.2-0.9,2.2-1.3,3.4c-0.4,1-0.6,2.1-0.8,3.1c-0.5,2.2-0.9,4.5-1.8,6.6
				c-0.2,0.5,0.8,0.4,0.9,0.1c1-2.1,1.4-4.3,1.8-6.5c0.2-1.1,0.5-2.3,0.9-3.4s0.9-2.2,1.3-3.4C206.9,8.3,205.8,8.4,205.7,8.8
				L205.7,8.8L205.7,8.8z"/>
		</g>
		<g class="st21">
			<path class="st20" d="M173.9,35.4c0.2,0.9,0.8,1.7,1.6,2.2c0.2,0.1,0.5,0.1,0.7,0c0.1,0,0.2-0.1,0.3-0.2c0,0,0.1-0.1,0-0.2
				c-0.8-0.5-1.3-1.2-1.5-2.1c0-0.1-0.1-0.1-0.2-0.1c-0.1,0-0.3,0-0.4,0s-0.2,0.1-0.3,0.2C173.9,35.2,173.8,35.3,173.9,35.4
				L173.9,35.4L173.9,35.4z"/>
		</g>
		<g class="st21">
			<path class="st20" d="M172,19l2.9,7.3c0.1,0.3,1.1,0,1-0.3l-2.9-7.3C172.9,18.4,171.9,18.7,172,19L172,19z"/>
		</g>
		<g class="st21">
			<path class="st20" d="M160.3,23.4c3.3,1.4,5.5,4.3,7.3,7.2c0.2,0.3,1.2,0,0.9-0.4c-1.9-3-4.1-5.9-7.5-7.3
				c-0.2-0.1-0.5-0.1-0.7,0.1C160.3,23,160.1,23.3,160.3,23.4L160.3,23.4L160.3,23.4z"/>
		</g>
		<g class="st21">
			<path class="st20" d="M186.9,30.4c1.6,3.8,2.6,7.8,3,11.9c0,0.3,1,0.1,1-0.3c-0.4-4.1-1.4-8.1-3-11.9
				C187.7,29.8,186.7,30.1,186.9,30.4L186.9,30.4z"/>
		</g>
		<g class="st21">
			<path class="st20" d="M178.7,33.4c1.5,0.6,2.4,2.2,3.3,3.4c1,1.4,2,2.9,2.8,4.4c0.2,0.4,1.2,0,0.9-0.4c-0.9-1.6-1.9-3.2-3-4.7
				c-1-1.3-2-2.7-3.5-3.4C178.9,32.5,178.1,33.1,178.7,33.4L178.7,33.4L178.7,33.4z"/>
		</g>
		<g class="st22">
			<path class="st20" d="M151.6,32.9c3.7,0.8,7.2,2.4,10.3,4.7c0.3,0.2,1.2-0.2,0.8-0.5c-3.1-2.3-6.7-4-10.4-4.8
				c-0.2,0-0.6,0-0.7,0.2C151.4,32.6,151.4,32.9,151.6,32.9L151.6,32.9L151.6,32.9z"/>
		</g>
		<g class="st22">
			<path class="st20" d="M150.8,46.9c3.9,0.2,7.9-1.8,11.8-0.7c0.4,0.1,1.2-0.4,0.6-0.6c-4-1.2-8,0.8-12,0.6
				C150.8,46.3,150.1,46.9,150.8,46.9L150.8,46.9L150.8,46.9z"/>
		</g>
		<g class="st22">
			<path class="st20" d="M166,60.8c1.3,0.3,2.3,1.1,3.4,1.8s2.1,1.3,3.3,1.8c2.2,1,4.6,1.5,7.1,1.2c0.4-0.1,0.9-0.5,0.2-0.4
				c-2.5,0.3-5-0.4-7.2-1.5c-1-0.5-2-1.1-3-1.8s-1.8-1.2-2.9-1.5c-0.2,0-0.5,0-0.7,0.1C166,60.5,165.8,60.7,166,60.8L166,60.8
				L166,60.8z"/>
		</g>
		<g class="st22">
			<path class="st20" d="M159.9,53.3c1,0.2,1.8,1,2.6,1.5c1,0.5,2,0.8,3.1,0.9c0.2,0,0.6-0.1,0.7-0.3s-0.1-0.3-0.3-0.3
				c-1-0.1-2-0.4-2.9-0.9s-1.6-1.2-2.6-1.5c-0.2-0.1-0.5,0-0.7,0.2C159.7,53.1,159.7,53.2,159.9,53.3
				C159.9,53.3,159.9,53.3,159.9,53.3z"/>
		</g>
		<g class="st22">
			<path class="st20" d="M145.9,58.3c2-0.3,4.1-0.4,6.1-0.2c1.9,0.1,3.8,0.7,5.8,0.7c0.3,0,1.1-0.5,0.4-0.5c-1.1,0-2.1-0.2-3.1-0.4
				s-2.1-0.3-3.1-0.3c-2-0.1-3.9,0-5.9,0.3C145.6,57.9,145.2,58.4,145.9,58.3L145.9,58.3L145.9,58.3z"/>
		</g>
		<g class="st22">
			<path class="st20" d="M143.6,71.7c4.1-2.4,8.6-4,13.2-4.9c0.2,0,0.6-0.1,0.6-0.4c0-0.2-0.3-0.3-0.4-0.2c-4.9,0.9-9.6,2.7-14,5.2
				c-0.2,0.1-0.2,0.3-0.1,0.4C143,71.9,143.4,71.8,143.6,71.7L143.6,71.7L143.6,71.7z"/>
		</g>
		<g class="st22">
			<path class="st20" d="M152.3,83.3c-0.2-2.3,1.7-4.2,3.2-5.6c0.8-0.8,1.7-1.5,2.6-2.2c0.4-0.3,0.9-0.7,1.3-1
				c0.5-0.4,1-0.9,1.6-0.8c0.4,0,1.1-0.6,0.4-0.6c-1.3-0.1-2.4,0.9-3.3,1.7c-1.1,0.8-2.1,1.7-3.1,2.6c-1.7,1.6-3.9,3.7-3.7,6.3
				C151.3,84,152.3,83.8,152.3,83.3L152.3,83.3L152.3,83.3z"/>
		</g>
		<g class="st22">
			<path class="st20" d="M156.9,90c0.7,0.2,1.4-0.1,2-0.5c0.7-0.5,1.4-0.8,2.2-1.1c1.6-0.7,3.2-1.3,5-1.4c0.2,0,0.6-0.1,0.7-0.2
				s-0.1-0.2-0.2-0.2c-1.6,0.1-3.1,0.6-4.6,1.1c-0.8,0.3-1.5,0.6-2.2,0.9c-0.3,0.2-0.7,0.3-1,0.5c-0.2,0.1-0.7,0.6-1,0.5
				c-0.2-0.1-0.5,0-0.7,0.1C156.9,89.7,156.7,89.9,156.9,90L156.9,90L156.9,90z"/>
		</g>
		<g class="st22">
			<path class="st20" d="M160.4,102.1c2.8-4.8,7.3-8.4,11.3-12.1c0.4-0.4-0.6-0.4-0.8-0.2c-4.1,3.8-8.6,7.4-11.5,12.3
				C159.2,102.5,160.2,102.4,160.4,102.1L160.4,102.1L160.4,102.1z"/>
		</g>
		<g class="st22">
			<path class="st20" d="M183.9,87c2.8-1.5,5.4-3.3,7.7-5.4c1.1-1,2.2-2.1,3.2-3.3s1.7-2.4,1.8-3.9c0-0.1-1,0-1,0.3
				c-0.1,1.5-0.9,2.8-1.8,3.9s-2.1,2.2-3.2,3.3c-2.3,2-4.8,3.8-7.4,5.2c-0.2,0.1-0.1,0.2,0.1,0.2C183.4,87.2,183.7,87.1,183.9,87
				L183.9,87L183.9,87z"/>
		</g>
		<g class="st22">
			<path class="st20" d="M217.7,68.3c2.6-0.3,5.1-0.9,7.5-1.8s5.1-1.9,7.7-1.1c0.4,0.1,1.2-0.5,0.6-0.7c-2.5-0.7-5-0.1-7.3,0.7
				c-2.7,1-5.4,1.8-8.3,2.2C217.3,67.6,217,68.4,217.7,68.3L217.7,68.3L217.7,68.3z"/>
		</g>
		<g class="st22">
			<path class="st20" d="M224.4,71.5c3.8,0.2,7.4,1.8,10.3,4.3c0.3,0.3,1.2-0.2,0.8-0.6c-2.9-2.7-6.8-4.2-10.7-4.5
				c-0.2,0-0.6,0.1-0.6,0.3C224,71.3,224.2,71.4,224.4,71.5L224.4,71.5L224.4,71.5z"/>
		</g>
		<g class="st22">
			<path class="st20" d="M223.2,77.5c2.6,1.2,4.7,3.3,5.9,5.9c0.2,0.3,1.1,0,1-0.3c-1.3-2.7-3.5-4.8-6.1-6.1c-0.2-0.1-0.5,0-0.7,0.1
				C223.1,77.2,222.9,77.4,223.2,77.5L223.2,77.5L223.2,77.5z"/>
		</g>
		<g class="st22">
			<path class="st20" d="M241.9,56c3.6-0.6,7.2-0.8,10.8-0.6c0.4,0,1.1-0.6,0.4-0.6c-3.7-0.2-7.4,0-11.1,0.6c-0.2,0-0.6,0.1-0.6,0.4
				S241.7,56,241.9,56L241.9,56L241.9,56z"/>
		</g>
		<g class="st22">
			<path class="st20" d="M239.5,64.1c4.7,0.2,9.2,1.8,13,4.7c0.2,0.2,1.1-0.2,0.9-0.4c-3.8-2.9-8.5-4.6-13.3-4.8
				c-0.2,0-0.6,0-0.7,0.2C239.4,63.9,239.3,64.1,239.5,64.1C239.5,64.1,239.5,64.1,239.5,64.1z"/>
		</g>
		<g class="st22">
			<path class="st20" d="M234.9,69.8c1-0.1,2,0.7,2.8,1.2s1.6,1.1,2.3,1.7c1.5,1.3,2.8,2.7,3.9,4.3c0.2,0.2,1.1-0.2,1-0.3
				c-1.2-1.7-2.6-3.3-4.1-4.6c-0.8-0.7-1.6-1.3-2.5-1.8s-1.8-1.1-2.9-1c-0.2,0-0.6,0.1-0.7,0.2S234.8,69.8,234.9,69.8L234.9,69.8
				L234.9,69.8z"/>
		</g>
		<g class="st22">
			<path class="st20" d="M215.1,46.2c1.1-3.9,2.8-7.5,5-10.9c0.1-0.2-0.4-0.1-0.4-0.1c-0.2,0-0.5,0.1-0.6,0.3
				c-2.2,3.4-3.9,7.1-5,10.9C214,46.6,215,46.5,215.1,46.2L215.1,46.2z"/>
		</g>
		<g class="st22">
			<path class="st20" d="M222.2,44.7c1.7-3,4.3-5.3,7.5-6.5c0.1,0,0.4-0.1,0.3-0.3c-0.1-0.1-0.6,0-0.6,0.1c-3.4,1.3-6.4,3.7-8.2,6.9
				c-0.1,0.2,0.4,0.1,0.4,0.1C221.8,44.9,222.2,44.9,222.2,44.7C222.2,44.7,222.2,44.7,222.2,44.7z"/>
		</g>
		<g class="st22">
			<path class="st20" d="M225.1,50.2c3.1-0.7,6.1-1.5,9-2.5c0.2-0.1,0.5-0.2,0.4-0.4c-0.1-0.2-0.4-0.2-0.6-0.2c-3,1-6,1.8-9,2.5
				c-0.2,0-0.5,0.2-0.4,0.4C224.6,50.3,224.9,50.2,225.1,50.2L225.1,50.2z"/>
		</g>
		<g class="st22">
			<path class="st20" d="M222.6,29.9c0.4-1.2,1.1-2.3,1.9-3.3c0.8-1.1,1.6-2.2,2.4-3.3c1.7-2.2,3.4-4.4,5.2-6.4
				c0.1-0.1-0.4-0.1-0.4-0.1c-0.2,0-0.4,0.1-0.6,0.3c-1.8,2.1-3.5,4.2-5.2,6.4c-0.8,1.1-1.6,2.1-2.4,3.2s-1.6,2.1-1.9,3.4
				C221.6,30.2,222.6,30.1,222.6,29.9L222.6,29.9L222.6,29.9z"/>
		</g>
		<g class="st22">
			<path class="st20" d="M215.5,29.4c-0.3-2.5,0.1-4.9,0.9-7.3c0.4-1.2,0.8-2.3,1.3-3.5c0.3-0.6,0.5-1.2,0.8-1.9
				c0.1-0.2,0.2-0.5,0.3-0.7c0.1-0.2,0.1-0.3,0.2-0.5c0.1-0.2,0.1-0.2-0.3-0.1c0.2,0.3,1.2-0.1,0.9-0.4s-0.7-0.3-1.1-0.1
				c-0.5,0.2-0.7,0.8-0.9,1.3c-0.7,1.4-1.3,2.9-1.9,4.3c-1.1,2.9-1.8,6-1.4,9.1C214.5,30,215.5,29.8,215.5,29.4L215.5,29.4
				L215.5,29.4z"/>
		</g>
		<g class="st22">
			<path class="st20" d="M227.7,35c1.9-1.9,3.8-4,6-5.6c2.1-1.6,4.4-2.7,6.7-3.8c0.6-0.3,0.1-0.8-0.4-0.6c-2.4,1.1-4.8,2.3-6.9,3.9
				c-2.2,1.7-4.2,3.8-6.2,5.8C226.4,35.2,227.4,35.3,227.7,35L227.7,35L227.7,35z"/>
		</g>
		<g class="st22">
			<path class="st20" d="M234.1,38.8l8.5-1.6c0.1,0,0.6-0.1,0.6-0.3c0-0.2-0.3-0.1-0.4-0.1l-8.5,1.6c-0.1,0-0.6,0.1-0.6,0.3
				C233.8,38.9,234,38.9,234.1,38.8L234.1,38.8z"/>
		</g>
		<g class="st22">
			<path class="st20" d="M208.7,92.1c2.1,2.3,4.3,4.6,6.6,6.6c0.2,0.2,1.1-0.2,0.9-0.4c-2.3-2.1-4.5-4.3-6.6-6.6
				C209.5,91.5,208.5,91.9,208.7,92.1L208.7,92.1z"/>
		</g>
		<g class="st22">
			<path class="st20" d="M208.7,103.9c0.2,4.5,0.9,8.9,1.9,13.3c0.1,0.5,1.1,0.2,1-0.3c-1.1-4.3-1.7-8.7-1.9-13.1
				C209.7,103.2,208.6,103.4,208.7,103.9L208.7,103.9L208.7,103.9z"/>
		</g>
		<g class="st22">
			<path class="st20" d="M200.6,103.1c0.5,2.7-0.1,5.3-0.8,7.9s-1.4,5.3-2,7.9c-0.1,0.2,0.9,0.1,1-0.2c0.7-2.7,1.4-5.5,2.1-8.2
				c0.6-2.5,1.2-5.1,0.7-7.7C201.6,102.6,200.6,102.9,200.6,103.1L200.6,103.1L200.6,103.1z"/>
		</g>
		<g class="st23">
			<path class="st24" d="M205.9,26.5c-0.5,1.4-1.1,2.8-1.7,4.2l-0.9,2.1l-0.4,1.1c-0.1,0.3-0.2,0.6-0.4,0.8
				c-0.2,0.2-0.1,0.4,0.1,0.5c0.2,0.1,0.5,0,0.7-0.2c0.5-0.5,0.7-1.3,0.9-1.9l0.9-2.1c0.6-1.5,1.2-2.9,1.7-4.4
				C207,26.1,206,26.1,205.9,26.5C205.9,26.6,205.9,26.6,205.9,26.5z"/>
		</g>
		<g class="st23">
			<path class="st24" d="M193.5,29c0.3,3.7,1,7.3,2.2,10.9c0.1,0.3,1.1,0,1-0.3c-1.2-3.5-1.9-7.2-2.2-10.9
				C194.5,28.5,193.5,28.6,193.5,29L193.5,29z"/>
		</g>
		<g class="st23">
			<path class="st24" d="M199.8,28.3v7.3l0,3.6c0,1.2,0,2.3-0.2,3.5c-0.1,0.5,0.9,0.3,1-0.1c0.2-1.1,0.2-2.3,0.2-3.5v-3.6l0-7.3
				C200.8,27.8,199.8,27.9,199.8,28.3L199.8,28.3z"/>
		</g>
		<g class="st23">
			<path class="st24" d="M218.5,46.4c-1,1.6-1.9,3.2-2.9,4.8c-0.9,1.5-2,2.9-3.3,4.1c-0.2,0.2-0.1,0.3,0.1,0.4
				c0.2,0.1,0.5,0,0.7-0.2c2.7-2.5,4.4-5.9,6.3-9C219.7,46.1,218.7,46.1,218.5,46.4L218.5,46.4L218.5,46.4z"/>
		</g>
		<g class="st23">
			<path class="st24" d="M221.9,50.1c-2.4,1.3-4.7,2.7-7.2,3.5c-0.1,0-0.5,0.2-0.4,0.4s0.4,0.2,0.6,0.1c2.7-0.8,5.2-2.3,7.7-3.7
				c0.2-0.1,0.3-0.3,0.1-0.4S222.1,50,221.9,50.1L221.9,50.1L221.9,50.1z"/>
		</g>
		<g class="st23">
			<path class="st24" d="M225.4,53.6c-2-0.3-4-0.3-5.9,0c-0.9,0.1-1.9,0.3-2.8,0.6c-0.4,0.1-0.9,0.3-1.3,0.4
				c-0.5,0.2-1.2,0.6-1.7,0.6c-0.4,0-1.1,0.6-0.4,0.6c0.9,0.1,1.8-0.5,2.6-0.8c1-0.4,2.1-0.6,3.1-0.8c2-0.3,4.1-0.4,6.1-0.1
				C225.5,54.3,226.1,53.7,225.4,53.6L225.4,53.6L225.4,53.6z"/>
		</g>
		<g class="st23">
			<path class="st24" d="M223.1,69.8c-3.4-0.8-6.9-1.9-10.5-1.5c-0.4,0.1-0.9,0.5-0.2,0.4c3.3-0.4,6.7,0.8,9.9,1.5
				c0.2,0.1,0.5,0,0.7-0.1C223.1,70.1,223.4,69.9,223.1,69.8L223.1,69.8L223.1,69.8z"/>
		</g>
		<g class="st23">
			<path class="st24" d="M221.3,73.4c-3.3-1-5.4-4.1-8.9-4.8c-0.2,0-0.6,0-0.7,0.2c-0.1,0.1-0.1,0.2,0.1,0.3
				c3.3,0.6,5.5,3.7,8.7,4.7c0.2,0.1,0.5,0,0.7-0.1C221.3,73.7,221.6,73.5,221.3,73.4L221.3,73.4L221.3,73.4z"/>
		</g>
		<g class="st23">
			<path class="st24" d="M221,78.8c-2.7-3.7-5.8-7.1-9.1-10.2c-0.2-0.2-1.1,0.2-0.9,0.3c3.3,3.1,6.4,6.5,9.1,10.2
				C220.1,79.2,221,78.8,221,78.8L221,78.8L221,78.8z"/>
		</g>
		<g class="st23">
			<path class="st24" d="M186.4,42.2c-0.3,1.3,0.4,2.7,1,3.8c0.6,1.2,1.4,2.3,2.4,3.3c0.3,0.3,1.2-0.1,0.9-0.4
				c-0.9-0.9-1.6-2-2.2-3.1c-0.6-1.1-1.4-2.4-1-3.7C187.6,41.7,186.6,41.8,186.4,42.2L186.4,42.2L186.4,42.2z"/>
		</g>
		<g class="st23">
			<path class="st24" d="M183.1,45.7c2.1,2.1,4.4,4.1,6.8,5.9c0.2,0.2,1.1-0.2,0.9-0.4c-2.4-1.8-4.6-3.8-6.8-5.9
				C183.8,45.1,182.9,45.5,183.1,45.7L183.1,45.7z"/>
		</g>
		<g class="st23">
			<path class="st24" d="M180.3,49.6c3.1-0.4,6.1,0.6,8.5,2.5c0.2,0.2,1.1-0.2,0.9-0.3c-2.5-2-5.8-3-9-2.6c-0.2,0-0.6,0.1-0.7,0.2
				S180.1,49.6,180.3,49.6L180.3,49.6L180.3,49.6z"/>
		</g>
		<g class="st23">
			<path class="st24" d="M173,66.5c2.4-0.2,4.7,0.7,7.1,0.9c2.2,0.1,4.4-0.1,6.5-0.7c0.6-0.2,0.5-0.6-0.1-0.4
				c-2.3,0.7-4.6,0.9-7,0.5c-2.1-0.3-4.1-0.9-6.3-0.7C172.7,66.1,172.3,66.6,173,66.5L173,66.5z"/>
		</g>
		<g class="st23">
			<path class="st24" d="M175.4,70.3c1.3-1.1,2.9-1.4,4.5-1.9l5.4-1.4c0.1,0,0.5-0.1,0.5-0.3c-0.1-0.1-0.5,0-0.5,0
				c-2,0.5-4.1,1.1-6.1,1.6c-1.6,0.4-3.3,0.9-4.6,2c-0.2,0.2,0.1,0.1,0.2,0.1C174.9,70.5,175.2,70.5,175.4,70.3L175.4,70.3
				L175.4,70.3z"/>
		</g>
		<g class="st23">
			<path class="st24" d="M177.4,74.1c1.6-2.7,3.7-5.1,6.1-7.2c0.5-0.4-0.3-0.8-0.7-0.5c-2.5,2.2-4.7,4.7-6.4,7.5
				c-0.1,0.2,0.1,0.4,0.3,0.4C177,74.5,177.3,74.4,177.4,74.1L177.4,74.1z"/>
		</g>
		<g class="st23">
			<path class="st24" d="M197.8,87.1c0.4-3.6-0.7-7.1-0.6-10.6c0-0.5-1-0.3-1,0.1c-0.1,3.6,1,7.1,0.6,10.6
				C196.7,87.6,197.7,87.5,197.8,87.1L197.8,87.1z"/>
		</g>
		<g class="st23">
			<path class="st24" d="M194.2,86.1c0.5-1.8,0.9-3.7,1.5-5.5c0.5-1.6,1.6-3,1.9-4.7c0.1-0.5-0.9-0.4-1,0.1c-0.1,0.9-0.6,1.7-1,2.4
				s-0.7,1.6-1,2.4c-0.5,1.8-1,3.6-1.4,5.3C193.1,86.7,194.1,86.6,194.2,86.1L194.2,86.1L194.2,86.1z"/>
		</g>
		<g class="st23">
			<path class="st24" d="M189.1,85.8c1.2-2.1,2.8-3.9,4.4-5.7c1.4-1.7,2.8-3.4,3.7-5.4c0.1-0.3-0.9-0.2-1,0.1
				c-0.8,2.1-2.3,3.8-3.7,5.4c-1.6,1.8-3,3.5-4.2,5.6C188,86.2,189,86.1,189.1,85.8L189.1,85.8L189.1,85.8z"/>
		</g>
		<g class="st23">
			<path class="st24" d="M208.9,97.6c-0.6-1.5-1.3-3-2.1-4.5c-0.1-0.2-0.4-0.3-0.6-0.2c-0.1,0-0.5,0.2-0.4,0.5
				c0.7,1.5,1.4,3,2.1,4.5c0.1,0.2,0.4,0.2,0.6,0.2C208.6,98.1,209,97.9,208.9,97.6L208.9,97.6z"/>
		</g>
		<g class="st23">
			<path class="st24" d="M180.8,95.3c0.4-1.2,1.2-2.3,2.2-3.2c0.2-0.2-0.1-0.2-0.2-0.2c-0.2,0-0.5,0.1-0.7,0.2c-1,0.9-1.8,2-2.3,3.3
				c-0.1,0.2,0.3,0.1,0.4,0.1C180.3,95.6,180.7,95.5,180.8,95.3L180.8,95.3L180.8,95.3z"/>
		</g>
		<g class="st23">
			<path class="st24" d="M172.7,88.2c4.8-3.2,9.3-6.7,13.6-10.5c0.2-0.2-0.2-0.1-0.2-0.2c-0.2,0-0.5,0.1-0.7,0.2
				c-4.3,3.7-8.8,7.2-13.5,10.4C171.5,88.4,172.5,88.3,172.7,88.2L172.7,88.2L172.7,88.2z"/>
		</g>
		<g class="st23">
			<path class="st24" d="M175.6,91.4c0-1,0.4-2,1.1-2.7c0.2-0.2-0.1-0.2-0.2-0.2c-0.2,0-0.5,0.1-0.7,0.2c-0.8,0.7-1.2,1.8-1.2,2.8
				C174.6,91.8,175.6,91.7,175.6,91.4L175.6,91.4z"/>
		</g>
		<g class="st23">
			<path class="st24" d="M162.3,64.6h3.3c0.2,0,0.5-0.1,0.7-0.3s-0.1-0.2-0.2-0.2h-3.3c-0.2,0-0.5,0.1-0.7,0.3
				S162.2,64.6,162.3,64.6L162.3,64.6z"/>
		</g>
		<g class="st23">
			<path class="st24" d="M173.4,34.5c1.2,1.8,2.7,3.3,4.3,4.8c0.2,0.2,0.5,0.1,0.7,0c0.1,0,0.4-0.3,0.3-0.4c-1.6-1.4-3-3-4.3-4.8
				C174.1,33.8,173.2,34.2,173.4,34.5L173.4,34.5L173.4,34.5z"/>
		</g>
		<g class="st23">
			<path class="st24" d="M167.8,45.1c1.8,0.3,3.6,0.9,5.3,1.7c0.2,0.1,0.5,0,0.7-0.1c0.1-0.1,0.3-0.3,0.1-0.4
				c-1.8-0.8-3.6-1.4-5.5-1.7c-0.2,0-0.5,0-0.7,0.2C167.6,44.9,167.6,45.1,167.8,45.1L167.8,45.1L167.8,45.1z"/>
		</g>
	</g>
	<g class="st21">
		<path class="st20" d="M160.7,23.6c1.6,0.3,2.8,1.6,3.7,2.9c1.2,1.6,2.5,3.3,3.7,5c0.2,0.3,1.2,0,0.9-0.4c-1.3-1.7-2.6-3.5-3.9-5.2
			c-1-1.3-2.2-2.6-3.9-2.9c-0.2,0-0.5,0-0.7,0.2C160.4,23.3,160.4,23.5,160.7,23.6L160.7,23.6L160.7,23.6z"/>
	</g>
	<g class="st25">
		<path class="st20" d="M206.4,7.3c-2.1,4.5-3.6,9.2-4.5,14.1c-0.1,0.4,0.9,0.2,1-0.1c0.9-4.8,2.4-9.5,4.5-14
			C207.6,6.9,206.6,7,206.4,7.3L206.4,7.3L206.4,7.3z"/>
	</g>
	<g class="st25">
		<path class="st20" d="M192.5,5.4c0,1.7-0.3,3.4-0.5,5.1c-0.2,1.6-0.2,3.2-0.2,4.8c0,3.2,0.4,6.4,1.1,9.6c0.1,0.5,1.1,0.2,1-0.3
			c-0.7-3.2-1.1-6.5-1.1-9.7s0.7-6.4,0.7-9.5C193.5,4.8,192.5,4.9,192.5,5.4C192.5,5.4,192.5,5.4,192.5,5.4z"/>
	</g>
	<path class="st20" d="M180.4,14.7c5.5,3.1,9.4,8.2,12.9,13.2c0.3,0.4,1.2,0,0.9-0.5c-3.6-5.1-7.6-10.3-13.1-13.4
		C180.8,13.9,179.9,14.4,180.4,14.7L180.4,14.7L180.4,14.7z"/>
	<path class="st26" d="M214.1,17.4c-2.8,2.7-5.2,5.8-7.2,9.1c-0.1,0.2,0.1,0.4,0.3,0.4c0.3,0,0.5-0.1,0.6-0.3c2-3.3,4.4-6.3,7.1-8.9
		c0.2-0.2,0.1-0.4-0.1-0.5C214.6,17.1,214.3,17.2,214.1,17.4L214.1,17.4L214.1,17.4z"/>
	<path class="st26" d="M218.7,15.1c-0.1,1.2-0.8,2.3-1.3,3.4s-0.9,2.1-1.3,3.3c-0.8,2.2-1.3,4.5-1.6,6.9c-0.1,0.5,0.9,0.4,1-0.1
		c0.4-2.4,0.9-4.8,1.8-7.2c0.4-1.1,0.8-2.2,1.3-3.2s1-2,1.1-3.1C219.8,14.6,218.8,14.7,218.7,15.1L218.7,15.1L218.7,15.1z"/>
	<path class="st26" d="M233.2,14.9c-1.1,0.7-1.8,1.7-2.6,2.7c-0.9,1.2-1.9,2.4-2.8,3.6c-1.8,2.4-3.6,4.8-5.4,7.3
		c-0.4,0.5,0.6,0.7,0.8,0.3c1.7-2.4,3.4-4.8,5.2-7.1c0.9-1.1,1.8-2.3,2.6-3.4c0.8-1,1.6-2.2,2.7-2.9C234.4,15,233.6,14.6,233.2,14.9
		L233.2,14.9L233.2,14.9z"/>
	<path class="st26" d="M226.2,35.6c1.6-2.5,4.2-4.2,6.6-5.8c2.9-1.9,5.8-3.9,9.1-5c0.7-0.2,0.1-0.4-0.4-0.3
		c-3.4,1.2-6.3,3.2-9.3,5.1c-2.6,1.7-5.3,3.4-7,6.1C225.1,35.9,226.1,35.8,226.2,35.6L226.2,35.6L226.2,35.6z"/>
	<path class="st26" d="M222.5,44.9c1.5-1.6,2.9-3.2,4.4-4.8c0.6-0.7,1.3-1.4,2.1-2c0.8-0.6,1.8-1,2.7-1.3c0.6-0.2,0.4-1-0.2-0.7
		c-1,0.3-1.9,0.7-2.8,1.3s-1.6,1.3-2.3,2.1c-1.6,1.7-3.2,3.5-4.7,5.2c-0.2,0.2-0.1,0.4,0.1,0.5C222.1,45.2,222.4,45.1,222.5,44.9
		L222.5,44.9L222.5,44.9z"/>
	<path class="st26" d="M220.1,33c-3,3.9-4.8,8.7-5,13.7c0,0.5,1,0.3,1-0.1c0.2-4.9,1.9-9.6,4.9-13.5C221.3,32.7,220.3,32.8,220.1,33
		L220.1,33L220.1,33z"/>
	<path class="st26" d="M233.9,39c1.6,0.1,3.1-0.3,4.6-0.9s3-1.5,4.6-0.9c0.4,0.2,1.2-0.5,0.6-0.7c-1.5-0.5-3.1-0.1-4.6,0.5
		c-0.8,0.3-1.5,0.7-2.3,1c-0.8,0.3-1.7,0.4-2.6,0.3c-0.2,0-0.6,0.1-0.6,0.3C233.5,38.8,233.7,39,233.9,39L233.9,39L233.9,39z"/>
	<path class="st26" d="M246.7,42.1c-2.4,0.9-5,1.6-7.1,3.1c-0.1,0.1-0.3,0.3-0.1,0.4c0.2,0.1,0.6,0,0.7-0.1c2.1-1.5,4.6-2.2,6.9-3
		c0.1,0,0.4-0.2,0.3-0.4S246.8,42,246.7,42.1L246.7,42.1L246.7,42.1z"/>
	<path class="st26" d="M171.8,18.5c1.8,2.7,3.3,5.6,4.4,8.7c0.1,0.4,1.1,0.1,1-0.3c-1.1-3.1-2.6-6.1-4.4-8.8
		C172.5,17.8,171.6,18.1,171.8,18.5L171.8,18.5L171.8,18.5z"/>
	<path class="st26" d="M186.9,30.5c0.8,2.2,1.8,4.3,1.9,6.6s0.3,4.5,0.9,6.7c0.1,0.5,1.1,0.2,1-0.3c-0.6-2.3-0.7-4.5-0.9-6.9
		s-1.1-4.4-1.9-6.5C187.7,29.7,186.7,30,186.9,30.5L186.9,30.5z"/>
	<path class="st26" d="M178.2,33c0.9,0,1.6,0.9,2.2,1.5c0.7,0.6,1.3,1.3,1.9,2c1.2,1.4,2.2,2.9,3.1,4.5c0.2,0.3,1.2,0,1-0.3
		c-0.9-1.7-2.1-3.3-3.4-4.8c-0.6-0.7-1.3-1.4-2-2.1s-1.4-1.3-2.4-1.3c-0.2,0-0.6,0.1-0.7,0.3S178,33,178.2,33L178.2,33L178.2,33z"/>
	<path class="st26" d="M170.3,38.7c1.1-0.1,2.2,1,3.1,1.6c0.9,0.6,1.9,1.1,2.9,1.6c1.9,1,3.9,2,5.5,3.5c0.2,0.2,1.1-0.2,0.9-0.3
		c-1.7-1.7-3.9-2.7-6-3.8c-1-0.5-2.1-1.1-3.1-1.8c-0.9-0.6-1.8-1.3-2.9-1.2c-0.1,0-0.6,0.1-0.7,0.2S170.1,38.7,170.3,38.7
		L170.3,38.7L170.3,38.7z"/>
	<path class="st26" d="M167.9,49.5c3.4-1.7,7.5-1.7,10.9-0.1c0.2,0.1,1.1-0.3,0.8-0.4c-3.9-1.8-8.5-1.6-12.4,0.3
		c-0.2,0.1-0.3,0.2-0.1,0.3S167.8,49.5,167.9,49.5L167.9,49.5L167.9,49.5z"/>
	<path class="st26" d="M149.7,31.4c3,0.3,5.8,1.7,8.4,3.1c2.8,1.6,5.5,3.2,8.2,4.8c0.3,0.2,1.2-0.3,0.8-0.5
		c-2.9-1.7-5.8-3.5-8.8-5.1c-2.6-1.4-5.3-2.7-8.3-3C149.6,30.7,149,31.3,149.7,31.4L149.7,31.4z"/>
	<path class="st26" d="M159.9,22.5c1.3,0.4,2.4,1.2,3.5,2s2.1,1.8,3.1,2.7c1.9,1.9,3.7,3.9,5.2,6.1c0.2,0.3,1.2,0,0.9-0.4
		c-1.6-2.3-3.5-4.4-5.5-6.4c-1.9-1.8-4.1-3.8-6.6-4.7C160,21.7,159.3,22.3,159.9,22.5L159.9,22.5L159.9,22.5z"/>
	<path class="st26" d="M149.6,46.5c5-2.2,10.7-2.2,15.8-0.4c0.2,0.1,1.1-0.3,0.8-0.4c-5.6-2-11.8-1.7-17.2,0.6
		C148.4,46.6,149.3,46.6,149.6,46.5L149.6,46.5L149.6,46.5z"/>
	<path class="st26" d="M161.8,53.2c2.6,2,5.3,3.8,8.1,5.4c0.2,0.1,0.5,0.1,0.7,0c0.1-0.1,0.3-0.4,0.1-0.5c-2.8-1.6-5.6-3.4-8.1-5.4
		C162.2,52.3,161.3,52.8,161.8,53.2L161.8,53.2L161.8,53.2z"/>
	<path class="st26" d="M142.7,58.5c5.4-1.4,11-0.7,16.4,0.1c0.2,0,1.1-0.4,0.6-0.4c-5.7-0.8-11.5-1.5-17.1,0
		C142.1,58.3,142.1,58.7,142.7,58.5L142.7,58.5L142.7,58.5z"/>
	<path class="st26" d="M163.3,59.8c3.4,0.1,6.4,1.9,9.6,3.1c3.1,1.3,6.5,2,9.8,2.3c0.5,0,1-0.7,0.3-0.8c-3.5-0.3-7-1.1-10.2-2.5
		c-3-1.3-5.9-2.8-9.2-2.9C163.1,59.1,162.6,59.8,163.3,59.8C163.3,59.8,163.3,59.8,163.3,59.8z"/>
	<path class="st26" d="M160.3,69.4c3.9-2.3,8.5-3.4,13-3.3c0.2,0,0.6-0.1,0.7-0.3c0.1-0.2-0.1-0.3-0.3-0.4c-4.9-0.1-9.8,1.1-14,3.6
		c-0.2,0.1-0.2,0.3-0.1,0.4C159.8,69.6,160.2,69.5,160.3,69.4L160.3,69.4L160.3,69.4z"/>
	<path class="st26" d="M162.7,79c1.9-1.6,3.8-3.2,5.8-4.8c1.9-1.4,3.9-2.7,6.2-3.3c0.1,0,0.5-0.2,0.4-0.3s-0.4-0.1-0.6-0.1
		c-5,1.4-8.9,5.2-12.7,8.4C161.5,79.3,162.5,79.2,162.7,79L162.7,79z"/>
	<path class="st26" d="M224.5,49.6c3.4-1.1,6.9-2,10.4-2.6c0.1,0,0.6-0.1,0.6-0.3s-0.3-0.2-0.4-0.2c-3.6,0.6-7.1,1.5-10.6,2.6
		c-0.1,0-0.5,0.2-0.4,0.3S224.4,49.6,224.5,49.6L224.5,49.6z"/>
	<path class="st26" d="M235.9,55.8c-0.8-0.3-1.5-0.7-2.3-1.2S232,54,231.1,54c-2-0.2-4-0.3-6-0.4c-0.4,0-1.1,0.5-0.4,0.5
		c1.9,0.1,3.9,0.2,5.8,0.4c0.9,0.1,1.7,0.3,2.5,0.8c0.7,0.4,1.4,0.8,2.1,1.1c0.2,0.1,0.5,0,0.7-0.1
		C235.9,56.2,236.2,55.9,235.9,55.8L235.9,55.8L235.9,55.8z"/>
	<path class="st26" d="M233.4,64.5c-3.3,0.1-6.5,0.6-9.7,1.4c-1.6,0.4-3.1,0.9-4.6,1.5c-1.7,0.6-3.3,1.6-5.1,2
		c-0.6,0.1-0.5,0.6,0.1,0.4c1.5-0.3,2.9-1.1,4.4-1.7s3.1-1.1,4.6-1.6c3.2-0.9,6.5-1.4,9.8-1.5C233.3,65,234.1,64.5,233.4,64.5
		L233.4,64.5L233.4,64.5z"/>
	<path class="st26" d="M222,70.4c4.6,1.2,9,2.9,13.3,5.1c0.3,0.1,1.1-0.3,0.9-0.4c-4.3-2.2-8.7-4-13.4-5.2c-0.2-0.1-0.5,0-0.7,0.1
		C222,70.2,221.8,70.3,222,70.4L222,70.4L222,70.4z"/>
	<path class="st26" d="M223.2,77.3c0.3,0,0.7,0.3,0.9,0.5c0.3,0.2,0.5,0.5,0.8,0.8c0.6,0.6,1.1,1.1,1.7,1.7c1.1,1.2,2.1,2.3,3,3.6
		c0.2,0.2,1.2-0.1,0.9-0.4c-1.1-1.4-2.2-2.7-3.4-3.9c-0.6-0.6-1.2-1.2-1.8-1.8c-0.6-0.5-1.1-1-2-0.9c-0.2,0-0.5,0.1-0.6,0.3
		S223.1,77.4,223.2,77.3L223.2,77.3L223.2,77.3z"/>
	<path class="st26" d="M239.2,64.4c1.4-0.1,2.8-0.3,4.1-0.2c1.5,0.1,2.8,0.5,4.2,1.1c2.6,1,5.2,2,7.8,3.1c0.3,0.1,1.2-0.3,0.8-0.5
		c-2.9-1.1-5.7-2.3-8.6-3.4c-2.7-1-5.3-0.9-8.1-0.6C238.8,63.8,238.5,64.5,239.2,64.4L239.2,64.4L239.2,64.4z"/>
	<path class="st26" d="M238.1,70.9c2.1,0.4,3.7,1.9,5.1,3.4c1.5,1.6,2.9,3.3,3.8,5.4c0.2,0.4,1.2,0.1,1-0.3c-0.9-2.2-2.4-4-3.9-5.6
		c-1.5-1.6-3.2-3.1-5.3-3.5c-0.2-0.1-0.5,0-0.7,0.2C237.9,70.6,237.9,70.8,238.1,70.9L238.1,70.9L238.1,70.9z"/>
	<path class="st26" d="M232.1,79.9c1.9-0.1,3.6,0.7,5.2,1.4s3.3,1.5,5,2.3c0.2,0.1,0.5,0,0.6-0.1c0,0,0.5-0.2,0.3-0.3
		c-1.8-0.8-3.7-1.7-5.5-2.5c-1.7-0.7-3.4-1.3-5.2-1.3C232.3,79.5,231.5,80,232.1,79.9L232.1,79.9L232.1,79.9z"/>
	<path class="st26" d="M233.2,88.3c1.2-0.2,2.2,1,3,1.7c0.9,0.8,1.7,1.6,2.5,2.4c1.6,1.7,3.2,3.4,4.6,5.3c0.2,0.3,1.2-0.1,0.9-0.4
		c-1.6-2.1-3.3-4-5.1-5.8c-0.9-0.9-1.8-1.8-2.8-2.6c-0.9-0.7-1.8-1.4-3-1.2c-0.1,0-0.6,0.1-0.6,0.3S233,88.4,233.2,88.3L233.2,88.3
		L233.2,88.3z"/>
	<path class="st26" d="M226.2,92.8c2,1.6,3.4,3.6,4.7,5.8c1.3,2.4,2.6,4.8,3.7,7.3c0.2,0.5,1.2,0.2,1-0.3c-1.2-2.5-2.4-5.1-3.8-7.5
		c-1.3-2.3-2.8-4.3-4.8-5.9C226.6,91.9,225.8,92.5,226.2,92.8L226.2,92.8z"/>
	<path class="st26" d="M220.4,94.8c-0.1,4.7,1.7,9.1,2.3,13.7c0,0.3,1,0.1,1-0.3c-0.5-4.6-2.4-9-2.3-13.7
		C221.4,94.2,220.4,94.4,220.4,94.8L220.4,94.8z"/>
	<path class="st26" d="M204.2,86.9c2.8,4.7,6.5,8.7,11,11.8c0.3,0.2,1.2-0.2,0.8-0.5c-4.4-3.1-8.1-7.1-10.8-11.7
		C205,86.2,204,86.5,204.2,86.9L204.2,86.9L204.2,86.9z"/>
	<path class="st26" d="M197.6,79c2.7,5.9,5.1,12,7.2,18.1c0.1,0.2,1.1-0.1,1-0.3c-2.1-6.1-4.6-12.2-7.2-18.1
		C198.4,78.5,197.5,78.8,197.6,79L197.6,79z"/>
	<path class="st26" d="M189.3,81c-1.5,2.1-3.4,4-5.3,5.7c-2.1,1.9-4.2,3.8-6.3,5.6c-0.2,0.2,0.1,0.2,0.2,0.2c0.2,0,0.5-0.1,0.7-0.2
		c2.2-1.9,4.3-3.8,6.5-5.8c1.9-1.7,3.7-3.5,5.2-5.7c0.1-0.2-0.4-0.1-0.4-0.1C189.7,80.8,189.5,80.8,189.3,81L189.3,81L189.3,81z"/>
	<path class="st26" d="M143.2,71.9c4.9-3.3,10.4-5.6,16.2-6.6c0.5-0.1,0.8-0.7,0.1-0.6c-6.1,1.1-11.9,3.4-16.9,6.9
		C142,71.9,142.8,72.1,143.2,71.9C143.2,71.9,143.2,71.9,143.2,71.9z"/>
	<path class="st26" d="M156.6,91.2c1.4-1.7,3.5-2.6,5.4-3.5c2.1-1,4.3-1.9,6.4-2.8c0.6-0.3,0.1-0.5-0.4-0.4c-2.4,1-4.7,2-7.1,3.1
		c-1.9,0.9-3.9,1.8-5.3,3.5C155.4,91.5,156.4,91.4,156.6,91.2L156.6,91.2L156.6,91.2z"/>
	<path class="st26" d="M159.9,103.1c-0.1-0.6,0.3-1.1,0.7-1.5s0.8-0.9,1.2-1.3c0.8-0.9,1.7-1.8,2.5-2.6c1.7-1.7,3.6-3.3,5.4-4.9
		c0.4-0.3-0.6-0.3-0.8-0.1c-2,1.6-3.9,3.4-5.7,5.2c-0.9,0.9-1.8,1.8-2.7,2.8c-0.7,0.7-1.8,1.7-1.7,2.8
		C159,103.6,160,103.4,159.9,103.1L159.9,103.1L159.9,103.1z"/>
	<path class="st26" d="M192.4,5.6c-0.4,7-0.1,14.1,1.1,21c0.1,0.5,1.1,0.2,1-0.3c-1.1-6.9-1.5-13.9-1-20.8
		C193.4,5,192.4,5.2,192.4,5.6L192.4,5.6L192.4,5.6z"/>
	<path class="st26" d="M192.9,6.7c-0.4,6.2-0.8,12.4,0.7,18.5c0.1,0.2,1.1,0,1-0.3c-1.5-6-1.1-12.3-0.7-18.5
		C193.9,6.3,192.9,6.4,192.9,6.7C192.9,6.7,192.9,6.7,192.9,6.7z"/>
	<path class="st26" d="M192.5,51.5c1.6,1.5,2.7,3.3,3.4,5.3c0.1,0.3,1.1,0,1-0.3c-0.7-2-1.9-3.9-3.5-5.4
		C193.2,50.9,192.3,51.3,192.5,51.5L192.5,51.5L192.5,51.5z"/>
	<path class="st26" d="M203.9,50.3c-0.2,0.5-0.6,1-0.9,1.4s-0.7,0.9-1,1.4c-0.6,1-1,2.1-1.3,3.3c-0.1,0.3,0.9,0.1,1-0.2
		c0.3-1.2,0.7-2.3,1.3-3.3c0.3-0.5,0.6-1,1-1.4s0.7-0.9,0.9-1.4C205,49.9,204,50,203.9,50.3L203.9,50.3L203.9,50.3z"/>
	<path class="st26" d="M203.7,61.5c0.2,0,1.1-0.4,0.6-0.4C204.2,61.1,203.2,61.5,203.7,61.5L203.7,61.5z"/>
	<path class="st26" d="M206.8,60c1.1-0.2,2.1-0.5,3-1c0.1-0.1,0.3-0.2,0.1-0.3s-0.5,0-0.7,0.1c-0.1,0-0.2,0.1-0.3,0.2
		c0.1,0-0.1,0-0.1,0c-0.1,0-0.1,0-0.2,0.1c-0.1,0-0.2,0.1-0.3,0.1c-0.1,0-0.1,0-0.1,0c0,0-0.2,0.1-0.1,0s-0.1,0-0.1,0
		c-0.1,0-0.1,0-0.1,0c-0.1,0-0.2,0.1-0.3,0.1c-0.1,0-0.1,0-0.1,0l-0.1,0c0.1,0,0.1,0,0,0c-0.1,0-0.2,0-0.3,0.1
		c-0.1,0-0.3,0.1-0.4,0.1c-0.1,0-0.2,0.1-0.2,0.2C206.3,60,206.7,60,206.8,60L206.8,60L206.8,60z"/>
	<path class="st26" d="M196.9,67.7c0,0.6-0.3,1-0.6,1.5l-0.9,1.5l-0.9,1.5c-0.2,0.4-0.5,0.9-0.9,1.2c-0.2,0.1-0.1,0.2,0.1,0.3
		c0.2,0,0.5-0.1,0.7-0.2c0.4-0.3,0.7-0.8,0.9-1.2l1-1.6l0.9-1.6c0.3-0.5,0.6-1,0.6-1.6C197.9,67.2,196.9,67.4,196.9,67.7L196.9,67.7
		L196.9,67.7z"/>
	<path class="st26" d="M187.4,63c1.1-0.3,2.1-0.6,3.2-0.7c0.6,0,1.1-0.1,1.6-0.1c0.2,0,0.5,0,0.8,0c0.2,0,0.6,0,0.7,0.2
		c0.2,0.3,1.2,0,0.9-0.4c-0.3-0.4-1.1-0.4-1.6-0.4c-0.6,0-1.3,0-1.9,0c-1.3,0.1-2.6,0.4-3.9,0.8c-0.2,0-0.5,0.2-0.4,0.4
		C186.9,63.1,187.2,63.1,187.4,63L187.4,63L187.4,63z"/>
</g>
</svg>
