<?xml version="1.0" encoding="UTF-8"?><svg xmlns="http://www.w3.org/2000/svg" viewBox="0 0 261.87 377.01"><defs><style>.d{stroke-width:.93px;}.d,.e,.f,.g,.h,.i,.j,.k,.l,.m,.n,.o,.p,.q,.r{stroke-miterlimit:10;}.d,.e,.h,.i,.j,.k,.l,.m,.n,.o,.p,.q,.r{stroke:#1d1d1b;}.d,.h,.j,.l,.m,.n,.q{fill:#b8acd1;}.e{fill:none;stroke-width:1.63px;}.f{fill:#ede1b0;}.f,.g{stroke:#000;stroke-width:1.21px;}.s{fill:#e9eef8;}.t{fill:#8195bd;}.u{fill:#c7d2ea;}.v{fill:#dcd7ea;}.w{fill:#1d1d1b;}.x{fill:#5f76ad;}.g{fill:#fcdcc3;}.h,.i{stroke-width:1px;}.i,.k,.o,.r{fill:#aebbde;}.j{stroke-width:.97px;}.k{stroke-width:1.33px;}.l{stroke-width:.83px;}.y{opacity:.22;}.a`{opacity:.26;}.aa{opacity:.24;}.ab{opacity:.35;}.ac{opacity:.64;}.ad{opacity:.74;}.m{stroke-width:1.11px;}.n{stroke-width:.54px;}.o{stroke-width:1.38px;}.p{fill:#4e9d48;stroke-width:.72px;}.q{stroke-width:.7px;}.ae{fill:#b0c3ea;opacity:.25;}.r{stroke-width:1.29px;}</style></defs><g id="a"/><g id="b"><g id="c"><g><g><path class="e" d="M163.85,280.56s58.91-18.75,32.87-71.48"/><line class="e" x1="164.07" y1="281.16" x2="187.94" y2="287.98"/><line class="e" x1="164.59" y1="280.82" x2="170.49" y2="258.66"/></g><g><path class="e" d="M18.84,376.33s-12.49-60.55,46.24-63.65"/><line class="e" x1="18.2" y1="376.43" x2=".57" y2="358.95"/><line class="e" x1="18.24" y1="375.81" x2="34.69" y2="359.81"/></g><g><polygon class="g" points="127.02 286.94 138.35 273.76 132.06 285.52 147.77 276.13 135.54 286.77 150.48 283.74 134.63 290.48 153.19 291.36 132.13 294.85 127.02 286.94"/><path class="f" d="M90.61,314.49c-2.94-11.75,16.4-30.66,33.38-29.77,3.92,.2,4.83,7.24,8.2,9.89,8.44,9.64-33.74,31.33-41.57,19.88Z"/><path class="ae" d="M105.54,316.86s3.68-12.92-2.31-24.82c0,0,12.56-8.78,20.76-7.33,0,0,3.27,1.32,5.13,5.6,0,0,4.05,5.7,4.16,6.8,0,0,1.04,10.67-27.74,19.75Z"/></g><g><g><path class="p" d="M200.47,59.08s2.76,73.43-24.5,143.33c0,0,4.17-1.43,4.43,7.68,0,0,26.82-79.35,22.83-151.01"/><g><path class="o" d="M198.98,59.65c-2.85-26.92-19.18-30.92-19.83-47.88,5.54,3.04,9.98,6.98,13.1,12.05-1.43-7.74-1.53-15.15,.33-22.07,3.68,6.2,6.15,13.22,7.41,21.07,1.64-6.96,4.03-13.46,7.42-19.35,1.51,6.21,1.69,12.73,.43,19.59,3.29-4.59,6.88-8.38,11.19-10.22,.55,14.37-13.04,14.39-20.05,46.8Z"/><path class="o" d="M202.72,63.39c26.71-4.44,29.73-20.99,46.61-22.64-2.7,5.71-6.38,10.38-11.25,13.79,7.64-1.89,15.03-2.43,22.05-.98-5.97,4.04-12.84,6.93-20.59,8.65,7.04,1.22,13.67,3.22,19.76,6.26-6.11,1.87-12.61,2.44-19.53,1.59,4.78,3.01,8.78,6.37,10.87,10.56-14.31,1.4-15.14-12.16-47.91-17.23Z"/><path class="o" d="M199.34,67.68c6.21,26.35,22.92,28.27,25.69,45-5.87-2.32-10.78-5.67-14.51-10.31,2.39,7.5,3.42,14.83,2.44,21.93-4.43-5.69-7.76-12.35-10-19.97-.75,7.11-2.3,13.86-4.93,20.13-2.28-5.97-3.27-12.42-2.88-19.38-2.69,4.97-5.77,9.18-9.81,11.55-2.35-14.18,11.13-15.91,14-48.95Z"/><path class="o" d="M195.07,63.78c-26.77,4.02-30.06,20.51-46.97,21.89,2.79-5.66,6.54-10.28,11.47-13.61-7.67,1.77-15.07,2.19-22.06,.62,6.04-3.95,12.95-6.72,20.73-8.32-7.02-1.33-13.62-3.44-19.65-6.57,6.14-1.78,12.64-2.24,19.55-1.28-4.73-3.09-8.68-6.51-10.7-10.73,14.33-1.17,14.94,12.4,47.63,17.99Z"/><path class="r" d="M201.58,66.42c21.44,15.71,34.09,7.58,46.91,18.23-5.52,1.66-11.06,2-16.63,.74,6.53,4.11,12.02,8.89,15.98,14.63-6.74-1.63-13.36-4.59-19.86-8.89,4.13,5.62,7.47,11.44,9.77,17.52-5.45-3.06-10.34-7.21-14.62-12.51,1.41,5.17,2.05,10,.84,14.03-10.86-9.02-2.79-17.97-22.39-43.75Z"/><path class="k" d="M201.58,60.74c15.99-22.66,7.48-35.52,18.34-49.11,1.76,5.67,2.18,11.39,.93,17.2,4.18-6.88,9.05-12.7,14.94-16.98-1.62,7.02-4.61,13.97-8.97,20.83,5.76-4.44,11.73-8.07,17.97-10.64-3.11,5.73-7.33,10.92-12.76,15.5,5.32-1.61,10.3-2.42,14.47-1.28-9.2,11.51-18.51,3.42-44.91,24.47Z"/><path class="o" d="M195.07,60.74c-22.75-14.67-36.12-4.46-49.73-14.59,5.84-2.41,11.7-3.39,17.6-2.64-6.93-3.74-12.76-8.31-16.97-14.1,7.14,1.02,14.16,3.51,21.06,7.44-4.39-5.64-7.95-11.58-10.42-17.92,5.78,2.72,10.97,6.67,15.52,11.95-1.51-5.45-2.21-10.62-.94-15.12,11.53,8.58,3.03,19.18,23.88,44.97Z"/><path class="k" d="M196.46,66.77c-15.05,23.3-6.02,35.8-16.31,49.82-2-5.59-2.64-11.3-1.63-17.14-3.89,7.05-8.52,13.06-14.23,17.58,1.33-7.08,4.03-14.14,8.11-21.18-5.57,4.67-11.38,8.55-17.52,11.37,2.87-5.86,6.88-11.21,12.12-16.01-5.24,1.83-10.19,2.84-14.4,1.87,8.72-11.88,18.36-4.18,43.87-26.3Z"/><path class="i" d="M201.58,64.66c17.94,5.7,25.48-4.48,36.42-.09-3.62,2.97-7.48,4.93-11.65,5.64,5.34,1.21,10.07,3.26,13.88,6.52-5.06,.78-10.27,.49-15.63-.87,3.91,3.12,7.3,6.63,9.99,10.66-4.4-.73-8.59-2.46-12.55-5.29,1.9,3.59,3.21,7.16,3.05,10.67-9.27-3.72-5.13-13.14-23.53-27.24Z"/><path class="i" d="M203,61.91c14.17-12.39,9.37-24.11,18.79-31.2,.67,4.63,.34,8.95-1.21,12.88,3.81-3.94,8-6.92,12.77-8.5-1.95,4.73-4.9,9.04-8.84,12.92,4.69-1.73,9.45-2.81,14.29-3.03-2.9,3.38-6.55,6.07-11.02,7.99,4.06,.23,7.78,.97,10.7,2.91-7.98,6.01-13.9-2.42-35.49,6.02Z"/><path class="i" d="M199.09,61.91c-14.6-11.88-25.34-5.17-33.92-13.26,4.46-1.44,8.77-1.84,12.9-.98-4.53-3.09-8.18-6.72-10.53-11.16,4.99,1.13,9.73,3.3,14.22,6.53-2.49-4.33-4.36-8.84-5.4-13.58,3.83,2.29,7.09,5.43,9.74,9.52-.46-4.04-.36-7.84,1.07-11.04,7.27,6.86-.04,14.1,11.92,33.96Z"/><path class="i" d="M199.48,65.61c-2.63,18.64,8.67,24.37,6.17,35.9-3.53-3.07-6.11-6.56-7.5-10.54-.31,5.47-1.53,10.47-4.12,14.78-1.61-4.86-2.2-10.04-1.75-15.55-2.42,4.37-5.32,8.3-8.84,11.63-.02-4.46,.99-8.88,3.12-13.25-3.22,2.48-6.52,4.36-10.01,4.79,2.12-9.76,12.1-7.25,22.93-27.75Z"/><path class="i" d="M196.17,64.24c-17.25,7.53-16.22,20.15-27.34,24.06,.77-4.62,2.38-8.64,5.05-11.92-4.82,2.61-9.72,4.18-14.74,4.24,3.29-3.92,7.4-7.13,12.33-9.64-5,.23-9.86-.18-14.54-1.43,3.79-2.35,8.08-3.8,12.92-4.29-3.8-1.45-7.13-3.27-9.32-6.01,9.43-3.31,12.51,6.51,35.65,4.99Z"/><path class="h" d="M191.67,48.51c4.47,2.78,7.2,6.88,6.81,13.36-4.43-2.6-6.7-7.05-6.81-13.36Z"/><path class="d" d="M199.46,63.65c5.24,.75,9.28,3.11,11.18,8.37-5.13-.62-8.86-3.41-11.18-8.37Z"/><path class="j" d="M199.28,62.76c.43,4.64-1.35,9.06-7.06,13.08-.55-4.5,1.8-8.86,7.06-13.08Z"/><path class="h" d="M198.78,62.48c-4.48,2.76-9.38,3.37-15,.12,4.31-2.8,9.31-2.84,15-.12Z"/><path class="l" d="M201.58,62.73c2.22-3.29,5.78-5.26,11.74-4.84-2.06,3.27-5.97,4.88-11.74,4.84Z"/><path class="m" d="M199.43,62.07c-.45-6.08,1.35-11.3,7.18-14.98,.57,5.93-1.82,10.92-7.18,14.98Z"/><path class="q" d="M199.73,62.63c2.19,2.14,3.21,5.55,2.12,11.24-2.19-1.98-2.9-5.73-2.12-11.24Z"/><path class="n" d="M199.46,63.22c1.61-2.02,4.02-3.12,7.86-2.54-1.5,2.01-4.12,2.86-7.86,2.54Z"/><g><g><line class="w" x1="189.8" y1="52.99" x2="198.48" y2="61.87"/><path class="x" d="M189.8,52.99c3.52,2.25,6.51,5.31,8.68,8.89-3.53-2.25-6.51-5.31-8.68-8.89h0Z"/></g><g><line class="w" x1="209.11" y1="50.43" x2="203.2" y2="60.66"/><path class="x" d="M209.11,50.43c-1.12,3.82-3.15,7.36-5.91,10.23,1.11-3.83,3.15-7.36,5.91-10.23h0Z"/></g><g><line class="w" x1="207.41" y1="71.44" x2="200.78" y2="63.82"/><path class="x" d="M207.41,71.44c-2.87-1.86-5.19-4.52-6.63-7.63,2.88,1.86,5.18,4.52,6.63,7.63h0Z"/></g><g><line class="w" x1="189.8" y1="73.71" x2="198.04" y2="63.82"/><path class="x" d="M189.8,73.71c1.98-3.85,4.8-7.26,8.23-9.9-1.97,3.86-4.8,7.25-8.23,9.9h0Z"/></g></g></g><g class="aa"><path class="v" d="M201.04,56.41l-.2,.37c-.06,.1-.05,.19,.07,.24l.13,.07-.07-.24c-.11,.13-.23,.26-.33,.39-.04,.06-.09,.13-.08,.21,0,.09,.08,.12,.1,.19,.03,.08-.06,.21-.09,.28l-.24,.48c-.06,.13-.03,.21,.11,.26,.18,.06,.38,0,.55-.05h.03l-.39,.07c-.26,0-.11-.09-.16,.04-.03,.09-.12,.16-.17,.24s-.07,.18-.05,.27c0,.05,.03,.09,.06,.13,0,.02,.02,.03,.04,.04,.09,.08,.11,.05,.06-.11l.2-.12-.04,.02c-.12,.05-.42,.22-.27,.39,.14,.15,.5,.08,.66,0s.57-.31,.35-.54c-.02-.02-.05-.04-.08-.05,0,0,.01,0,.02,0,0,0,0-.04,0-.05,.03-.06,.07-.11,.12-.17,.11-.15,.17-.32,.05-.48-.18-.25-.58-.15-.82-.07l.66,.2,.23-.45c.07-.13,.16-.27,.18-.43,0-.06,0-.13-.02-.19,0,0-.05-.1-.07-.11-.01-.02-.02-.02-.02,.02-.02,.04-.02,.04,0,.02,.05-.03,.12-.14,.16-.19l.18-.22c.08-.09,.03-.2-.07-.24l-.13-.07,.07,.24,.2-.37c.1-.2-.09-.28-.27-.28-.2,0-.55,.07-.66,.27h0Z"/></g><g class="aa"><path class="v" d="M202.85,61.26c-.35,.09-.68,.23-.98,.42-.15,.09-.28,.2-.41,.31-.02,.02-.05,.04-.07,.06-.01,.01-.03,.03-.04,.04-.05,.04,.03-.03,.04-.03,0,0-.07,.05-.07,.05,.09-.07,.09-.05,.04-.03-.02,.01-.01,0,.03-.01,.04-.02,.09-.03,.14-.03-.13,.02-.26,.05-.38,.13-.07,.05-.17,.14-.18,.23-.02,.23,.27,.29,.44,.26,.14-.03,.28-.06,.41-.12,.12-.06,.22-.13,.32-.22,.05-.05,.1-.09,.16-.14,.01,0,.06-.05,0,0-.06,.05,0,0,.01,0,.03-.02,.06-.04,.09-.07,.06-.04,.12-.08,.18-.11,.07-.04-.09,.05-.04,.02l.04-.02s.07-.03,.1-.05,.07-.03,.1-.04c.02,0,.13-.05,.04-.02s-.02,0,0,0h.05s.08-.04,.12-.05c.11-.03,.25-.09,.33-.18,.05-.06,.12-.16,.09-.24-.08-.22-.4-.2-.58-.16h0Z"/></g><g class="aa"><path class="v" d="M199.83,65.28c.21,.4,.43,.79,.63,1.2,.19,.38,.29,.78,.25,1.2,0,.06,.16,.06,.17,.06,.12,0,.25-.02,.36-.05,.13-.04,.45-.11,.46-.28,.04-.42-.06-.82-.25-1.2-.2-.4-.42-.8-.63-1.2-.07-.14-.43-.04-.54,0-.06,.02-.53,.16-.46,.28h0Z"/></g><g class="aa"><path class="v" d="M193.3,53.69c.13,.51,.32,1.01,.58,1.48,.23,.42,.5,.87,.97,1.06,.22,.08,.51,.02,.71-.1,.12-.07,.32-.28,.09-.36-.39-.15-.63-.58-.82-.94-.23-.44-.41-.92-.54-1.4-.05-.2-.43-.13-.56-.1s-.49,.16-.44,.36h0Z"/></g><g class="aa"><path class="v" d="M195.26,61.9c-2.44-.45-5.3-1.24-7.46,.44-.18,.14,.16,.15,.23,.15,.23-.02,.49-.09,.67-.23,.76-.59,1.71-.61,2.62-.51,1.04,.11,2.08,.35,3.11,.54,.22,.04,.5-.04,.7-.13,.08-.04,.35-.2,.13-.24h0Z"/></g><g class="aa"><path class="v" d="M207.28,59.9c.24-.06,.47-.12,.71-.16-.08,.01,.09-.02,.09-.01,.06,0,.11-.02,.17-.03,.12-.02,.24-.04,.36-.05,.47-.06,.93-.08,1.36-.08,.23,0,.53-.07,.66-.29,.11-.2-.1-.35-.29-.35-1.09,0-2.17,.12-3.22,.39-.17,.04-.48,.2-.42,.42s.42,.2,.58,.16h0Z"/></g><g class="aa"><path class="v" d="M196.82,67.4c-.68,2.07-2.15,3.73-3.57,5.33-.16,.18,.14,.25,.26,.25,.23,0,.51-.09,.66-.26,1.46-1.64,2.95-3.34,3.65-5.46,.1-.3-.89-.17-1,.14h0Z"/></g><g class="a`"><path class="u" d="M204.46,18.57c.77,0,2.21-.31,2.67-1,.49-.74-.42-.83-.99-.83-.77,0-2.21,.31-2.67,1-.49,.74,.42,.83,.99,.83h0Z"/></g><g class="a`"><path class="u" d="M192.65,7.11c.17,1.98,1.28,3.79,1.99,5.62s1.34,3.81,1.85,5.76c1.02,3.91,1.59,7.93,1.73,11.97,0,.18,1.01,.02,1-.27-.14-4.04-.7-8.05-1.73-11.97-.51-1.95-1.13-3.88-1.85-5.76s-1.82-3.65-1.99-5.62c-.02-.19-1.02,0-1,.27h0Z"/></g><g class="ab"><path class="u" d="M205.72,8.8c-.34,1.16-.88,2.25-1.28,3.4-.36,1.02-.61,2.08-.84,3.14-.48,2.24-.85,4.51-1.81,6.6-.22,.48,.78,.42,.94,.07,.96-2.08,1.36-4.32,1.83-6.54,.24-1.14,.5-2.27,.89-3.37s.93-2.23,1.28-3.4c.12-.42-.89-.29-1.01,.1h0Z"/></g><g class="ab"><path class="u" d="M173.85,35.37c.22,.91,.8,1.72,1.58,2.23,.19,.12,.46,.08,.66,0,.1-.04,.21-.09,.27-.18,.04-.05,.07-.14,0-.19-.75-.49-1.29-1.25-1.51-2.12-.02-.08-.13-.11-.19-.12-.12-.02-.26,0-.37,.03s-.24,.08-.34,.16c-.05,.05-.12,.12-.1,.2h0Z"/></g><g class="ab"><path class="u" d="M172.03,18.95l2.94,7.27c.11,.28,1.1-.03,1-.27l-2.94-7.27c-.11-.28-1.1,.03-1,.27h0Z"/></g><g class="ab"><path class="u" d="M160.34,23.38c3.26,1.38,5.48,4.29,7.32,7.19,.21,.33,1.17-.02,.92-.42-1.87-2.95-4.15-5.91-7.46-7.31-.23-.1-.51-.07-.71,.08-.13,.09-.31,.35-.07,.45h0Z"/></g><g class="ab"><path class="u" d="M186.86,30.41c1.56,3.81,2.56,7.83,2.97,11.93,.03,.3,1.04,.09,1-.27-.41-4.1-1.41-8.12-2.97-11.93-.13-.32-1.12-.02-1,.27h0Z"/></g><g class="ab"><path class="u" d="M178.72,33.36c1.47,.62,2.44,2.16,3.34,3.4,1.03,1.42,1.97,2.89,2.83,4.41,.22,.38,1.17,.01,.92-.44-.91-1.61-1.91-3.16-3-4.65-.96-1.31-1.96-2.74-3.5-3.39-.41-.18-1.16,.42-.58,.67h0Z"/></g><g class="ac"><path class="u" d="M151.62,32.9c3.72,.82,7.22,2.43,10.26,4.72,.31,.24,1.21-.21,.78-.54-3.1-2.33-6.67-3.97-10.45-4.8-.23-.05-.55,0-.71,.19-.13,.16-.12,.38,.12,.43h0Z"/></g><g class="ac"><path class="u" d="M150.8,46.93c3.93,.19,7.91-1.81,11.8-.67,.36,.11,1.18-.42,.6-.59-4.02-1.18-7.98,.83-12.02,.63-.42-.02-1.05,.6-.37,.63h0Z"/></g><g class="ac"><path class="u" d="M166.01,60.78c1.29,.28,2.32,1.1,3.41,1.8s2.15,1.3,3.3,1.81c2.23,.99,4.62,1.47,7.05,1.15,.42-.06,.88-.5,.18-.4-2.5,.33-5-.42-7.21-1.53-1.03-.52-2.01-1.12-2.97-1.77s-1.84-1.23-2.94-1.47c-.22-.05-.51,0-.7,.12-.08,.05-.35,.23-.12,.28h0Z"/></g><g class="ac"><path class="u" d="M159.95,53.31c.99,.25,1.75,1.05,2.65,1.52,.96,.49,2,.78,3.07,.87,.22,.02,.55-.08,.66-.29s-.1-.33-.29-.35c-1.02-.09-2.02-.39-2.91-.9s-1.59-1.21-2.58-1.45c-.23-.06-.54,.01-.71,.19-.15,.16-.11,.35,.11,.41h0Z"/></g><g class="ac"><path class="u" d="M145.89,58.32c2.03-.29,4.09-.38,6.13-.22,1.93,.14,3.84,.72,5.78,.69,.32,0,1.08-.49,.41-.48-1.06,.02-2.1-.23-3.14-.39s-2.07-.28-3.12-.33c-1.98-.1-3.95,0-5.91,.28-.44,.06-.86,.56-.16,.46h0Z"/></g><g class="ac"><path class="u" d="M143.57,71.69c4.1-2.36,8.59-4.03,13.24-4.91,.18-.03,.55-.13,.56-.36,.01-.22-.26-.29-.44-.25-4.93,.93-9.65,2.67-14,5.17-.19,.11-.24,.29-.08,.43,.18,.15,.55,.01,.71-.08h0Z"/></g><g class="ac"><path class="u" d="M152.32,83.35c-.17-2.26,1.72-4.15,3.23-5.59,.83-.79,1.7-1.53,2.59-2.25,.43-.34,.86-.68,1.29-1.02,.46-.36,.99-.9,1.61-.84,.43,.04,1.05-.57,.37-.63-1.33-.12-2.37,.91-3.34,1.68-1.05,.83-2.1,1.68-3.08,2.6-1.74,1.63-3.87,3.74-3.67,6.32,.03,.38,1.03,.16,1-.27h0Z"/></g><g class="ac"><path class="u" d="M156.9,89.99c.7,.22,1.38-.1,1.96-.49,.71-.48,1.45-.79,2.24-1.11,1.59-.65,3.23-1.26,4.96-1.39,.19-.01,.56-.06,.67-.25s-.09-.23-.25-.22c-1.59,.12-3.11,.55-4.6,1.1-.75,.28-1.48,.58-2.21,.9-.34,.15-.68,.29-1,.48-.23,.14-.71,.62-.96,.54-.22-.07-.51,0-.7,.11-.1,.06-.33,.25-.11,.32h0Z"/></g><g class="ac"><path class="u" d="M160.35,102.08c2.84-4.81,7.26-8.39,11.32-12.12,.42-.39-.56-.37-.8-.15-4.11,3.77-8.59,7.4-11.46,12.26-.23,.39,.77,.29,.93,.01h0Z"/></g><g class="ac"><path class="u" d="M183.89,86.98c2.78-1.5,5.37-3.32,7.72-5.43,1.13-1.02,2.24-2.11,3.22-3.28s1.7-2.42,1.79-3.92c0-.11-.98-.01-1,.27-.09,1.51-.89,2.79-1.84,3.92s-2.09,2.24-3.23,3.26c-2.26,2.02-4.75,3.75-7.41,5.19-.2,.11-.08,.15,.05,.19,.19,.06,.54-.1,.71-.19h0Z"/></g><g class="ac"><path class="u" d="M217.72,68.26c2.58-.3,5.05-.93,7.49-1.81s5.05-1.86,7.66-1.09c.42,.12,1.18-.49,.58-.66-2.47-.73-4.97-.13-7.34,.7-2.73,.96-5.4,1.81-8.29,2.15-.55,.06-.78,.8-.09,.72h0Z"/></g><g class="ac"><path class="u" d="M224.41,71.46c3.82,.24,7.44,1.78,10.28,4.35,.32,.29,1.2-.18,.77-.57-2.94-2.65-6.75-4.24-10.71-4.49-.22-.01-.56,.07-.65,.3-.09,.22,.08,.39,.3,.4h0Z"/></g><g class="ac"><path class="u" d="M223.16,77.47c2.57,1.23,4.68,3.33,5.94,5.88,.16,.32,1.13,0,1-.27-1.3-2.65-3.47-4.8-6.13-6.07-.2-.1-.52,0-.71,.1-.13,.08-.31,.25-.1,.36h0Z"/></g><g class="ac"><path class="u" d="M241.88,55.97c3.58-.59,7.21-.8,10.84-.61,.41,.02,1.05-.58,.38-.61-3.71-.19-7.43,0-11.09,.62-.17,.03-.55,.13-.56,.36s.27,.27,.44,.25h0Z"/></g><g class="ac"><path class="u" d="M239.54,64.09c4.7,.2,9.24,1.85,12.97,4.7,.24,.18,1.13-.21,.94-.36-3.82-2.92-8.47-4.6-13.27-4.8-.2,0-.56,.02-.71,.19-.1,.12-.17,.26,.07,.27h0Z"/></g><g class="ac"><path class="u" d="M234.89,69.76c1-.12,2.03,.67,2.82,1.2s1.55,1.11,2.27,1.73c1.47,1.27,2.76,2.74,3.86,4.35,.16,.24,1.08-.16,1-.27-1.17-1.72-2.56-3.28-4.15-4.62-.79-.66-1.62-1.27-2.49-1.82s-1.79-1.09-2.87-.96c-.18,.02-.57,.07-.67,.24s.09,.17,.23,.16h0Z"/></g><g class="ac"><path class="u" d="M215.1,46.18c1.12-3.87,2.8-7.55,4.99-10.93,.11-.17-.36-.14-.41-.13-.2,.03-.46,.11-.58,.29-2.19,3.38-3.87,7.06-4.99,10.93-.07,.25,.91,.11,.99-.16h0Z"/></g><g class="ac"><path class="u" d="M222.25,44.7c1.66-2.96,4.34-5.33,7.52-6.53,.1-.04,.39-.14,.3-.28-.08-.13-.56,.03-.64,.06-3.43,1.29-6.36,3.72-8.17,6.93-.09,.16,.35,.1,.4,.09,.17-.03,.49-.1,.59-.27h0Z"/></g><g class="ac"><path class="u" d="M225.12,50.2c3.05-.67,6.06-1.49,9.02-2.47,.18-.06,.48-.21,.42-.44-.06-.22-.41-.23-.58-.18-2.96,.98-5.97,1.81-9.02,2.47-.18,.04-.48,.22-.42,.44,.06,.24,.41,.21,.58,.18h0Z"/></g><g class="ac"><path class="u" d="M222.64,29.86c.37-1.24,1.14-2.29,1.88-3.33,.8-1.12,1.61-2.24,2.44-3.34,1.66-2.2,3.39-4.35,5.18-6.44,.11-.13-.37-.08-.39-.07-.2,.03-.45,.1-.59,.26-1.79,2.1-3.52,4.24-5.18,6.44-.8,1.07-1.59,2.14-2.37,3.23s-1.57,2.15-1.95,3.44c-.05,.16,.91,.05,.98-.19h0Z"/></g><g class="ac"><path class="u" d="M215.49,29.37c-.29-2.48,.11-4.95,.86-7.32,.37-1.17,.82-2.32,1.3-3.45,.27-.62,.54-1.24,.83-1.86,.11-.24,.22-.48,.33-.72,.07-.16,.15-.32,.22-.47,.15-.21,.06-.23-.27-.06,.19,.28,1.16-.06,.93-.39s-.71-.29-1.05-.14c-.5,.23-.66,.82-.88,1.28-.66,1.42-1.31,2.85-1.86,4.32-1.09,2.91-1.78,5.97-1.42,9.08,.04,.34,1.05,.11,1-.27h0Z"/></g><g class="ac"><path class="u" d="M227.68,35.02c1.94-1.91,3.82-3.98,5.99-5.64,2.05-1.56,4.39-2.69,6.71-3.8,.62-.3,.07-.83-.44-.59-2.39,1.15-4.81,2.32-6.93,3.93-2.23,1.7-4.16,3.84-6.16,5.8-.44,.44,.52,.61,.84,.29h0Z"/></g><g class="ac"><path class="u" d="M234.15,38.84l8.46-1.62c.11-.02,.58-.12,.59-.28,0-.17-.29-.12-.4-.1l-8.46,1.62c-.11,.02-.58,.12-.59,.28,0,.17,.29,.12,.4,.1h0Z"/></g><g class="ac"><path class="u" d="M208.73,92.08c2.06,2.33,4.26,4.55,6.57,6.63,.22,.2,1.14-.18,.94-.36-2.31-2.08-4.51-4.3-6.57-6.63-.19-.21-1.13,.14-.94,.36h0Z"/></g><g class="ac"><path class="u" d="M208.68,103.86c.23,4.49,.87,8.95,1.95,13.32,.12,.48,1.12,.22,1-.27-1.06-4.3-1.72-8.69-1.94-13.12-.03-.54-1.04-.4-1.02,.07h0Z"/></g><g class="ac"><path class="u" d="M200.62,103.11c.49,2.68-.1,5.33-.76,7.93s-1.35,5.29-2.03,7.94c-.06,.22,.92,.08,.99-.17,.7-2.74,1.41-5.48,2.1-8.23,.64-2.53,1.18-5.12,.7-7.73-.04-.21-1.05,.01-1,.27h0Z"/></g><g class="y"><path class="t" d="M205.88,26.55c-.46,1.44-1.09,2.82-1.66,4.22l-.87,2.14-.44,1.07c-.11,.28-.2,.57-.42,.79-.17,.17-.06,.42,.14,.5,.25,.1,.53-.01,.71-.19,.47-.47,.66-1.29,.91-1.89l.87-2.14c.59-1.45,1.25-2.88,1.72-4.37,.18-.56-.82-.57-.96-.13h0Z"/></g><g class="y"><path class="t" d="M193.52,28.95c.26,3.7,.99,7.34,2.17,10.86,.09,.26,1.08-.03,1-.27-1.18-3.51-1.91-7.16-2.17-10.86-.02-.22-1.02-.03-1,.27h0Z"/></g><g class="y"><path class="t" d="M199.75,28.34v7.34l.02,3.6c0,1.16,.03,2.32-.22,3.47-.1,.45,.92,.32,1.01-.09,.24-1.14,.22-2.3,.22-3.47v-3.6l-.02-7.34c0-.49-1.01-.31-1.01,.09h0Z"/></g><g class="y"><path class="t" d="M218.48,46.43c-.98,1.58-1.94,3.18-2.95,4.75-.95,1.46-1.98,2.87-3.26,4.07-.17,.15-.09,.34,.11,.4,.23,.07,.54-.03,.71-.19,2.67-2.5,4.43-5.89,6.33-8.97,.26-.43-.75-.37-.94-.06h0Z"/></g><g class="y"><path class="t" d="M221.92,50.11c-2.35,1.27-4.66,2.71-7.23,3.51-.14,.04-.49,.17-.44,.37s.44,.15,.56,.11c2.74-.85,5.21-2.35,7.71-3.71,.16-.09,.27-.26,.09-.38s-.54,0-.71,.1h0Z"/></g><g class="y"><path class="t" d="M225.42,53.6c-1.96-.27-3.96-.26-5.92,.04-.95,.14-1.89,.35-2.82,.62-.45,.13-.89,.28-1.34,.44-.51,.18-1.19,.63-1.73,.59-.42-.03-1.05,.58-.37,.62,.93,.06,1.77-.48,2.62-.78,1.01-.36,2.05-.63,3.1-.81,2.01-.35,4.06-.37,6.08-.1,.42,.06,1.05-.53,.37-.62h0Z"/></g><g class="y"><path class="t" d="M223.15,69.8c-3.42-.8-6.95-1.91-10.5-1.53-.44,.05-.87,.52-.17,.44,3.3-.36,6.67,.77,9.85,1.51,.22,.05,.5,0,.7-.11,.08-.05,.35-.26,.11-.31h0Z"/></g><g class="y"><path class="t" d="M221.34,73.39c-3.27-1.02-5.45-4.12-8.89-4.75-.21-.04-.55,.04-.71,.19-.14,.14-.14,.25,.08,.29,3.34,.61,5.51,3.71,8.71,4.71,.22,.07,.51,0,.7-.11,.1-.06,.33-.26,.1-.33h0Z"/></g><g class="y"><path class="t" d="M220.98,78.75c-2.66-3.69-5.8-7.09-9.1-10.22-.18-.17-1.07,.21-.95,.33,3.29,3.11,6.4,6.48,9.05,10.15,.16,.23,1.06-.19,1-.27h0Z"/></g><g class="y"><path class="t" d="M186.44,42.21c-.34,1.31,.41,2.7,1.01,3.82,.64,1.2,1.44,2.32,2.37,3.32,.29,.32,1.24-.08,.92-.43-.87-.94-1.63-1.98-2.25-3.11-.59-1.06-1.36-2.44-1.03-3.69,.12-.45-.9-.33-1.01,.09h0Z"/></g><g class="y"><path class="t" d="M183.1,45.69c2.15,2.09,4.42,4.06,6.79,5.89,.25,.19,1.15-.2,.94-.37-2.37-1.83-4.64-3.8-6.79-5.89-.22-.21-1.15,.16-.94,.37h0Z"/></g><g class="y"><path class="t" d="M180.29,49.59c3.05-.36,6.15,.6,8.52,2.54,.21,.17,1.08-.22,.94-.34-2.52-2.05-5.81-2.97-9.03-2.59-.18,.02-.57,.07-.67,.24s.09,.17,.23,.16h0Z"/></g><g class="y"><path class="t" d="M172.96,66.48c2.38-.24,4.73,.72,7.09,.86,2.19,.13,4.38-.13,6.49-.74,.58-.17,.49-.56-.1-.39-2.28,.66-4.65,.86-7.01,.54-2.12-.28-4.14-.94-6.3-.72-.44,.05-.87,.52-.17,.45h0Z"/></g><g class="y"><path class="t" d="M175.37,70.31c1.27-1.1,2.92-1.45,4.5-1.86l5.37-1.42c.07-.02,.52-.14,.46-.27-.05-.14-.46-.02-.54,0-2.04,.54-4.09,1.08-6.13,1.62-1.62,.43-3.28,.91-4.56,2.03-.17,.15,.15,.14,.23,.14,.21-.01,.51-.09,.67-.23h0Z"/></g><g class="y"><path class="t" d="M177.41,74.14c1.64-2.71,3.71-5.14,6.13-7.18,.52-.44-.27-.82-.67-.48-2.54,2.15-4.7,4.69-6.42,7.53-.13,.22,.12,.41,.31,.44,.26,.04,.52-.09,.65-.31h0Z"/></g><g class="y"><path class="t" d="M197.76,87.07c.35-3.57-.7-7.07-.61-10.62,.01-.47-1-.28-1.01,.1-.08,3.56,.96,7.06,.61,10.62-.04,.46,.97,.29,1.01-.1h0Z"/></g><g class="y"><path class="t" d="M194.24,86.12c.48-1.84,.89-3.71,1.49-5.51,.52-1.58,1.65-2.98,1.88-4.65,.07-.5-.95-.37-1.01,.08-.12,.89-.55,1.65-.96,2.44s-.72,1.56-.98,2.38c-.54,1.76-.96,3.56-1.43,5.34-.12,.47,.9,.36,1.01-.08h0Z"/></g><g class="y"><path class="t" d="M189.15,85.83c1.23-2.09,2.77-3.9,4.36-5.71,1.45-1.65,2.83-3.37,3.66-5.43,.13-.33-.87-.21-1,.12-.82,2.06-2.26,3.77-3.71,5.42-1.55,1.77-3.04,3.54-4.24,5.58-.24,.41,.76,.32,.93,.03h0Z"/></g><g class="y"><path class="t" d="M208.88,97.64c-.65-1.51-1.34-3-2.07-4.47-.11-.22-.36-.26-.59-.2-.15,.04-.52,.24-.41,.46,.73,1.47,1.42,2.96,2.07,4.47,.1,.23,.37,.25,.59,.2,.16-.04,.51-.24,.41-.46h0Z"/></g><g class="y"><path class="t" d="M180.76,95.33c.45-1.24,1.21-2.34,2.2-3.2,.18-.16-.15-.2-.25-.2-.24,.01-.49,.09-.67,.25-1.02,.89-1.81,2.04-2.28,3.31-.07,.18,.33,.14,.41,.13,.16-.03,.51-.1,.58-.29h0Z"/></g><g class="y"><path class="t" d="M172.69,88.18c4.76-3.21,9.32-6.71,13.64-10.49,.17-.15-.16-.14-.23-.15-.2,0-.51,.1-.67,.23-4.28,3.74-8.78,7.22-13.5,10.39-.4,.27,.59,.13,.76,.01h0Z"/></g><g class="y"><path class="t" d="M175.59,91.4c-.03-.99,.38-1.98,1.11-2.65,.17-.15-.15-.18-.24-.17-.22,.02-.5,.08-.67,.24-.79,.73-1.24,1.78-1.2,2.85,0,.18,1.01,.02,1-.27h0Z"/></g><g class="y"><path class="t" d="M162.34,64.63h3.29c.21,0,.53-.08,.67-.26s-.13-.23-.25-.23h-3.29c-.21,0-.53,.08-.67,.26s.13,.23,.25,.23h0Z"/></g><g class="y"><path class="t" d="M173.43,34.5c1.25,1.75,2.69,3.35,4.28,4.79,.17,.16,.47,.1,.66,.02,.11-.05,.44-.26,.26-.41-1.59-1.44-3.03-3.05-4.28-4.79-.2-.28-1.17,.06-.93,.4h0Z"/></g><g class="y"><path class="t" d="M167.81,45.13c1.83,.34,3.61,.9,5.3,1.68,.21,.1,.52,.02,.71-.1,.13-.08,.31-.28,.09-.38-1.75-.8-3.59-1.39-5.49-1.74-.23-.04-.53,.03-.71,.19-.15,.14-.12,.3,.09,.34h0Z"/></g></g><g class="ab"><path class="u" d="M160.68,23.59c1.64,.29,2.76,1.63,3.71,2.88,1.25,1.65,2.48,3.32,3.72,4.98,.23,.31,1.19-.05,.92-.41-1.29-1.73-2.55-3.47-3.87-5.18-1-1.29-2.21-2.58-3.89-2.88-.24-.04-.53,0-.71,.19-.14,.15-.12,.37,.11,.41h0Z"/></g><g class="ad"><path class="u" d="M206.43,7.29c-2.11,4.5-3.64,9.24-4.54,14.12-.08,.41,.94,.25,1-.11,.89-4.83,2.39-9.52,4.47-13.97,.21-.46-.79-.36-.94-.04h0Z"/></g><g class="ad"><path class="u" d="M192.51,5.42c-.02,1.73-.32,3.42-.49,5.14-.16,1.58-.23,3.18-.22,4.77,.03,3.22,.42,6.43,1.13,9.57,.11,.49,1.11,.22,1-.27-.72-3.2-1.11-6.46-1.11-9.74s.68-6.35,.71-9.54c0-.54-1.01-.41-1.02,.07h0Z"/></g><path class="u" d="M180.43,14.73c5.49,3.1,9.39,8.17,12.94,13.25,.28,.4,1.22,0,.91-.45-3.58-5.13-7.55-10.26-13.09-13.4-.41-.23-1.27,.32-.77,.6h0Z"/><path class="s" d="M214.14,17.38c-2.8,2.73-5.19,5.8-7.24,9.12-.13,.22,.12,.4,.31,.42,.26,.04,.52-.09,.65-.31,2.02-3.26,4.37-6.26,7.12-8.94,.17-.17,.07-.41-.13-.49-.25-.1-.53,.02-.71,.19h0Z"/><path class="s" d="M218.73,15.15c-.15,1.2-.79,2.27-1.27,3.36s-.89,2.15-1.26,3.26c-.75,2.24-1.3,4.55-1.65,6.88-.07,.5,.95,.37,1.01-.08,.36-2.44,.94-4.84,1.75-7.17,.38-1.1,.82-2.18,1.3-3.24s.99-1.98,1.12-3.09c.06-.5-.96-.37-1.01,.08h0Z"/><path class="s" d="M233.21,14.93c-1.05,.69-1.8,1.71-2.56,2.68-.95,1.2-1.88,2.41-2.81,3.63-1.83,2.4-3.61,4.84-5.35,7.31-.37,.52,.57,.71,.84,.32,1.69-2.4,3.42-4.76,5.19-7.1,.87-1.15,1.75-2.29,2.64-3.43,.82-1.04,1.59-2.19,2.72-2.93,.56-.37-.25-.76-.67-.49h0Z"/><path class="s" d="M226.23,35.56c1.63-2.53,4.16-4.17,6.64-5.78,2.94-1.9,5.8-3.9,9.14-5.04,.67-.23,.05-.44-.37-.3-3.39,1.16-6.3,3.16-9.29,5.09-2.61,1.69-5.32,3.4-7.04,6.07-.21,.32,.77,.19,.92-.04h0Z"/><path class="s" d="M222.53,44.88c1.47-1.61,2.94-3.21,4.41-4.82,.65-.71,1.31-1.41,2.07-1.99,.82-.63,1.75-1,2.71-1.35,.6-.21,.42-.95-.2-.73-.98,.35-1.94,.72-2.8,1.3s-1.6,1.33-2.31,2.09c-1.6,1.71-3.16,3.45-4.74,5.18-.17,.18-.07,.43,.14,.52,.24,.1,.54,0,.71-.19h0Z"/><path class="s" d="M220.09,33.04c-3,3.93-4.75,8.72-4.98,13.66-.02,.45,.99,.26,1-.11,.23-4.89,1.94-9.6,4.91-13.5,.29-.38-.72-.33-.94-.05h0Z"/><path class="s" d="M233.9,39.02c1.63,.09,3.13-.27,4.62-.93s3.04-1.5,4.64-.94c.44,.15,1.17-.48,.57-.69-1.54-.54-3.12-.09-4.57,.53-.77,.33-1.52,.72-2.32,.97-.84,.26-1.72,.37-2.61,.32-.24-.01-.55,.06-.65,.31-.09,.22,.08,.43,.31,.44h0Z"/><path class="s" d="M246.69,42.08c-2.42,.87-5.02,1.6-7.14,3.11-.14,.1-.29,.26-.09,.39,.18,.11,.55,.02,.71-.1,2.05-1.45,4.57-2.15,6.91-2.99,.14-.05,.4-.23,.27-.4s-.51-.06-.66,0h0Z"/><path class="s" d="M171.79,18.48c1.81,2.71,3.28,5.64,4.36,8.71,.12,.35,1.12,.06,1-.27-1.1-3.12-2.59-6.09-4.43-8.84-.18-.27-1.16,.05-.93,.39h0Z"/><path class="s" d="M186.91,30.47c.77,2.16,1.76,4.32,1.92,6.63s.31,4.49,.86,6.72c.12,.49,1.12,.22,1-.27-.56-2.28-.68-4.53-.87-6.86s-1.15-4.38-1.91-6.49c-.17-.48-1.17-.2-1,.27h0Z"/><path class="s" d="M178.18,32.99c.86,0,1.64,.93,2.22,1.48,.66,.62,1.28,1.28,1.87,1.96,1.19,1.39,2.24,2.9,3.13,4.5,.19,.34,1.16,.02,1-.27-.95-1.73-2.08-3.35-3.38-4.84-.64-.73-1.32-1.43-2.04-2.09s-1.41-1.34-2.4-1.33c-.2,0-.56,.07-.66,.28s.08,.3,.27,.3h0Z"/><path class="s" d="M170.3,38.68c1.1-.11,2.19,1.04,3.06,1.58,.95,.59,1.94,1.11,2.93,1.62,1.94,1.01,3.89,2.03,5.48,3.55,.18,.17,1.08-.21,.94-.33-1.73-1.66-3.88-2.71-5.99-3.81-1.04-.55-2.08-1.11-3.06-1.77-.92-.63-1.75-1.33-2.92-1.21-.15,.01-.6,.07-.67,.23s.06,.16,.23,.14h0Z"/><path class="s" d="M167.94,49.46c3.43-1.69,7.48-1.65,10.94-.09,.24,.11,1.15-.27,.81-.42-3.91-1.77-8.52-1.58-12.35,.32-.16,.08-.26,.18-.11,.3s.57-.05,.7-.12h0Z"/><path class="s" d="M149.67,31.41c3.03,.3,5.77,1.65,8.38,3.13,2.76,1.57,5.49,3.19,8.23,4.79,.34,.2,1.24-.28,.78-.54-2.91-1.7-5.8-3.45-8.75-5.08-2.59-1.44-5.3-2.67-8.28-2.97-.45-.04-1.04,.6-.36,.67h0Z"/><path class="s" d="M159.85,22.48c1.31,.42,2.42,1.21,3.49,2.05s2.12,1.75,3.11,2.71c1.93,1.85,3.67,3.89,5.21,6.07,.24,.34,1.2-.03,.92-.42-1.63-2.29-3.47-4.43-5.52-6.36-1.92-1.81-4.07-3.84-6.63-4.67-.39-.13-1.18,.44-.59,.63h0Z"/><path class="s" d="M149.55,46.51c5.01-2.16,10.7-2.22,15.81-.37,.22,.08,1.12-.28,.82-.39-5.58-2.02-11.78-1.73-17.21,.62-.6,.26,.34,.24,.58,.13h0Z"/><path class="s" d="M161.78,53.15c2.56,2.02,5.27,3.84,8.11,5.43,.23,.13,.51,.11,.72-.05,.15-.12,.27-.41,.05-.54-2.84-1.59-5.56-3.41-8.11-5.43-.37-.29-1.23,.23-.77,.6h0Z"/><path class="s" d="M142.73,58.48c5.38-1.42,10.98-.66,16.4,.09,.24,.03,1.15-.37,.64-.44-5.69-.78-11.5-1.49-17.13,0-.58,.15-.5,.52,.1,.36h0Z"/><path class="s" d="M163.31,59.85c3.45,.13,6.44,1.87,9.57,3.14s6.46,2.03,9.84,2.28c.51,.04,1.01-.71,.34-.76-3.54-.26-6.97-1.09-10.23-2.48-2.97-1.26-5.88-2.81-9.18-2.94-.5-.02-1.01,.73-.34,.76h0Z"/><path class="s" d="M160.32,69.39c3.94-2.28,8.47-3.42,13.02-3.29,.2,0,.58-.06,.66-.29,.08-.21-.07-.35-.29-.36-4.92-.14-9.77,1.1-14.03,3.56-.19,.11-.24,.31-.07,.45,.18,.16,.54,.02,.71-.08h0Z"/><path class="s" d="M162.67,79.01c1.93-1.6,3.82-3.25,5.82-4.76,1.89-1.43,3.93-2.71,6.24-3.34,.1-.03,.51-.15,.45-.32s-.44-.08-.55-.05c-4.99,1.37-8.87,5.18-12.74,8.4-.41,.34,.58,.24,.78,.07h0Z"/><path class="s" d="M224.52,49.58c3.39-1.09,6.85-1.95,10.36-2.58,.13-.02,.57-.12,.58-.3s-.28-.17-.41-.15c-3.6,.64-7.15,1.52-10.63,2.64-.11,.04-.5,.15-.45,.33s.45,.09,.55,.06h0Z"/><path class="s" d="M235.93,55.85c-.83-.26-1.54-.74-2.3-1.15s-1.59-.65-2.48-.74c-2-.21-4.03-.26-6.04-.39-.37-.02-1.07,.5-.4,.54,1.92,.12,3.86,.18,5.78,.37,.9,.09,1.7,.34,2.49,.78,.7,.39,1.37,.82,2.15,1.07,.22,.07,.51,.03,.71-.1,.1-.07,.33-.29,.09-.37h0Z"/><path class="s" d="M233.44,64.51c-3.26,.14-6.5,.61-9.67,1.44-1.55,.41-3.09,.89-4.59,1.46-1.68,.63-3.31,1.62-5.07,1.99-.6,.13-.49,.55,.11,.42,1.53-.33,2.92-1.11,4.36-1.7s3.05-1.14,4.62-1.57c3.2-.89,6.5-1.4,9.82-1.54,.33-.01,1.07-.53,.41-.5h0Z"/><path class="s" d="M221.99,70.4c4.59,1.22,9.04,2.94,13.26,5.13,.27,.14,1.11-.27,.94-.36-4.26-2.21-8.74-3.96-13.38-5.19-.22-.06-.51,0-.7,.12-.09,.05-.34,.24-.11,.3h0Z"/><path class="s" d="M223.24,77.35c.32-.04,.67,.28,.89,.48,.27,.24,.54,.5,.8,.76,.57,.55,1.13,1.12,1.67,1.7,1.07,1.15,2.08,2.34,3.04,3.58,.19,.25,1.16-.09,.93-.38-1.06-1.37-2.18-2.69-3.38-3.95-.59-.62-1.2-1.22-1.82-1.81-.57-.54-1.14-1-1.97-.89-.16,.02-.54,.12-.57,.32s.3,.2,.42,.18h0Z"/><path class="s" d="M239.19,64.4c1.37-.14,2.75-.29,4.13-.21,1.48,.09,2.82,.54,4.19,1.07,2.6,1.02,5.19,2.04,7.78,3.06,.33,.13,1.23-.34,.79-.51-2.88-1.13-5.74-2.3-8.64-3.39-2.69-1.01-5.32-.92-8.13-.63-.51,.05-.81,.68-.12,.61h0Z"/><path class="s" d="M238.14,70.86c2.1,.41,3.7,1.9,5.1,3.41,1.49,1.61,2.95,3.31,3.77,5.37,.17,.42,1.16,.13,1-.27-.86-2.16-2.37-3.96-3.95-5.64-1.47-1.57-3.16-3.09-5.34-3.52-.24-.05-.54-.01-.71,.19-.13,.15-.12,.4,.12,.44h0Z"/><path class="s" d="M232.1,79.93c1.85-.09,3.59,.68,5.24,1.43s3.33,1.53,5,2.29c.19,.09,.46,.01,.64-.06,.04-.01,.46-.21,.3-.28-1.84-.84-3.67-1.7-5.52-2.53-1.67-.74-3.37-1.34-5.22-1.26-.27,.01-1.09,.43-.43,.4h0Z"/><path class="s" d="M233.18,88.33c1.16-.16,2.24,1.04,3.03,1.74,.87,.78,1.72,1.58,2.54,2.42,1.64,1.67,3.17,3.44,4.58,5.31,.19,.26,1.16-.08,.93-.38-1.57-2.07-3.27-4.03-5.12-5.85-.9-.89-1.83-1.75-2.79-2.57-.88-.74-1.83-1.36-3.03-1.19-.15,.02-.56,.12-.57,.33s.27,.22,.43,.19h0Z"/><path class="s" d="M226.2,92.82c1.97,1.61,3.42,3.61,4.67,5.81,1.34,2.37,2.56,4.82,3.69,7.3,.21,.46,1.2,.17,1-.27-1.16-2.54-2.4-5.05-3.78-7.48-1.28-2.26-2.79-4.3-4.81-5.95-.36-.29-1.22,.22-.77,.59h0Z"/><path class="s" d="M220.39,94.76c-.13,4.67,1.73,9.06,2.27,13.65,.03,.28,1.04,.07,1-.27-.54-4.59-2.39-8.98-2.27-13.65,0-.25-.99-.09-1,.27h0Z"/><path class="s" d="M204.24,86.87c2.78,4.67,6.52,8.7,10.96,11.84,.29,.2,1.2-.22,.79-.51-4.39-3.1-8.09-7.11-10.83-11.73-.18-.31-1.15,.02-.93,.4h0Z"/><path class="s" d="M197.55,78.98c2.67,5.93,5.08,11.97,7.23,18.1,.08,.23,1.07-.07,1-.27-2.15-6.14-4.56-12.17-7.23-18.1-.11-.24-1.08,.1-1,.27h0Z"/><path class="s" d="M189.33,81.02c-1.54,2.14-3.37,3.96-5.33,5.7-2.11,1.87-4.23,3.75-6.34,5.62-.17,.15,.15,.17,.24,.17,.22,0,.5-.09,.67-.24,2.17-1.92,4.33-3.84,6.5-5.76,1.94-1.72,3.74-3.54,5.25-5.66,.11-.15-.37-.1-.4-.1-.2,.03-.46,.1-.59,.27h0Z"/><path class="s" d="M143.16,71.86c4.86-3.34,10.38-5.62,16.19-6.63,.47-.08,.83-.68,.14-.56-6.08,1.06-11.87,3.39-16.95,6.89-.56,.38,.3,.52,.62,.3h0Z"/><path class="s" d="M156.58,91.19c1.38-1.69,3.48-2.56,5.4-3.47,2.12-1,4.27-1.94,6.44-2.82,.65-.26,.05-.54-.38-.36-2.38,.97-4.74,2.01-7.06,3.12-1.93,.92-3.93,1.85-5.32,3.54-.26,.31,.73,.23,.92,0h0Z"/><path class="s" d="M159.93,103.05c-.07-.61,.33-1.08,.71-1.51s.77-.86,1.16-1.29c.83-.9,1.68-1.77,2.54-2.63,1.74-1.72,3.55-3.35,5.44-4.91,.41-.34-.58-.26-.78-.09-1.98,1.63-3.89,3.36-5.71,5.16-.91,.91-1.8,1.83-2.67,2.78-.66,.72-1.83,1.65-1.69,2.75,.03,.26,1.04,.05,1-.27h0Z"/><path class="s" d="M192.4,5.64c-.45,7.03-.1,14.08,1.05,21.03,.08,.45,1.08,.2,1-.27-1.14-6.89-1.49-13.87-1.04-20.84,.03-.51-.98-.37-1.01,.08h0Z"/><path class="s" d="M192.93,6.73c-.41,6.16-.79,12.41,.69,18.46,.06,.23,1.06-.03,1-.27-1.48-6.05-1.1-12.3-.69-18.46,0-.15-.98-.04-1,.27h0Z"/><path class="s" d="M192.46,51.45c1.56,1.46,2.73,3.27,3.43,5.29,.09,.26,1.08-.03,1-.27-.7-2.04-1.91-3.9-3.49-5.37-.21-.19-1.13,.18-.94,.35h0Z"/><path class="s" d="M203.88,50.29c-.21,.53-.56,.97-.92,1.41s-.69,.94-.99,1.44c-.6,1.02-1.02,2.12-1.28,3.27-.07,.3,.93,.14,.99-.15,.26-1.15,.69-2.26,1.28-3.27,.3-.51,.64-.98,1.01-1.43s.69-.89,.9-1.42c.1-.25-.88-.14-.99,.15h0Z"/><path class="s" d="M203.72,61.55c.21,0,1.13-.4,.65-.4-.21,0-1.13,.4-.65,.4h0Z"/><path class="s" d="M206.8,59.97c1.05-.17,2.07-.5,3.02-.98,.11-.06,.32-.24,.11-.32s-.51,.02-.7,.11c-.1,.05-.2,.1-.3,.15,.07-.03-.07,.03-.08,.04-.05,.02-.1,.04-.16,.07-.1,.04-.21,.08-.31,.12-.05,.02-.09,.03-.14,.05-.02,0-.17,.06-.12,.04s-.1,.03-.12,.04c-.05,.01-.09,.03-.14,.04-.11,.03-.22,.06-.33,.09-.05,.01-.09,.02-.14,.03l-.09,.02c.06-.01,.05-.01,0,0-.11,.02-.22,.04-.33,.06-.13,.02-.26,.06-.38,.12-.06,.03-.18,.1-.2,.18-.06,.2,.33,.16,.41,.15h0Z"/><path class="s" d="M196.89,67.7c.01,.55-.3,1.02-.57,1.47l-.87,1.49-.87,1.49c-.25,.43-.48,.94-.88,1.25-.16,.12-.12,.24,.07,.27,.22,.03,.53-.05,.71-.19,.43-.33,.68-.78,.94-1.24l.96-1.63,.93-1.58c.29-.5,.59-.99,.58-1.59,0-.22-1.01-.05-1,.27h0Z"/><path class="s" d="M187.41,63.04c1.05-.35,2.12-.58,3.22-.69,.55-.05,1.1-.08,1.65-.07,.25,0,.51,.02,.76,.03,.2,.01,.56-.02,.69,.16,.21,.3,1.18-.05,.93-.4-.31-.44-1.15-.36-1.62-.38-.64-.03-1.27-.02-1.91,.03-1.32,.1-2.62,.36-3.87,.78-.16,.05-.49,.18-.43,.41,.06,.21,.42,.19,.57,.14h0Z"/></g></g></g></g></svg>