<?xml version="1.0" encoding="utf-8"?>
<!-- Generator: Adobe Illustrator 26.1.0, SVG Export Plug-In . SVG Version: 6.00 Build 0)  -->
<svg version="1.1" id="Calque_1" xmlns="http://www.w3.org/2000/svg" xmlns:xlink="http://www.w3.org/1999/xlink" x="0px" y="0px"
	 viewBox="0 0 1920 1080" style="enable-background:new 0 0 1920 1080;" xml:space="preserve">
<style type="text/css">
	.st0{opacity:0.18;}
	.st1{fill:none;stroke:#1D1D1B;stroke-width:2;stroke-miterlimit:10;}
	.st2{fill:none;stroke:#1D1D1B;stroke-width:2.3292;stroke-miterlimit:10;}
</style>
<g class="st0">
	<path class="st1" d="M71.4,894.7c-11.4,16-18.4,34.8-18.2,61.6h14.5h22.9C90.5,932.7,82,912.7,71.4,894.7z"/>
	<rect x="67.4" y="970.2" class="st1" width="9.9" height="35.6"/>
	<line class="st1" x1="71.8" y1="944.1" x2="71.8" y2="970.2"/>
</g>
<g class="st0">
	<g>
		
			<rect x="142.8" y="866.7" transform="matrix(0.9009 -0.434 0.434 0.9009 -371.729 153.1047)" class="st1" width="13.4" height="48"/>
		<line class="st1" x1="107.7" y1="803.3" x2="139.4" y2="869.1"/>
		
			<rect x="98.1" y="761.7" transform="matrix(-0.434 -0.9009 0.9009 -0.434 -568.0142 1238.3499)" class="st1" width="13.8" height="71.8"/>
		<line class="st1" x1="78.8" y1="819.2" x2="84" y2="830"/>
		<line class="st1" x1="94.9" y1="810.6" x2="100.1" y2="821.4"/>
		<line class="st1" x1="119.4" y1="798.5" x2="124.7" y2="809.3"/>
	</g>
	<line class="st1" x1="137.9" y1="789.1" x2="143.1" y2="799.9"/>
</g>
<g class="st0">
	<path class="st2" d="M152.7,1007.7c-0.3,12.1,0.7,21.3,3.3,26.6l-8.6,1.1C147.3,1023.4,149,1014.1,152.7,1007.7z"/>
	<path class="st2" d="M164.9,1013.1c-5.7,10.5-7.5,15.8-10.1,17.4l1.6,6.7C164.4,1033.2,165.4,1027.4,164.9,1013.1z"/>
	<path class="st2" d="M155.9,1068.5L155.9,1068.5c-2.3,0.3-4.4-1.4-4.7-3.7l-3.6-29.5l8.3-1l3.6,29.5
		C159.8,1066.2,158.2,1068.3,155.9,1068.5z"/>
	<path class="st2" d="M129.2,1051.4l18.3-16l1.2,9.6l-14.1,12.8c-1.9,1.6-4.7,1.2-6.1-0.7l0,0
		C127.2,1055.3,127.5,1052.8,129.2,1051.4z"/>
	<line class="st2" x1="141.1" y1="1051.5" x2="149.5" y2="1054"/>
</g>
<g class="st0">
	<path class="st1" d="M103.3,628.5c-18.3,7.4-34.2,19.5-48.4,42.2l12.2,7.8l19.3,12.3C99.1,670.8,102.6,649.4,103.3,628.5z"/>
	
		<rect x="49.1" y="689.9" transform="matrix(0.8438 0.5366 -0.5366 0.8438 388.2034 81.5038)" class="st1" width="9.9" height="35.6"/>
	<line class="st1" x1="77.2" y1="670.4" x2="63.2" y2="692.5"/>
</g>
<g class="st0">
	
		<rect x="70.1" y="132.3" transform="matrix(0.9202 0.3913 -0.3913 0.9202 67.2884 -17.5754)" class="st1" width="13.4" height="48"/>
	<line class="st1" x1="115" y1="67.3" x2="86.4" y2="134.5"/>
	
		<rect x="110.6" y="25.6" transform="matrix(0.3913 -0.9202 0.9202 0.3913 14.9061 145.5216)" class="st1" width="13.8" height="71.8"/>
	<line class="st1" x1="83.9" y1="56" x2="79.2" y2="67.1"/>
	<line class="st1" x1="101" y1="62.5" x2="96.3" y2="73.5"/>
	<line class="st1" x1="126.3" y1="72.9" x2="121.6" y2="84"/>
</g>
<g class="st0">
	<path class="st2" d="M188.4,677.4c-1.8,12-1.9,21.2,0,26.8h-8.7C181.2,692.3,184,683.3,188.4,677.4z"/>
	<path class="st2" d="M199.9,684.2c-6.9,9.7-9.4,14.8-12.2,16l0.8,6.8C196.9,704.1,198.7,698.5,199.9,684.2z"/>
	<path class="st2" d="M184.1,738.1L184.1,738.1c-2.3,0-4.2-1.9-4.2-4.2v-29.7h8.4v29.7C188.3,736.2,186.5,738.1,184.1,738.1z"/>
	<path class="st2" d="M159.8,717.8l20.1-13.6v9.7l-15.5,11c-2,1.3-4.8,0.7-6-1.5l0,0C157.4,721.5,158,719,159.8,717.8z"/>
	<line class="st2" x1="171.6" y1="719.4" x2="179.6" y2="722.8"/>
</g>
<g class="st0">
	<path class="st1" d="M130.2,293.1c-17.8,8.3-33.2,21.2-46.1,44.6l12.6,7.1l19.9,11.2C128.2,335.6,130.6,314,130.2,293.1z"/>
	<rect x="80.2" y="357" transform="matrix(0.8708 0.4917 -0.4917 0.8708 195.2905 6.5382)" class="st1" width="9.9" height="35.6"/>
	<line class="st1" x1="106.4" y1="336.3" x2="93.5" y2="359.1"/>
</g>
<g class="st0">
	<g>
		<rect x="172.9" y="551.8" class="st1" width="13.4" height="48"/>
		<line class="st1" x1="179.9" y1="479" x2="179.9" y2="552"/>
		
			<rect x="173.1" y="436.8" transform="matrix(6.123234e-17 -1 1 6.123234e-17 -292.7623 652.6216)" class="st1" width="13.8" height="71.8"/>
		<line class="st1" x1="146.9" y1="480.8" x2="146.9" y2="492.8"/>
		<line class="st1" x1="165.2" y1="480" x2="165.2" y2="492"/>
		<line class="st1" x1="192.5" y1="479.8" x2="192.5" y2="491.8"/>
	</g>
	<line class="st1" x1="213.3" y1="479.4" x2="213.3" y2="491.3"/>
</g>
<g class="st0">
	<path class="st2" d="M81.9,472.7c-1.8,12-1.9,21.2,0,26.8h-8.7C74.6,487.6,77.5,478.6,81.9,472.7z"/>
	<path class="st2" d="M93.3,479.5c-6.9,9.7-9.4,14.8-12.2,16l0.8,6.8C90.4,499.4,92.1,493.8,93.3,479.5z"/>
	<path class="st2" d="M77.6,533.4L77.6,533.4c-2.3,0-4.2-1.9-4.2-4.2v-29.7h8.4v29.7C81.8,531.6,79.9,533.4,77.6,533.4z"/>
	<path class="st2" d="M53.3,513.2l20.1-13.6v9.7l-15.5,11c-2,1.3-4.8,0.7-6-1.5h0C50.8,516.8,51.4,514.4,53.3,513.2z"/>
	<line class="st2" x1="65" y1="514.8" x2="73.1" y2="518.2"/>
</g>
<g class="st0">
	<path class="st2" d="M169.4,348.7c12.1,0.8,21.3,0.2,26.7-2.2l0.7,8.7C184.8,354.7,175.6,352.6,169.4,348.7z"/>
	<path class="st2" d="M175.3,336.7c10.3,6.1,15.5,8.2,16.9,10.8l6.7-1.3C195.4,338,189.6,336.7,175.3,336.7z"/>
	<path class="st2" d="M230.3,348L230.3,348c0.2,2.3-1.5,4.3-3.9,4.5l-29.6,2.4l-0.7-8.4l29.6-2.4C228.1,344,230.1,345.7,230.3,348z"
		/>
	<path class="st2" d="M212.1,373.9L196.9,355l9.7-0.8l12.2,14.6c1.5,1.9,1,4.7-1,6.1l0,0C215.9,376.1,213.4,375.7,212.1,373.9z"/>
	<line class="st2" x1="212.7" y1="362" x2="215.5" y2="353.8"/>
</g>
<g class="st0">
	<path class="st1" d="M214.6,116.9c-18.3,7.4-34.2,19.5-48.4,42.2l12.2,7.8l19.3,12.3C210.4,159.2,213.9,137.8,214.6,116.9z"/>
	
		<rect x="160.4" y="178.3" transform="matrix(0.8438 0.5366 -0.5366 0.8438 131.0738 -58.1019)" class="st1" width="9.9" height="35.6"/>
	<line class="st1" x1="188.5" y1="158.8" x2="174.5" y2="180.9"/>
</g>
<g class="st0">
	<path class="st1" d="M413.4,217.9c11.4-16,18.4-34.8,18.2-61.6h-14.5h-22.9C394.2,179.9,402.8,199.9,413.4,217.9z"/>
	
		<rect x="407.5" y="106.8" transform="matrix(-1 -1.224647e-16 1.224647e-16 -1 824.8578 249.2308)" class="st1" width="9.9" height="35.6"/>
	<line class="st1" x1="412.9" y1="168.5" x2="412.9" y2="142.4"/>
</g>
<g class="st0">
	<g>
		
			<rect x="328.6" y="197.9" transform="matrix(-0.9009 0.434 -0.434 -0.9009 733.6734 276.3098)" class="st1" width="13.4" height="48"/>
		<line class="st1" x1="377" y1="309.3" x2="345.4" y2="243.5"/>
		
			<rect x="372.9" y="279.1" transform="matrix(0.434 0.9009 -0.9009 0.434 498.7511 -163.8292)" class="st1" width="13.8" height="71.8"/>
		<line class="st1" x1="406" y1="293.4" x2="400.8" y2="282.6"/>
		<line class="st1" x1="389.9" y1="302" x2="384.7" y2="291.2"/>
		<line class="st1" x1="365.3" y1="314.1" x2="360.1" y2="303.3"/>
	</g>
	<line class="st1" x1="346.8" y1="323.5" x2="341.6" y2="312.7"/>
</g>
<g class="st0">
	<path class="st2" d="M332.1,104.9c0.3-12.1-0.7-21.3-3.3-26.6l8.6-1.1C337.5,89.2,335.7,98.5,332.1,104.9z"/>
	<path class="st2" d="M319.9,99.5c5.7-10.5,7.5-15.8,10.1-17.4l-1.6-6.7C320.4,79.4,319.3,85.2,319.9,99.5z"/>
	<path class="st2" d="M328.9,44.1L328.9,44.1c2.3-0.3,4.4,1.4,4.7,3.7l3.6,29.5l-8.3,1l-3.6-29.5C325,46.4,326.6,44.3,328.9,44.1z"
		/>
	<path class="st2" d="M355.5,61.2l-18.3,16l-1.2-9.6l14.1-12.8c1.9-1.6,4.7-1.2,6.1,0.7l0,0C357.5,57.3,357.2,59.8,355.5,61.2z"/>
	<line class="st2" x1="343.6" y1="61.1" x2="335.3" y2="58.7"/>
</g>
<g class="st0">
	<path class="st1" d="M381.4,484.1c18.3-7.4,34.2-19.5,48.4-42.2l-12.2-7.8l-19.3-12.3C385.7,441.8,382.2,463.2,381.4,484.1z"/>
	
		<rect x="425.7" y="387.1" transform="matrix(-0.8438 -0.5366 0.5366 -0.8438 576.8916 977.6287)" class="st1" width="9.9" height="35.6"/>
	<line class="st1" x1="407.6" y1="442.2" x2="421.6" y2="420.1"/>
</g>
<g class="st0">
	
		<rect x="401.3" y="932.3" transform="matrix(-0.9202 -0.3913 0.3913 -0.9202 409.2139 1996.0267)" class="st1" width="13.4" height="48"/>
	<line class="st1" x1="369.8" y1="1045.3" x2="398.4" y2="978.1"/>
	
		<rect x="360.4" y="1015.2" transform="matrix(-0.3913 0.9202 -0.9202 -0.3913 1478.3317 1124.4606)" class="st1" width="13.8" height="71.8"/>
	<line class="st1" x1="400.8" y1="1056.6" x2="405.5" y2="1045.5"/>
	<line class="st1" x1="383.7" y1="1050.1" x2="388.4" y2="1039.1"/>
	<line class="st1" x1="358.5" y1="1039.7" x2="363.2" y2="1028.6"/>
</g>
<g class="st0">
	<path class="st2" d="M296.3,435.2c1.8-12,1.9-21.2,0-26.8h8.7C303.6,420.4,300.7,429.3,296.3,435.2z"/>
	<path class="st2" d="M284.9,428.5c6.9-9.7,9.4-14.8,12.2-16l-0.8-6.8C287.8,408.5,286.1,414.1,284.9,428.5z"/>
	<path class="st2" d="M300.6,374.5L300.6,374.5c2.3,0,4.2,1.9,4.2,4.2v29.7h-8.4v-29.7C296.4,376.4,298.3,374.5,300.6,374.5z"/>
	<path class="st2" d="M324.9,394.8l-20.1,13.6v-9.7l15.5-11c2-1.3,4.8-0.7,6,1.5v0C327.4,391.2,326.8,393.6,324.9,394.8z"/>
	<line class="st2" x1="313.2" y1="393.2" x2="305.1" y2="389.8"/>
</g>
<g class="st0">
	<path class="st1" d="M354.5,819.5c17.8-8.3,33.2-21.2,46.1-44.6l-12.6-7.1l-19.9-11.2C356.5,777,354.1,798.6,354.5,819.5z"/>
	
		<rect x="394.6" y="720" transform="matrix(-0.8708 -0.4917 0.4917 -0.8708 384.7407 1576.712)" class="st1" width="9.9" height="35.6"/>
	<line class="st1" x1="378.4" y1="776.3" x2="391.3" y2="753.5"/>
</g>
<g class="st0">
	<g>
		
			<rect x="298.5" y="512.7" transform="matrix(-1 -1.224647e-16 1.224647e-16 -1 610.3676 1073.4999)" class="st1" width="13.4" height="48"/>
		<line class="st1" x1="304.9" y1="633.6" x2="304.9" y2="560.6"/>
		
			<rect x="298" y="604" transform="matrix(-1.836970e-16 1 -1 -1.836970e-16 944.7554 335.0886)" class="st1" width="13.8" height="71.8"/>
		<line class="st1" x1="337.8" y1="631.8" x2="337.8" y2="619.8"/>
		<line class="st1" x1="319.6" y1="632.6" x2="319.6" y2="620.6"/>
		<line class="st1" x1="292.2" y1="632.8" x2="292.2" y2="620.9"/>
	</g>
	<line class="st1" x1="271.5" y1="633.3" x2="271.5" y2="621.3"/>
</g>
<g class="st0">
	<path class="st2" d="M402.9,639.9c1.8-12,1.9-21.2,0-26.8h8.7C410.1,625,407.3,634,402.9,639.9z"/>
	<path class="st2" d="M391.4,633.1c6.9-9.7,9.4-14.8,12.2-16l-0.8-6.8C394.4,613.2,392.6,618.8,391.4,633.1z"/>
	<path class="st2" d="M407.2,579.2L407.2,579.2c2.3,0,4.2,1.9,4.2,4.2v29.7H403v-29.7C403,581.1,404.9,579.2,407.2,579.2z"/>
	<path class="st2" d="M431.5,599.5l-20.1,13.6v-9.7l15.5-11c2-1.3,4.8-0.7,6,1.5l0,0C434,595.8,433.3,598.3,431.5,599.5z"/>
	<line class="st2" x1="419.7" y1="597.9" x2="411.7" y2="594.4"/>
</g>
<g class="st0">
	<path class="st2" d="M315.3,764c-12.1-0.8-21.3-0.2-26.7,2.2l-0.7-8.7C299.9,757.9,309.1,760.1,315.3,764z"/>
	<path class="st2" d="M309.5,775.9c-10.3-6.1-15.5-8.2-16.9-10.8l-6.7,1.3C289.4,774.6,295.1,775.9,309.5,775.9z"/>
	<path class="st2" d="M254.5,764.6L254.5,764.6c-0.2-2.3,1.5-4.3,3.9-4.5l29.6-2.4l0.7,8.4l-29.6,2.4
		C256.7,768.6,254.6,766.9,254.5,764.6z"/>
	<path class="st2" d="M272.7,738.7l15.2,18.9l-9.7,0.8l-12.2-14.6c-1.5-1.9-1-4.7,1-6.1l0,0C268.9,736.5,271.4,737,272.7,738.7z"/>
	<line class="st2" x1="272.1" y1="750.6" x2="269.3" y2="758.8"/>
</g>
<g class="st0">
	<path class="st1" d="M270.1,995.7c18.3-7.4,34.2-19.5,48.4-42.2l-12.2-7.8L287,933.5C274.4,953.4,270.9,974.8,270.1,995.7z"/>
	
		<rect x="314.4" y="898.6" transform="matrix(-0.8438 -0.5366 0.5366 -0.8438 97.1665 1861.1993)" class="st1" width="9.9" height="35.6"/>
	<line class="st1" x1="296.3" y1="953.8" x2="310.3" y2="931.7"/>
</g>
<g class="st0">
	<path class="st1" d="M495,891.7c-11.4,16-18.4,34.8-18.2,61.6h14.5h22.9C514.1,929.7,505.6,909.7,495,891.7z"/>
	<rect x="490.9" y="967.2" class="st1" width="9.9" height="35.6"/>
	<line class="st1" x1="495.4" y1="941.1" x2="495.4" y2="967.2"/>
</g>
<g class="st0">
	<g>
		
			<rect x="566.4" y="863.7" transform="matrix(0.9009 -0.434 0.434 0.9009 -328.4615 336.6255)" class="st1" width="13.4" height="48"/>
		<line class="st1" x1="531.3" y1="800.3" x2="563" y2="866.1"/>
		
			<rect x="521.7" y="758.7" transform="matrix(-0.434 -0.9009 0.9009 -0.434 42.0924 1615.6598)" class="st1" width="13.8" height="71.8"/>
		<line class="st1" x1="502.4" y1="816.2" x2="507.6" y2="827"/>
		<line class="st1" x1="518.5" y1="807.6" x2="523.7" y2="818.4"/>
		<line class="st1" x1="543" y1="795.5" x2="548.2" y2="806.3"/>
	</g>
	<line class="st1" x1="561.5" y1="786.1" x2="566.7" y2="796.9"/>
</g>
<g class="st0">
	<path class="st2" d="M576.3,1004.7c-0.3,12.1,0.7,21.3,3.3,26.6l-8.6,1.1C570.9,1020.4,572.6,1011.1,576.3,1004.7z"/>
	<path class="st2" d="M588.4,1010.1c-5.7,10.5-7.5,15.8-10.1,17.4l1.6,6.7C588,1030.2,589,1024.4,588.4,1010.1z"/>
	<path class="st2" d="M579.4,1065.5L579.4,1065.5c-2.3,0.3-4.4-1.4-4.7-3.7l-3.6-29.5l8.3-1l3.6,29.5
		C583.4,1063.2,581.8,1065.3,579.4,1065.5z"/>
	<path class="st2" d="M552.8,1048.4l18.3-16l1.2,9.6l-14.1,12.8c-1.9,1.6-4.7,1.2-6.1-0.7l0,0
		C550.8,1052.3,551.1,1049.8,552.8,1048.4z"/>
	<line class="st2" x1="564.7" y1="1048.5" x2="573.1" y2="1050.9"/>
</g>
<g class="st0">
	<path class="st1" d="M526.9,625.5c-18.3,7.4-34.2,19.5-48.4,42.2l12.2,7.8l19.3,12.3C522.7,667.8,526.2,646.4,526.9,625.5z"/>
	
		<rect x="472.7" y="686.9" transform="matrix(0.8438 0.5366 -0.5366 0.8438 452.7344 -146.2515)" class="st1" width="9.9" height="35.6"/>
	<line class="st1" x1="500.8" y1="667.4" x2="486.7" y2="689.5"/>
</g>
<g class="st0">
	
		<rect x="493.6" y="129.3" transform="matrix(0.9202 0.3913 -0.3913 0.9202 99.8951 -183.5796)" class="st1" width="13.4" height="48"/>
	<line class="st1" x1="538.5" y1="64.3" x2="510" y2="131.5"/>
	
		<rect x="534.2" y="22.6" transform="matrix(0.3913 -0.9202 0.9202 0.3913 275.4876 533.4923)" class="st1" width="13.8" height="71.8"/>
	<line class="st1" x1="507.5" y1="53" x2="502.8" y2="64.1"/>
	<line class="st1" x1="524.6" y1="59.5" x2="519.9" y2="70.5"/>
	<line class="st1" x1="549.9" y1="69.9" x2="545.2" y2="81"/>
</g>
<g class="st0">
	<path class="st2" d="M612,674.4c-1.8,12-1.9,21.2,0,26.8h-8.7C604.8,689.2,607.6,680.3,612,674.4z"/>
	<path class="st2" d="M623.5,681.2c-6.9,9.7-9.4,14.8-12.2,16l0.8,6.8C620.5,701.1,622.3,695.5,623.5,681.2z"/>
	<path class="st2" d="M607.7,735.1L607.7,735.1c-2.3,0-4.2-1.9-4.2-4.2v-29.7h8.4v29.7C611.9,733.2,610,735.1,607.7,735.1z"/>
	<path class="st2" d="M583.4,714.8l20.1-13.6v9.7l-15.5,11c-2,1.3-4.8,0.7-6-1.5l0,0C580.9,718.4,581.5,716,583.4,714.8z"/>
	<line class="st2" x1="595.2" y1="716.4" x2="603.2" y2="719.8"/>
</g>
<g class="st0">
	<path class="st1" d="M553.8,290.1c-17.8,8.3-33.2,21.2-46.1,44.6l12.6,7.1l19.9,11.2C551.8,332.6,554.2,311,553.8,290.1z"/>
	
		<rect x="503.8" y="354" transform="matrix(0.8708 0.4917 -0.4917 0.8708 248.5453 -202.1076)" class="st1" width="9.9" height="35.6"/>
	<line class="st1" x1="529.9" y1="333.3" x2="517.1" y2="356.1"/>
</g>
<g class="st0">
	<g>
		<rect x="596.5" y="548.8" class="st1" width="13.4" height="48"/>
		<line class="st1" x1="603.5" y1="476" x2="603.5" y2="549"/>
		
			<rect x="596.6" y="433.8" transform="matrix(6.123234e-17 -1 1 6.123234e-17 133.8235 1073.1991)" class="st1" width="13.8" height="71.8"/>
		<line class="st1" x1="570.5" y1="477.8" x2="570.5" y2="489.8"/>
		<line class="st1" x1="588.8" y1="477" x2="588.8" y2="489"/>
		<line class="st1" x1="616.1" y1="476.8" x2="616.1" y2="488.8"/>
	</g>
	<line class="st1" x1="636.9" y1="476.3" x2="636.9" y2="488.3"/>
</g>
<g class="st0">
	<path class="st2" d="M505.5,469.7c-1.8,12-1.9,21.2,0,26.8h-8.7C498.2,484.6,501.1,475.6,505.5,469.7z"/>
	<path class="st2" d="M516.9,476.5c-6.9,9.7-9.4,14.8-12.2,16l0.8,6.8C514,496.4,515.7,490.8,516.9,476.5z"/>
	<path class="st2" d="M501.2,530.4L501.2,530.4c-2.3,0-4.2-1.9-4.2-4.2v-29.7h8.4v29.7C505.4,528.6,503.5,530.4,501.2,530.4z"/>
	<path class="st2" d="M476.9,510.2l20.1-13.6v9.7l-15.5,11c-2,1.3-4.8,0.7-6-1.5l0,0C474.4,513.8,475,511.3,476.9,510.2z"/>
	<line class="st2" x1="488.6" y1="511.8" x2="496.6" y2="515.2"/>
</g>
<g class="st0">
	<path class="st2" d="M593,345.6c12.1,0.8,21.3,0.2,26.7-2.2l0.7,8.7C608.4,351.7,599.2,349.6,593,345.6z"/>
	<path class="st2" d="M598.8,333.7c10.3,6.1,15.5,8.2,16.9,10.8l6.7-1.3C618.9,335,613.2,333.7,598.8,333.7z"/>
	<path class="st2" d="M653.9,345L653.9,345c0.2,2.3-1.5,4.3-3.9,4.5l-29.6,2.4l-0.7-8.4l29.6-2.4C651.7,341,653.7,342.7,653.9,345z"
		/>
	<path class="st2" d="M635.7,370.9L620.4,352l9.7-0.8l12.2,14.6c1.5,1.9,1,4.7-1,6.1l0,0C639.5,373.1,637,372.7,635.7,370.9z"/>
	<line class="st2" x1="636.3" y1="359" x2="639" y2="350.8"/>
</g>
<g class="st0">
	<path class="st1" d="M638.2,113.9c-18.3,7.4-34.2,19.5-48.4,42.2l12.2,7.8l19.3,12.3C634,156.2,637.5,134.8,638.2,113.9z"/>
	
		<rect x="584" y="175.3" transform="matrix(0.8438 0.5366 -0.5366 0.8438 195.6048 -285.8572)" class="st1" width="9.9" height="35.6"/>
	<line class="st1" x1="612.1" y1="155.8" x2="598" y2="177.9"/>
</g>
<g class="st0">
	<path class="st1" d="M815.1,212.2c11.4-16,18.4-34.8,18.2-61.6h-14.5H796C796,174.2,804.5,194.2,815.1,212.2z"/>
	
		<rect x="809.2" y="101.1" transform="matrix(-1 -1.224647e-16 1.224647e-16 -1 1628.3538 237.8163)" class="st1" width="9.9" height="35.6"/>
	<line class="st1" x1="814.7" y1="162.8" x2="814.7" y2="136.7"/>
</g>
<g class="st0">
	<g>
		
			<rect x="730.3" y="192.2" transform="matrix(-0.9009 0.434 -0.434 -0.9009 1494.8918 91.1173)" class="st1" width="13.4" height="48"/>
		<line class="st1" x1="778.8" y1="303.6" x2="747.1" y2="237.8"/>
		
			<rect x="774.6" y="273.4" transform="matrix(0.434 0.9009 -0.9009 0.434 721.0138 -529.0069)" class="st1" width="13.8" height="71.8"/>
		<line class="st1" x1="807.7" y1="287.7" x2="802.5" y2="276.9"/>
		<line class="st1" x1="791.6" y1="296.3" x2="786.4" y2="285.5"/>
		<line class="st1" x1="767.1" y1="308.4" x2="761.9" y2="297.6"/>
	</g>
	<line class="st1" x1="748.6" y1="317.8" x2="743.4" y2="307"/>
</g>
<g class="st0">
	<path class="st2" d="M733.8,99.2c0.3-12.1-0.7-21.3-3.3-26.6l8.6-1.1C739.2,83.5,737.5,92.8,733.8,99.2z"/>
	<path class="st2" d="M721.7,93.8c5.7-10.5,7.5-15.8,10.1-17.4l-1.6-6.7C722.1,73.7,721.1,79.5,721.7,93.8z"/>
	<path class="st2" d="M730.6,38.4L730.6,38.4c2.3-0.3,4.4,1.4,4.7,3.7l3.6,29.5l-8.3,1L727,43C726.7,40.7,728.3,38.6,730.6,38.4z"/>
	<path class="st2" d="M757.3,55.5l-18.3,16l-1.2-9.6l14.1-12.8c1.9-1.6,4.7-1.2,6.1,0.7v0C759.3,51.6,759,54.1,757.3,55.5z"/>
	<line class="st2" x1="745.4" y1="55.4" x2="737" y2="53"/>
</g>
<g class="st0">
	<path class="st1" d="M783.2,478.4c18.3-7.4,34.2-19.5,48.4-42.2l-12.2-7.8l-19.3-12.3C787.4,436.1,783.9,457.5,783.2,478.4z"/>
	
		<rect x="827.5" y="381.3" transform="matrix(-0.8438 -0.5366 0.5366 -0.8438 1320.7163 1182.6761)" class="st1" width="9.9" height="35.6"/>
	<line class="st1" x1="809.3" y1="436.5" x2="823.4" y2="414.4"/>
</g>
<g class="st0">
	
		<rect x="803.1" y="926.6" transform="matrix(-0.9202 -0.3913 0.3913 -0.9202 1182.9022 2142.2878)" class="st1" width="13.4" height="48"/>
	<line class="st1" x1="771.5" y1="1039.6" x2="800.1" y2="972.4"/>
	
		<rect x="762.2" y="1009.5" transform="matrix(-0.3913 0.9202 -0.9202 -0.3913 2032.0479 746.813)" class="st1" width="13.8" height="71.8"/>
	<line class="st1" x1="802.6" y1="1050.9" x2="807.3" y2="1039.8"/>
	<line class="st1" x1="785.5" y1="1044.4" x2="790.2" y2="1033.4"/>
	<line class="st1" x1="760.2" y1="1034" x2="764.9" y2="1022.9"/>
</g>
<g class="st0">
	<path class="st2" d="M698.1,429.5c1.8-12,1.9-21.2,0-26.8h8.7C705.3,414.7,702.5,423.6,698.1,429.5z"/>
	<path class="st2" d="M686.6,422.8c6.9-9.7,9.4-14.8,12.2-16l-0.8-6.8C689.6,402.8,687.8,408.4,686.6,422.8z"/>
	<path class="st2" d="M702.4,368.8L702.4,368.8c2.3,0,4.2,1.9,4.2,4.2v29.7h-8.4V373C698.2,370.7,700.1,368.8,702.4,368.8z"/>
	<path class="st2" d="M726.7,389.1l-20.1,13.6V393l15.5-11c2-1.3,4.8-0.7,6,1.5v0C729.2,385.5,728.5,387.9,726.7,389.1z"/>
	<line class="st2" x1="714.9" y1="387.5" x2="706.9" y2="384.1"/>
</g>
<g class="st0">
	<path class="st1" d="M756.3,813.8c17.8-8.3,33.2-21.2,46.1-44.6l-12.6-7.1l-19.9-11.2C758.3,771.3,755.9,792.9,756.3,813.8z"/>
	
		<rect x="796.3" y="714.3" transform="matrix(-0.8708 -0.4917 0.4917 -0.8708 1139.132 1763.558)" class="st1" width="9.9" height="35.6"/>
	<line class="st1" x1="780.2" y1="770.6" x2="793" y2="747.8"/>
</g>
<g class="st0">
	<g>
		
			<rect x="700.2" y="507" transform="matrix(-1 -1.224647e-16 1.224647e-16 -1 1413.8635 1062.0854)" class="st1" width="13.4" height="48"/>
		<line class="st1" x1="706.6" y1="627.9" x2="706.6" y2="554.9"/>
		
			<rect x="699.7" y="598.3" transform="matrix(-1.836970e-16 1 -1 -1.836970e-16 1340.7961 -72.3666)" class="st1" width="13.8" height="71.8"/>
		<line class="st1" x1="739.6" y1="626.1" x2="739.6" y2="614.1"/>
		<line class="st1" x1="721.3" y1="626.9" x2="721.3" y2="614.9"/>
		<line class="st1" x1="694" y1="627.1" x2="694" y2="615.1"/>
	</g>
	<line class="st1" x1="673.2" y1="627.6" x2="673.2" y2="615.6"/>
</g>
<g class="st0">
	<path class="st2" d="M804.6,634.2c1.8-12,1.9-21.2,0-26.8h8.7C811.9,619.3,809,628.3,804.6,634.2z"/>
	<path class="st2" d="M793.2,627.4c6.9-9.7,9.4-14.8,12.2-16l-0.8-6.8C796.1,607.5,794.4,613.1,793.2,627.4z"/>
	<path class="st2" d="M808.9,573.5L808.9,573.5c2.3,0,4.2,1.9,4.2,4.2v29.7h-8.4v-29.7C804.7,575.4,806.6,573.5,808.9,573.5z"/>
	<path class="st2" d="M833.2,593.7l-20.1,13.6v-9.7l15.5-11c2-1.3,4.8-0.7,6,1.5h0C835.7,590.1,835.1,592.6,833.2,593.7z"/>
	<line class="st2" x1="821.5" y1="592.2" x2="813.4" y2="588.7"/>
</g>
<g class="st0">
	<path class="st2" d="M717.1,758.3c-12.1-0.8-21.3-0.2-26.7,2.2l-0.7-8.7C701.7,752.2,710.9,754.3,717.1,758.3z"/>
	<path class="st2" d="M711.3,770.2c-10.3-6.1-15.5-8.2-16.9-10.8l-6.7,1.3C691.2,768.9,696.9,770.2,711.3,770.2z"/>
	<path class="st2" d="M656.2,758.9L656.2,758.9c-0.2-2.3,1.5-4.3,3.9-4.5l29.6-2.4l0.7,8.4l-29.6,2.4
		C658.4,762.9,656.4,761.2,656.2,758.9z"/>
	<path class="st2" d="M674.4,733l15.2,18.9l-9.7,0.8l-12.2-14.6c-1.5-1.9-1-4.7,1-6.1l0,0C670.6,730.8,673.1,731.3,674.4,733z"/>
	<line class="st2" x1="673.8" y1="744.9" x2="671.1" y2="753.1"/>
</g>
<g class="st0">
	<path class="st1" d="M671.9,990c18.3-7.4,34.2-19.5,48.4-42.2l-12.2-7.8l-19.3-12.3C676.1,947.7,672.6,969.1,671.9,990z"/>
	
		<rect x="716.2" y="892.9" transform="matrix(-0.8438 -0.5366 0.5366 -0.8438 840.9911 2066.2468)" class="st1" width="9.9" height="35.6"/>
	<line class="st1" x1="698" y1="948.1" x2="712.1" y2="926"/>
</g>
<g class="st0">
	<path class="st1" d="M889.9,884.8c-11.4,16-18.4,34.8-18.2,61.6h14.5H909C909,922.7,900.5,902.8,889.9,884.8z"/>
	<rect x="885.8" y="960.2" class="st1" width="9.9" height="35.6"/>
	<line class="st1" x1="890.3" y1="934.1" x2="890.3" y2="960.3"/>
</g>
<g class="st0">
	<g>
		
			<rect x="961.3" y="856.7" transform="matrix(0.9009 -0.434 0.434 0.9009 -286.3159 507.3073)" class="st1" width="13.4" height="48"/>
		<line class="st1" x1="926.2" y1="793.3" x2="957.9" y2="859.1"/>
		
			<rect x="916.6" y="751.7" transform="matrix(-0.434 -0.9009 0.9009 -0.434 614.641 1961.4479)" class="st1" width="13.8" height="71.8"/>
		<line class="st1" x1="897.3" y1="809.3" x2="902.5" y2="820.1"/>
		<line class="st1" x1="913.4" y1="800.6" x2="918.6" y2="811.5"/>
		<line class="st1" x1="937.9" y1="788.5" x2="943.1" y2="799.3"/>
	</g>
	<line class="st1" x1="956.4" y1="779.2" x2="961.6" y2="790"/>
</g>
<g class="st0">
	<path class="st2" d="M971.2,997.8c-0.3,12.1,0.7,21.3,3.3,26.6l-8.6,1.1C965.8,1013.4,967.5,1004.2,971.2,997.8z"/>
	<path class="st2" d="M983.3,1003.1c-5.7,10.5-7.5,15.8-10.1,17.4l1.6,6.7C982.9,1023.2,983.9,1017.4,983.3,1003.1z"/>
	<path class="st2" d="M974.3,1058.6L974.3,1058.6c-2.3,0.3-4.4-1.4-4.7-3.7l-3.6-29.5l8.3-1l3.6,29.5
		C978.3,1056.2,976.7,1058.3,974.3,1058.6z"/>
	<path class="st2" d="M947.7,1041.4l18.3-16l1.2,9.6l-14.1,12.8c-1.9,1.6-4.7,1.2-6.1-0.7l0,0C945.7,1045.3,946,1042.9,947.7,1041.4
		z"/>
	<line class="st2" x1="959.6" y1="1041.6" x2="968" y2="1044"/>
</g>
<g class="st0">
	<path class="st1" d="M921.8,618.6c-18.3,7.4-34.2,19.5-48.4,42.2l12.2,7.8l19.3,12.3C917.6,660.9,921.1,639.4,921.8,618.6z"/>
	
		<rect x="867.6" y="679.9" transform="matrix(0.8438 0.5366 -0.5366 0.8438 510.6607 -359.2356)" class="st1" width="9.9" height="35.6"/>
	<line class="st1" x1="895.7" y1="660.4" x2="881.6" y2="682.5"/>
</g>
<g class="st0">
	
		<rect x="888.5" y="122.3" transform="matrix(0.9202 0.3913 -0.3913 0.9202 128.6637 -338.6758)" class="st1" width="13.4" height="48"/>
	<line class="st1" x1="933.4" y1="57.3" x2="904.9" y2="124.5"/>
	
		<rect x="929.1" y="15.6" transform="matrix(0.3913 -0.9202 0.9202 0.3913 522.2582 892.6574)" class="st1" width="13.8" height="71.8"/>
	<line class="st1" x1="902.4" y1="46.1" x2="897.7" y2="57.1"/>
	<line class="st1" x1="919.5" y1="52.5" x2="914.8" y2="63.5"/>
	<line class="st1" x1="944.8" y1="63" x2="940.1" y2="74"/>
</g>
<g class="st0">
	<path class="st2" d="M1006.9,667.4c-1.8,12-1.9,21.2,0,26.8h-8.7C999.7,682.3,1002.5,673.3,1006.9,667.4z"/>
	<path class="st2" d="M1018.4,674.2c-6.9,9.7-9.4,14.8-12.2,16l0.8,6.8C1015.4,694.1,1017.2,688.5,1018.4,674.2z"/>
	<path class="st2" d="M1002.6,728.1L1002.6,728.1c-2.3,0-4.2-1.9-4.2-4.2v-29.7h8.4v29.7C1006.8,726.3,1004.9,728.1,1002.6,728.1z"
		/>
	<path class="st2" d="M978.3,707.9l20.1-13.6v9.7l-15.5,11c-2,1.3-4.8,0.7-6-1.5v0C975.8,711.5,976.4,709.1,978.3,707.9z"/>
	<line class="st2" x1="990.1" y1="709.5" x2="998.1" y2="712.9"/>
</g>
<g class="st0">
	<path class="st1" d="M948.7,283.2c-17.8,8.3-33.2,21.2-46.1,44.6l12.6,7.1l19.9,11.2C946.7,325.6,949.1,304,948.7,283.2z"/>
	
		<rect x="898.7" y="347" transform="matrix(0.8708 0.4917 -0.4917 0.8708 296.1461 -397.164)" class="st1" width="9.9" height="35.6"/>
	<line class="st1" x1="924.8" y1="326.3" x2="912" y2="349.1"/>
</g>
<g class="st0">
	<g>
		<rect x="991.4" y="541.9" class="st1" width="13.4" height="48"/>
		<line class="st1" x1="998.4" y1="469" x2="998.4" y2="542"/>
		
			<rect x="991.5" y="426.8" transform="matrix(6.123234e-17 -1 1 6.123234e-17 535.6903 1461.1328)" class="st1" width="13.8" height="71.8"/>
		<line class="st1" x1="965.4" y1="470.8" x2="965.4" y2="482.8"/>
		<line class="st1" x1="983.7" y1="470.1" x2="983.7" y2="482"/>
		<line class="st1" x1="1011" y1="469.8" x2="1011" y2="481.8"/>
	</g>
	<line class="st1" x1="1031.8" y1="469.4" x2="1031.8" y2="481.4"/>
</g>
<g class="st0">
	<path class="st2" d="M900.4,462.7c-1.8,12-1.9,21.2,0,26.8h-8.7C893.1,477.6,896,468.6,900.4,462.7z"/>
	<path class="st2" d="M911.8,469.5c-6.9,9.7-9.4,14.8-12.2,16l0.8,6.8C908.9,489.4,910.6,483.8,911.8,469.5z"/>
	<path class="st2" d="M896.1,523.5L896.1,523.5c-2.3,0-4.2-1.9-4.2-4.2v-29.7h8.4v29.7C900.3,521.6,898.4,523.5,896.1,523.5z"/>
	<path class="st2" d="M871.8,503.2l20.1-13.6v9.7l-15.5,11c-2,1.3-4.8,0.7-6-1.5l0,0C869.3,506.8,869.9,504.4,871.8,503.2z"/>
	<line class="st2" x1="883.5" y1="504.8" x2="891.5" y2="508.2"/>
</g>
<g class="st0">
	<path class="st2" d="M987.9,338.7c12.1,0.8,21.3,0.2,26.7-2.2l0.7,8.7C1003.3,344.7,994.1,342.6,987.9,338.7z"/>
	<path class="st2" d="M993.7,326.7c10.3,6.1,15.5,8.2,16.9,10.8l6.7-1.3C1013.8,328,1008.1,326.8,993.7,326.7z"/>
	<path class="st2" d="M1048.8,338.1L1048.8,338.1c0.2,2.3-1.5,4.3-3.9,4.5l-29.6,2.4l-0.7-8.4l29.6-2.4
		C1046.6,334,1048.6,335.7,1048.8,338.1z"/>
	<path class="st2" d="M1030.6,363.9l-15.2-18.9l9.7-0.8l12.2,14.6c1.5,1.9,1,4.7-1,6.1l0,0C1034.4,366.1,1031.9,365.7,1030.6,363.9z
		"/>
	<line class="st2" x1="1031.2" y1="352.1" x2="1033.9" y2="343.8"/>
</g>
<g class="st0">
	<path class="st1" d="M1033.1,107c-18.3,7.4-34.2,19.5-48.4,42.2l12.2,7.8l19.3,12.3C1028.9,149.3,1032.4,127.8,1033.1,107z"/>
	
		<rect x="978.9" y="168.4" transform="matrix(0.8438 0.5366 -0.5366 0.8438 253.5311 -498.8414)" class="st1" width="9.9" height="35.6"/>
	<line class="st1" x1="1007" y1="148.8" x2="992.9" y2="170.9"/>
</g>
<g class="st0">
	<path class="st1" d="M1196,209c11.4-16,18.4-34.8,18.2-61.6h-14.5h-22.9C1176.9,171,1185.4,191,1196,209z"/>
	
		<rect x="1190.1" y="97.9" transform="matrix(-1 -1.224647e-16 1.224647e-16 -1 2390.1907 231.3684)" class="st1" width="9.9" height="35.6"/>
	<line class="st1" x1="1195.6" y1="159.6" x2="1195.6" y2="133.4"/>
</g>
<g class="st0">
	<g>
		
			<rect x="1112.3" y="188.9" transform="matrix(-0.9009 0.434 -0.434 -0.9009 2219.4937 -80.7495)" class="st1" width="13.4" height="48"/>
		<line class="st1" x1="1160.7" y1="300.4" x2="1129" y2="234.6"/>
		
			<rect x="1156.5" y="270.2" transform="matrix(0.434 0.9009 -0.9009 0.434 934.2895 -874.914)" class="st1" width="13.8" height="71.8"/>
		<line class="st1" x1="1189.6" y1="284.4" x2="1184.4" y2="273.6"/>
		<line class="st1" x1="1173.5" y1="293.1" x2="1168.3" y2="282.3"/>
		<line class="st1" x1="1149" y1="305.2" x2="1143.8" y2="294.4"/>
	</g>
	<line class="st1" x1="1130.5" y1="314.5" x2="1125.3" y2="303.7"/>
</g>
<g class="st0">
	<path class="st2" d="M1115.7,95.9c0.3-12.1-0.7-21.3-3.3-26.6l8.6-1.1C1121.1,80.3,1119.4,89.6,1115.7,95.9z"/>
	<path class="st2" d="M1103.6,90.6c5.7-10.5,7.5-15.8,10.1-17.4l-1.6-6.7C1104,70.5,1103,76.3,1103.6,90.6z"/>
	<path class="st2" d="M1112.6,35.1L1112.6,35.1c2.3-0.3,4.4,1.4,4.7,3.7l3.6,29.5l-8.3,1l-3.6-29.5
		C1108.6,37.5,1110.3,35.4,1112.6,35.1z"/>
	<path class="st2" d="M1139.2,52.3l-18.3,16l-1.2-9.6l14.1-12.8c1.9-1.6,4.7-1.2,6.1,0.7v0C1141.2,48.4,1140.9,50.9,1139.2,52.3z"/>
	<line class="st2" x1="1127.3" y1="52.1" x2="1118.9" y2="49.7"/>
</g>
<g class="st0">
	<path class="st1" d="M1164.1,475.2c18.3-7.4,34.2-19.5,48.4-42.2l-12.2-7.8L1181,413C1168.3,432.9,1164.8,454.3,1164.1,475.2z"/>
	
		<rect x="1208.4" y="378.1" transform="matrix(-0.8438 -0.5366 0.5366 -0.8438 2024.8021 1381.1256)" class="st1" width="9.9" height="35.6"/>
	<line class="st1" x1="1190.2" y1="433.3" x2="1204.3" y2="411.2"/>
</g>
<g class="st0">
	
		<rect x="1185" y="923.4" transform="matrix(-0.9202 -0.3913 0.3913 -0.9202 1917.5415 2285.5571)" class="st1" width="13.4" height="48"/>
	<line class="st1" x1="1153.5" y1="1036.4" x2="1182" y2="969.2"/>
	
		<rect x="1144.1" y="1006.3" transform="matrix(-0.3913 0.9202 -0.9202 -0.3913 2560.46 390.8684)" class="st1" width="13.8" height="71.8"/>
	<line class="st1" x1="1184.5" y1="1047.6" x2="1189.2" y2="1036.6"/>
	<line class="st1" x1="1167.4" y1="1041.2" x2="1172.1" y2="1030.2"/>
	<line class="st1" x1="1142.1" y1="1030.7" x2="1146.8" y2="1019.7"/>
</g>
<g class="st0">
	<path class="st2" d="M1080,426.3c1.8-12,1.9-21.2,0-26.8h8.7C1087.3,411.4,1084.4,420.4,1080,426.3z"/>
	<path class="st2" d="M1068.6,419.5c6.9-9.7,9.4-14.8,12.2-16l-0.8-6.8C1071.5,399.6,1069.7,405.2,1068.6,419.5z"/>
	<path class="st2" d="M1084.3,365.6L1084.3,365.6c2.3,0,4.2,1.9,4.2,4.2v29.7h-8.4v-29.7C1080.1,367.5,1082,365.6,1084.3,365.6z"/>
	<path class="st2" d="M1108.6,385.8l-20.1,13.6v-9.7l15.5-11c2-1.3,4.8-0.7,6,1.5l0,0C1111.1,382.2,1110.5,384.7,1108.6,385.8z"/>
	<line class="st2" x1="1096.8" y1="384.3" x2="1088.8" y2="380.8"/>
</g>
<g class="st0">
	<path class="st1" d="M1138.2,810.6c17.8-8.3,33.2-21.2,46.1-44.6l-12.6-7.1l-19.9-11.2C1140.2,768.1,1137.8,789.7,1138.2,810.6z"/>
	
		<rect x="1178.3" y="711" transform="matrix(-0.8708 -0.4917 0.4917 -0.8708 1855.2057 1945.3002)" class="st1" width="9.9" height="35.6"/>
	<line class="st1" x1="1162.1" y1="767.4" x2="1174.9" y2="744.6"/>
</g>
<g class="st0">
	<g>
		
			<rect x="1082.2" y="503.8" transform="matrix(-1 -1.224647e-16 1.224647e-16 -1 2177.7007 1055.6376)" class="st1" width="13.4" height="48"/>
		<line class="st1" x1="1088.5" y1="624.7" x2="1088.5" y2="551.7"/>
		
			<rect x="1081.6" y="595.1" transform="matrix(-1.836970e-16 1 -1 -1.836970e-16 1719.4907 -457.5091)" class="st1" width="13.8" height="71.8"/>
		<line class="st1" x1="1121.5" y1="622.9" x2="1121.5" y2="610.9"/>
		<line class="st1" x1="1103.3" y1="623.7" x2="1103.3" y2="611.7"/>
		<line class="st1" x1="1075.9" y1="623.9" x2="1075.9" y2="611.9"/>
	</g>
	<line class="st1" x1="1055.2" y1="624.3" x2="1055.2" y2="612.3"/>
</g>
<g class="st0">
	<path class="st2" d="M1185.5,631c1.8-12,1.9-21.2,0-26.8h8.7C1192.8,616.1,1189.9,625.1,1185.5,631z"/>
	<path class="st2" d="M1174.1,624.2c6.9-9.7,9.4-14.8,12.2-16l-0.8-6.8C1177,604.3,1175.3,609.9,1174.1,624.2z"/>
	<path class="st2" d="M1189.8,570.2L1189.8,570.2c2.3,0,4.2,1.9,4.2,4.2v29.7h-8.4v-29.7C1185.6,572.1,1187.5,570.2,1189.8,570.2z"
		/>
	<path class="st2" d="M1214.2,590.5l-20.1,13.6v-9.7l15.5-11c2-1.3,4.8-0.7,6,1.5l0,0C1216.6,586.9,1216,589.3,1214.2,590.5z"/>
	<line class="st2" x1="1202.4" y1="588.9" x2="1194.4" y2="585.5"/>
</g>
<g class="st0">
	<path class="st2" d="M1099,755c-12.1-0.8-21.3-0.2-26.7,2.2l-0.7-8.7C1083.6,749,1092.8,751.1,1099,755z"/>
	<path class="st2" d="M1093.2,767c-10.3-6.1-15.5-8.2-16.9-10.8l-6.7,1.3C1073.1,765.7,1078.8,767,1093.2,767z"/>
	<path class="st2" d="M1038.1,755.7L1038.1,755.7c-0.2-2.3,1.5-4.3,3.9-4.5l29.6-2.4l0.7,8.4l-29.6,2.4
		C1040.3,759.7,1038.3,758,1038.1,755.7z"/>
	<path class="st2" d="M1056.4,729.8l15.2,18.9l-9.7,0.8l-12.2-14.6c-1.5-1.9-1-4.7,1-6.1l0,0C1052.6,727.6,1055,728,1056.4,729.8z"
		/>
	<line class="st2" x1="1055.7" y1="741.6" x2="1053" y2="749.9"/>
</g>
<g class="st0">
	<path class="st1" d="M1053.8,986.7c18.3-7.4,34.2-19.5,48.4-42.2l-12.2-7.8l-19.3-12.3C1058,944.4,1054.5,965.9,1053.8,986.7z"/>
	
		<rect x="1098.1" y="889.7" transform="matrix(-0.8438 -0.5366 0.5366 -0.8438 1546.9209 2265.2329)" class="st1" width="9.9" height="35.6"/>
	<line class="st1" x1="1079.9" y1="944.9" x2="1094" y2="922.8"/>
</g>
<g class="st0">
	<path class="st1" d="M1304.5,881.9c-11.4,16-18.4,34.8-18.2,61.6h14.5h22.9C1323.7,919.9,1315.1,899.9,1304.5,881.9z"/>
	<rect x="1300.5" y="957.4" class="st1" width="9.9" height="35.6"/>
	<line class="st1" x1="1305" y1="931.3" x2="1305" y2="957.4"/>
</g>
<g class="st0">
	<g>
		
			<rect x="1375.9" y="853.9" transform="matrix(0.9009 -0.434 0.434 0.9009 -244.008 686.9777)" class="st1" width="13.4" height="48"/>
		<line class="st1" x1="1340.9" y1="790.5" x2="1372.6" y2="856.3"/>
		
			<rect x="1331.3" y="748.9" transform="matrix(-0.434 -0.9009 0.9009 -0.434 1211.8076 2330.981)" class="st1" width="13.8" height="71.8"/>
		<line class="st1" x1="1311.9" y1="806.4" x2="1317.1" y2="817.2"/>
		<line class="st1" x1="1328.1" y1="797.8" x2="1333.3" y2="808.6"/>
		<line class="st1" x1="1352.6" y1="785.7" x2="1357.8" y2="796.5"/>
	</g>
	<line class="st1" x1="1371.1" y1="776.3" x2="1376.3" y2="787.1"/>
</g>
<g class="st0">
	<path class="st2" d="M1385.8,994.9c-0.3,12.1,0.7,21.3,3.3,26.6l-8.6,1.1C1380.4,1010.6,1382.2,1001.3,1385.8,994.9z"/>
	<path class="st2" d="M1398,1000.3c-5.7,10.5-7.5,15.8-10.1,17.4l1.6,6.7C1397.6,1020.4,1398.6,1014.6,1398,1000.3z"/>
	<path class="st2" d="M1389,1055.8L1389,1055.8c-2.3,0.3-4.4-1.4-4.7-3.7l-3.6-29.5l8.3-1l3.6,29.5
		C1393,1053.4,1391.3,1055.5,1389,1055.8z"/>
	<path class="st2" d="M1362.4,1038.6l18.3-16l1.2,9.6l-14.1,12.8c-1.9,1.6-4.7,1.2-6.1-0.7l0,0
		C1360.4,1042.5,1360.7,1040,1362.4,1038.6z"/>
	<line class="st2" x1="1374.3" y1="1038.7" x2="1382.7" y2="1041.2"/>
</g>
<g class="st0">
	<path class="st1" d="M1336.5,615.7c-18.3,7.4-34.2,19.5-48.4,42.2l12.2,7.8l19.3,12.3C1332.2,658,1335.8,636.6,1336.5,615.7z"/>
	
		<rect x="1282.2" y="677.1" transform="matrix(0.8438 0.5366 -0.5366 0.8438 573.8947 -582.1808)" class="st1" width="9.9" height="35.6"/>
	<line class="st1" x1="1310.3" y1="657.6" x2="1296.3" y2="679.7"/>
</g>
<g class="st0">
	
		<rect x="1303.2" y="119.5" transform="matrix(0.9202 0.3913 -0.3913 0.9202 160.6287 -501.1779)" class="st1" width="13.4" height="48"/>
	<line class="st1" x1="1348.1" y1="54.5" x2="1319.5" y2="121.7"/>
	
		<rect x="1343.7" y="12.8" transform="matrix(0.3913 -0.9202 0.9202 0.3913 777.2523 1272.5334)" class="st1" width="13.8" height="71.8"/>
	<line class="st1" x1="1317.1" y1="43.2" x2="1312.4" y2="54.3"/>
	<line class="st1" x1="1334.2" y1="49.7" x2="1329.5" y2="60.7"/>
	<line class="st1" x1="1359.5" y1="60.1" x2="1354.8" y2="71.2"/>
</g>
<g class="st0">
	<path class="st2" d="M1421.6,664.6c-1.8,12-1.9,21.2,0,26.8h-8.7C1414.3,679.5,1417.2,670.5,1421.6,664.6z"/>
	<path class="st2" d="M1433,671.4c-6.9,9.7-9.4,14.8-12.2,16l0.8,6.8C1430.1,691.3,1431.8,685.7,1433,671.4z"/>
	<path class="st2" d="M1417.3,725.3L1417.3,725.3c-2.3,0-4.2-1.9-4.2-4.2v-29.7h8.4v29.7C1421.5,723.4,1419.6,725.3,1417.3,725.3z"
		/>
	<path class="st2" d="M1393,705l20.1-13.6v9.7l-15.5,11c-2,1.3-4.8,0.7-6-1.5l0,0C1390.5,708.7,1391.1,706.2,1393,705z"/>
	<line class="st2" x1="1404.7" y1="706.6" x2="1412.8" y2="710"/>
</g>
<g class="st0">
	<path class="st1" d="M1363.4,280.3c-17.8,8.3-33.2,21.2-46.1,44.6l12.6,7.1l19.9,11.2C1361.4,322.8,1363.8,301.2,1363.4,280.3z"/>
	
		<rect x="1313.4" y="344.2" transform="matrix(0.8708 0.4917 -0.4917 0.8708 348.336 -601.4048)" class="st1" width="9.9" height="35.6"/>
	<line class="st1" x1="1339.5" y1="323.5" x2="1326.6" y2="346.3"/>
</g>
<g class="st0">
	<g>
		<rect x="1406" y="539" class="st1" width="13.4" height="48"/>
		<line class="st1" x1="1413" y1="466.2" x2="1413" y2="539.2"/>
		
			<rect x="1406.2" y="424" transform="matrix(6.123234e-17 -1 1 6.123234e-17 953.1865 1872.9738)" class="st1" width="13.8" height="71.8"/>
		<line class="st1" x1="1380.1" y1="468" x2="1380.1" y2="480"/>
		<line class="st1" x1="1398.3" y1="467.2" x2="1398.3" y2="479.2"/>
		<line class="st1" x1="1425.7" y1="467" x2="1425.7" y2="479"/>
	</g>
	<line class="st1" x1="1446.4" y1="466.6" x2="1446.4" y2="478.5"/>
</g>
<g class="st0">
	<path class="st2" d="M1315,459.9c-1.8,12-1.9,21.2,0,26.8h-8.7C1307.8,474.8,1310.6,465.8,1315,459.9z"/>
	<path class="st2" d="M1326.5,466.7c-6.9,9.7-9.4,14.8-12.2,16l0.8,6.8C1323.6,486.6,1325.3,481,1326.5,466.7z"/>
	<path class="st2" d="M1310.7,520.6L1310.7,520.6c-2.3,0-4.2-1.9-4.2-4.2v-29.7h8.4v29.7C1314.9,518.8,1313.1,520.6,1310.7,520.6z"
		/>
	<path class="st2" d="M1286.4,500.4l20.1-13.6v9.7l-15.5,11c-2,1.3-4.8,0.7-6-1.5l0,0C1284,504,1284.6,501.6,1286.4,500.4z"/>
	<line class="st2" x1="1298.2" y1="502" x2="1306.2" y2="505.4"/>
</g>
<g class="st0">
	<path class="st2" d="M1402.6,335.9c12.1,0.8,21.3,0.2,26.7-2.2l0.7,8.7C1418,341.9,1408.8,339.8,1402.6,335.9z"/>
	<path class="st2" d="M1408.4,323.9c10.3,6.1,15.5,8.2,16.9,10.8l6.7-1.3C1428.5,325.2,1422.8,323.9,1408.4,323.9z"/>
	<path class="st2" d="M1463.5,335.2L1463.5,335.2c0.2,2.3-1.5,4.3-3.9,4.5l-29.6,2.4l-0.7-8.4l29.6-2.4
		C1461.2,331.2,1463.3,332.9,1463.5,335.2z"/>
	<path class="st2" d="M1445.2,361.1l-15.2-18.9l9.7-0.8l12.2,14.6c1.5,1.9,1,4.7-1,6.1l0,0C1449,363.3,1446.6,362.9,1445.2,361.1z"
		/>
	<line class="st2" x1="1445.9" y1="349.2" x2="1448.6" y2="341"/>
</g>
<g class="st0">
	<path class="st1" d="M1447.8,104.1c-18.3,7.4-34.2,19.5-48.4,42.2l12.2,7.8l19.3,12.3C1443.5,146.4,1447.1,125,1447.8,104.1z"/>
	
		<rect x="1393.5" y="165.5" transform="matrix(0.8438 0.5366 -0.5366 0.8438 316.765 -721.7866)" class="st1" width="9.9" height="35.6"/>
	<line class="st1" x1="1421.6" y1="146" x2="1407.6" y2="168.1"/>
</g>
<g class="st0">
	<path class="st1" d="M1622.4,209c11.4-16,18.4-34.8,18.2-61.6h-14.5h-22.9C1603.3,171,1611.8,191,1622.4,209z"/>
	
		<rect x="1616.5" y="97.9" transform="matrix(-1 -1.224647e-16 1.224647e-16 -1 3242.9795 231.3684)" class="st1" width="9.9" height="35.6"/>
	<line class="st1" x1="1622" y1="159.6" x2="1622" y2="133.4"/>
</g>
<g class="st0">
	<g>
		
			<rect x="1537.7" y="188.9" transform="matrix(-0.9009 0.434 -0.434 -0.9009 3028.1387 -265.3546)" class="st1" width="13.4" height="48"/>
		<line class="st1" x1="1586.1" y1="300.4" x2="1554.4" y2="234.6"/>
		
			<rect x="1581.9" y="270.2" transform="matrix(0.434 0.9009 -0.9009 0.434 1175.0786 -1258.1649)" class="st1" width="13.8" height="71.8"/>
		<line class="st1" x1="1615" y1="284.4" x2="1609.8" y2="273.6"/>
		<line class="st1" x1="1598.9" y1="293.1" x2="1593.7" y2="282.3"/>
		<line class="st1" x1="1574.4" y1="305.2" x2="1569.2" y2="294.4"/>
	</g>
	<line class="st1" x1="1555.9" y1="314.5" x2="1550.7" y2="303.7"/>
</g>
<g class="st0">
	<path class="st2" d="M1541.1,95.9c0.3-12.1-0.7-21.3-3.3-26.6l8.6-1.1C1546.5,80.3,1544.8,89.6,1541.1,95.9z"/>
	<path class="st2" d="M1529,90.6c5.7-10.5,7.5-15.8,10.1-17.4l-1.6-6.7C1529.4,70.5,1528.4,76.3,1529,90.6z"/>
	<path class="st2" d="M1538,35.1L1538,35.1c2.3-0.3,4.4,1.4,4.7,3.7l3.6,29.5l-8.3,1l-3.6-29.5C1534,37.5,1535.7,35.4,1538,35.1z"/>
	<path class="st2" d="M1564.6,52.3l-18.3,16l-1.2-9.6l14.1-12.8c1.9-1.6,4.7-1.2,6.1,0.7v0C1566.6,48.4,1566.3,50.9,1564.6,52.3z"/>
	<line class="st2" x1="1552.7" y1="52.1" x2="1544.3" y2="49.7"/>
</g>
<g class="st0">
	<path class="st1" d="M1590.5,475.2c18.3-7.4,34.2-19.5,48.4-42.2l-12.2-7.8l-19.3-12.3C1594.7,432.9,1591.2,454.3,1590.5,475.2z"/>
	
		<rect x="1634.8" y="378.1" transform="matrix(-0.8438 -0.5366 0.5366 -0.8438 2811.0085 1609.921)" class="st1" width="9.9" height="35.6"/>
	<line class="st1" x1="1616.6" y1="433.3" x2="1630.7" y2="411.2"/>
</g>
<g class="st0">
	
		<rect x="1610.4" y="923.4" transform="matrix(-0.9202 -0.3913 0.3913 -0.9202 2734.4031 2452.0312)" class="st1" width="13.4" height="48"/>
	<line class="st1" x1="1578.9" y1="1036.4" x2="1607.4" y2="969.2"/>
	
		<rect x="1569.5" y="1006.3" transform="matrix(-0.3913 0.9202 -0.9202 -0.3913 3152.3281 -0.599)" class="st1" width="13.8" height="71.8"/>
	<line class="st1" x1="1609.9" y1="1047.6" x2="1614.6" y2="1036.6"/>
	<line class="st1" x1="1592.8" y1="1041.2" x2="1597.5" y2="1030.2"/>
	<line class="st1" x1="1567.5" y1="1030.7" x2="1572.2" y2="1019.7"/>
</g>
<g class="st0">
	<path class="st2" d="M1505.4,426.3c1.8-12,1.9-21.2,0-26.8h8.7C1512.7,411.4,1509.8,420.4,1505.4,426.3z"/>
	<path class="st2" d="M1494,419.5c6.9-9.7,9.4-14.8,12.2-16l-0.8-6.8C1496.9,399.6,1495.1,405.2,1494,419.5z"/>
	<path class="st2" d="M1509.7,365.6L1509.7,365.6c2.3,0,4.2,1.9,4.2,4.2v29.7h-8.4v-29.7C1505.5,367.5,1507.4,365.6,1509.7,365.6z"
		/>
	<path class="st2" d="M1534,385.8l-20.1,13.6v-9.7l15.5-11c2-1.3,4.8-0.7,6,1.5l0,0C1536.5,382.2,1535.9,384.7,1534,385.8z"/>
	<line class="st2" x1="1522.2" y1="384.3" x2="1514.2" y2="380.8"/>
</g>
<g class="st0">
	<path class="st1" d="M1563.6,810.6c17.8-8.3,33.2-21.2,46.1-44.6l-12.6-7.1l-19.9-11.2C1565.6,768.1,1563.2,789.7,1563.6,810.6z"/>
	
		<rect x="1603.6" y="711" transform="matrix(-0.8708 -0.4917 0.4917 -0.8708 2651.0281 2154.449)" class="st1" width="9.9" height="35.6"/>
	<line class="st1" x1="1587.5" y1="767.4" x2="1600.3" y2="744.6"/>
</g>
<g class="st0">
	<g>
		
			<rect x="1507.5" y="503.8" transform="matrix(-1 -1.224647e-16 1.224647e-16 -1 3028.4893 1055.6376)" class="st1" width="13.4" height="48"/>
		<line class="st1" x1="1513.9" y1="624.7" x2="1513.9" y2="551.7"/>
		
			<rect x="1507" y="595.1" transform="matrix(-1.836970e-16 1 -1 -1.836970e-16 2144.885 -882.9034)" class="st1" width="13.8" height="71.8"/>
		<line class="st1" x1="1546.9" y1="622.9" x2="1546.9" y2="610.9"/>
		<line class="st1" x1="1528.6" y1="623.7" x2="1528.6" y2="611.7"/>
		<line class="st1" x1="1501.3" y1="623.9" x2="1501.3" y2="611.9"/>
	</g>
	<line class="st1" x1="1480.5" y1="624.3" x2="1480.5" y2="612.3"/>
</g>
<g class="st0">
	<path class="st2" d="M1611.9,631c1.8-12,1.9-21.2,0-26.8h8.7C1619.2,616.1,1616.3,625.1,1611.9,631z"/>
	<path class="st2" d="M1600.5,624.2c6.9-9.7,9.4-14.8,12.2-16l-0.8-6.8C1603.4,604.3,1601.7,609.9,1600.5,624.2z"/>
	<path class="st2" d="M1616.2,570.2L1616.2,570.2c2.3,0,4.2,1.9,4.2,4.2v29.7h-8.4v-29.7C1612,572.1,1613.9,570.2,1616.2,570.2z"/>
	<path class="st2" d="M1640.6,590.5l-20.1,13.6v-9.7l15.5-11c2-1.3,4.8-0.7,6,1.5l0,0C1643,586.9,1642.4,589.3,1640.6,590.5z"/>
	<line class="st2" x1="1628.8" y1="588.9" x2="1620.8" y2="585.5"/>
</g>
<g class="st0">
	<path class="st2" d="M1524.4,755c-12.1-0.8-21.3-0.2-26.7,2.2l-0.7-8.7C1509,749,1518.2,751.1,1524.4,755z"/>
	<path class="st2" d="M1518.6,767c-10.3-6.1-15.5-8.2-16.9-10.8l-6.7,1.3C1498.5,765.7,1504.2,767,1518.6,767z"/>
	<path class="st2" d="M1463.5,755.7L1463.5,755.7c-0.2-2.3,1.5-4.3,3.9-4.5l29.6-2.4l0.7,8.4l-29.6,2.4
		C1465.7,759.7,1463.7,758,1463.5,755.7z"/>
	<path class="st2" d="M1481.8,729.8l15.2,18.9l-9.7,0.8l-12.2-14.6c-1.5-1.9-1-4.7,1-6.1l0,0C1477.9,727.6,1480.4,728,1481.8,729.8z
		"/>
	<line class="st2" x1="1481.1" y1="741.6" x2="1478.4" y2="749.9"/>
</g>
<g class="st0">
	<path class="st1" d="M1479.2,986.7c18.3-7.4,34.2-19.5,48.4-42.2l-12.2-7.8l-19.3-12.3C1483.4,944.4,1479.9,965.9,1479.2,986.7z"/>
	
		<rect x="1523.5" y="889.7" transform="matrix(-0.8438 -0.5366 0.5366 -0.8438 2331.2834 2493.4917)" class="st1" width="9.9" height="35.6"/>
	<line class="st1" x1="1505.3" y1="944.9" x2="1519.4" y2="922.8"/>
</g>
<g class="st0">
	<path class="st1" d="M1718.4,873.3c-11.4,16-18.4,34.8-18.2,61.6h14.5h22.9C1737.5,911.3,1729,891.3,1718.4,873.3z"/>
	<rect x="1714.3" y="948.8" class="st1" width="9.9" height="35.6"/>
	<line class="st1" x1="1718.8" y1="922.7" x2="1718.8" y2="948.8"/>
</g>
<g class="st0">
	<g>
		
			<rect x="1789.7" y="845.3" transform="matrix(0.9009 -0.434 0.434 0.9009 -199.2761 865.7049)" class="st1" width="13.4" height="48"/>
		<line class="st1" x1="1754.7" y1="781.9" x2="1786.4" y2="847.7"/>
		
			<rect x="1745.1" y="740.3" transform="matrix(-0.434 -0.9009 0.9009 -0.434 1812.9576 2691.4556)" class="st1" width="13.8" height="71.8"/>
		<line class="st1" x1="1725.8" y1="797.8" x2="1731" y2="808.6"/>
		<line class="st1" x1="1741.9" y1="789.2" x2="1747.1" y2="800"/>
		<line class="st1" x1="1766.4" y1="777.1" x2="1771.6" y2="787.9"/>
	</g>
	<line class="st1" x1="1784.9" y1="767.7" x2="1790.1" y2="778.5"/>
</g>
<g class="st0">
	<path class="st2" d="M1799.6,986.3c-0.3,12.1,0.7,21.3,3.3,26.6l-8.6,1.1C1794.3,1002,1796,992.7,1799.6,986.3z"/>
	<path class="st2" d="M1811.8,991.7c-5.7,10.5-7.5,15.8-10.1,17.4l1.6,6.7C1811.4,1011.8,1812.4,1006,1811.8,991.7z"/>
	<path class="st2" d="M1802.8,1047.1L1802.8,1047.1c-2.3,0.3-4.4-1.4-4.7-3.7l-3.6-29.5l8.3-1l3.6,29.5
		C1806.8,1044.8,1805.1,1046.9,1802.8,1047.1z"/>
	<path class="st2" d="M1776.2,1030l18.3-16l1.2,9.6l-14.1,12.8c-1.9,1.6-4.7,1.2-6.1-0.7l0,0
		C1774.2,1033.9,1774.5,1031.4,1776.2,1030z"/>
	<line class="st2" x1="1788.1" y1="1030.1" x2="1796.5" y2="1032.5"/>
</g>
<g class="st0">
	<path class="st1" d="M1750.3,607.1c-18.3,7.4-34.2,19.5-48.4,42.2l12.2,7.8l19.3,12.3C1746,649.4,1749.6,628,1750.3,607.1z"/>
	
		<rect x="1696.1" y="668.5" transform="matrix(0.8438 0.5366 -0.5366 0.8438 633.8935 -805.5704)" class="st1" width="9.9" height="35.6"/>
	<line class="st1" x1="1724.2" y1="649" x2="1710.1" y2="671.1"/>
</g>
<g class="st0">
	
		<rect x="1717" y="110.9" transform="matrix(0.9202 0.3913 -0.3913 0.9202 190.2633 -663.8069)" class="st1" width="13.4" height="48"/>
	<line class="st1" x1="1761.9" y1="45.9" x2="1733.4" y2="113.1"/>
	
		<rect x="1757.6" y="4.2" transform="matrix(0.3913 -0.9202 0.9202 0.3913 1037.0461 1648.1051)" class="st1" width="13.8" height="71.8"/>
	<line class="st1" x1="1730.9" y1="34.6" x2="1726.2" y2="45.7"/>
	<line class="st1" x1="1748" y1="41.1" x2="1743.3" y2="52.1"/>
	<line class="st1" x1="1773.3" y1="51.5" x2="1768.6" y2="62.6"/>
</g>
<g class="st0">
	<path class="st2" d="M1835.4,656c-1.8,12-1.9,21.2,0,26.8h-8.7C1828.1,670.8,1831,661.9,1835.4,656z"/>
	<path class="st2" d="M1846.8,662.7c-6.9,9.7-9.4,14.8-12.2,16l0.8,6.8C1843.9,682.7,1845.7,677.1,1846.8,662.7z"/>
	<path class="st2" d="M1831.1,716.7L1831.1,716.7c-2.3,0-4.2-1.9-4.2-4.2v-29.7h8.4v29.7C1835.3,714.8,1833.4,716.7,1831.1,716.7z"
		/>
	<path class="st2" d="M1806.8,696.4l20.1-13.6v9.7l-15.5,11c-2,1.3-4.8,0.7-6-1.5l0,0C1804.3,700,1804.9,697.6,1806.8,696.4z"/>
	<line class="st2" x1="1818.5" y1="698" x2="1826.6" y2="701.4"/>
</g>
<g class="st0">
	<path class="st1" d="M1777.2,271.7c-17.8,8.3-33.2,21.2-46.1,44.6l12.6,7.1l19.9,11.2C1775.2,314.2,1777.6,292.6,1777.2,271.7z"/>
	
		<rect x="1727.2" y="335.6" transform="matrix(0.8708 0.4917 -0.4917 0.8708 397.5735 -805.9727)" class="st1" width="9.9" height="35.6"/>
	<line class="st1" x1="1753.3" y1="314.9" x2="1740.5" y2="337.7"/>
</g>
<g class="st0">
	<g>
		<rect x="1819.8" y="530.4" class="st1" width="13.4" height="48"/>
		<line class="st1" x1="1826.9" y1="457.6" x2="1826.9" y2="530.6"/>
		
			<rect x="1820" y="415.4" transform="matrix(6.123234e-17 -1 1 6.123234e-17 1375.6094 2278.1802)" class="st1" width="13.8" height="71.8"/>
		<line class="st1" x1="1793.9" y1="459.4" x2="1793.9" y2="471.4"/>
		<line class="st1" x1="1812.1" y1="458.6" x2="1812.1" y2="470.6"/>
		<line class="st1" x1="1839.5" y1="458.4" x2="1839.5" y2="470.4"/>
	</g>
	<line class="st1" x1="1860.2" y1="457.9" x2="1860.2" y2="469.9"/>
</g>
<g class="st0">
	<path class="st2" d="M1728.9,451.3c-1.8,12-1.9,21.2,0,26.8h-8.7C1721.6,466.2,1724.5,457.2,1728.9,451.3z"/>
	<path class="st2" d="M1740.3,458.1c-6.9,9.7-9.4,14.8-12.2,16l0.8,6.8C1737.4,478,1739.1,472.4,1740.3,458.1z"/>
	<path class="st2" d="M1724.6,512L1724.6,512c-2.3,0-4.2-1.9-4.2-4.2v-29.7h8.4v29.7C1728.8,510.1,1726.9,512,1724.6,512z"/>
	<path class="st2" d="M1700.2,491.8l20.1-13.6v9.7l-15.5,11c-2,1.3-4.8,0.7-6-1.5l0,0C1697.8,495.4,1698.4,492.9,1700.2,491.8z"/>
	<line class="st2" x1="1712" y1="493.3" x2="1720" y2="496.8"/>
</g>
<g class="st0">
	<path class="st2" d="M1816.4,327.2c12.1,0.8,21.3,0.2,26.7-2.2l0.7,8.7C1831.8,333.3,1822.6,331.2,1816.4,327.2z"/>
	<path class="st2" d="M1822.2,315.3c10.3,6.1,15.5,8.2,16.9,10.8l6.7-1.3C1842.3,316.6,1836.6,315.3,1822.2,315.3z"/>
	<path class="st2" d="M1877.3,326.6L1877.3,326.6c0.2,2.3-1.5,4.3-3.9,4.5l-29.6,2.4l-0.7-8.4l29.6-2.4
		C1875.1,322.6,1877.1,324.3,1877.3,326.6z"/>
	<path class="st2" d="M1859,352.5l-15.2-18.9l9.7-0.8l12.2,14.6c1.5,1.9,1,4.7-1,6.1v0C1862.8,354.7,1860.4,354.2,1859,352.5z"/>
	<line class="st2" x1="1859.7" y1="340.6" x2="1862.4" y2="332.4"/>
</g>
<g class="st0">
	<path class="st1" d="M1861.6,95.5c-18.3,7.4-34.2,19.5-48.4,42.2l12.2,7.8l19.3,12.3C1857.3,137.8,1860.9,116.4,1861.6,95.5z"/>
	
		<rect x="1807.4" y="156.9" transform="matrix(0.8438 0.5366 -0.5366 0.8438 376.7639 -945.1761)" class="st1" width="9.9" height="35.6"/>
	<line class="st1" x1="1835.5" y1="137.4" x2="1821.4" y2="159.5"/>
</g>
</svg>
