<?xml version="1.0" encoding="utf-8"?>
<!-- Generator: Adobe Illustrator 26.1.0, SVG Export Plug-In . SVG Version: 6.00 Build 0)  -->
<svg version="1.1" id="Calque_1" xmlns="http://www.w3.org/2000/svg" xmlns:xlink="http://www.w3.org/1999/xlink" x="0px" y="0px"
	 viewBox="0 0 251.3 368.9" style="enable-background:new 0 0 251.3 368.9;" xml:space="preserve">
<style type="text/css">
	.st0{fill:#336233;stroke:#1D1D1B;stroke-width:0.9;stroke-miterlimit:10;}
	.st1{fill:#943750;stroke:#1D1D1B;stroke-width:1.2;stroke-miterlimit:10;}
	.st2{opacity:0.37;fill:#F2F5F2;enable-background:new    ;}
	.st3{fill:#7B3B52;}
	.st4{fill:none;stroke:#1D1D1B;stroke-width:1.63;stroke-miterlimit:10;}
	.st5{fill:#C3905A;stroke:#1D1D1B;stroke-width:0.85;stroke-miterlimit:10;}
	.st6{fill:#EBBE8F;}
	.st7{fill:#8B4422;}
</style>
<g id="a">
</g>
<g>
	<g>
		<path class="st0" d="M187.9,18.3c0,0,0.6-13.5-1.5-16.8l7.8-1l1.1,18"/>
		<path class="st1" d="M164.3,225.5c0,0,1.6-9.2,8.9-20.3c1.3-1.9,6.7-8,8.9-14.5c1.7-5.2,4-12.5,4.1-17.8c0.2-8.1,7.6-16.5,9.6-27
			c1.6-8.5-0.8-14.7,0.5-24.1c1.1-8.6,3.4-11.8,4.2-20.7c0.7-7.8-2.5-16.3-2.1-23.8c0.5-9,4.5-14.3,4.5-22.4
			c0.1-8.9-2.6-12.8-3-19.7c-2.2-16.7-5.4-19.3-10.9-18.4c-5.5,7.7-7.7,14.5-7.6,20.6c-0.2,7.2,0.2,19.8-0.8,29.6
			c-1.7,16.2-4.1,22.8-7.1,41.3c-2.7,16.6-3.5,39-10.3,54.5c-8.2,18.6-6.6,36.1-8,39.6C151.2,212.6,158.4,218.9,164.3,225.5
			L164.3,225.5z"/>
		<path class="st2" d="M197.2,66.2c5.2-4.8,5.7-9.9,3.7-17.9L197.2,66.2z"/>
		<path class="st2" d="M198.6,92.9c1.9,6.5,0.2,17.2-5,23.3L198.6,92.9z"/>
		<path class="st2" d="M194.9,136.9c0.1,5-1.1,16.2-6.1,21.2C191.8,152.5,193.6,141.2,194.9,136.9z"/>
		<path class="st2" d="M173.6,197.3c5.1-2,10-10.7,10.5-21.2C182,182,178.3,192.2,173.6,197.3z"/>
		<path class="st2" d="M189.6,18.2c3.8-0.9,5.9,1.9,6.1,4.2L189.6,18.2z"/>
		<path class="st3" d="M183.7,69.4c-2.7,5.2-3.3,9.8-2.6,13.9C185.7,78.9,187.2,74.1,183.7,69.4z"/>
		<path class="st3" d="M176.5,111.7c-2.1,7.6-3.2,15.4-3.6,23.3C179.1,127,179.7,119.2,176.5,111.7z"/>
		<path class="st3" d="M160.8,188.5c4.3,8.2,1.8,14-3.9,18.6C155.2,207.7,157.3,199.6,160.8,188.5z"/>
		<path class="st3" d="M186.4,25c-2,4.4-2.5,9.1-2.3,13.9C189.7,34.9,188.6,28.8,186.4,25z"/>
	</g>
	<g>
		<path class="st0" d="M222.6,26.7c0,0,5.5-12.3,4.7-16.2l7.6,1.9l-5.6,17.2"/>
		<path class="st1" d="M125.3,211.2c0,0,4.8-8,15.7-15.6c1.9-1.3,9.2-5,13.6-10.3c3.5-4.2,8.3-10.2,10.3-15.1
			c3.1-7.5,13-12.6,18.7-21.6c4.6-7.3,4.6-14,9.2-22.3c4.2-7.6,7.5-9.7,11.5-17.7c3.5-7,3.6-16.1,6.8-23c3.8-8.2,9.4-11.7,12.4-19.2
			c3.3-8.2,2.3-12.8,4.3-19.5c4-16.4,2-20-3.5-21c-7.9,5.2-12.4,10.7-14.6,16.5c-2.8,6.7-7,18.5-11.6,27.3
			c-7.5,14.5-12.1,19.7-21.6,35.9c-8.5,14.5-17.4,35.1-29.4,47c-14.4,14.4-19.3,31.2-21.8,33.9C117.8,194.4,122.2,203,125.3,211.2
			L125.3,211.2z"/>
		<path class="st2" d="M213.8,74.7c6.6-2.6,8.9-7.2,9.9-15.3L213.8,74.7L213.8,74.7z"/>
		<path class="st2" d="M205.5,100.1c-0.6,6.7-6.1,16.1-13.1,19.9L205.5,100.1z"/>
		<path class="st2" d="M186.1,139.8c-1.7,4.7-6.9,14.7-13.4,17.5C177.4,153.2,183.2,143.4,186.1,139.8z"/>
		<path class="st2" d="M144.2,188.3c5.4,0,13.2-6.3,17.5-16C157.6,177.2,150.4,185.3,144.2,188.3z"/>
		<path class="st2" d="M224.3,27.3c3.9,0.5,4.8,3.9,4.1,6.1L224.3,27.3z"/>
		<path class="st3" d="M200.1,72.8c-4.4,3.9-6.6,7.9-7.4,12.1C198.5,82.4,201.6,78.5,200.1,72.8z"/>
		<path class="st3" d="M178,109.7c-4.7,6.3-8.6,13.1-11.8,20.5C174.9,124.8,178.3,117.7,178,109.7z"/>
		<path class="st3" d="M135.5,175.4c1.1,9.2-3.4,13.6-10.4,15.9C123.2,191.3,128.2,184.5,135.5,175.4z"/>
		<path class="st3" d="M218.8,32.4c-3.5,3.3-5.6,7.5-7.2,12.1C218.2,42.8,219.4,36.8,218.8,32.4z"/>
	</g>
	<g>
		<path class="st0" d="M235.2,40.9c0,0,8.4-10.6,8.6-14.5l6.9,3.7L241,45.4"/>
		<path class="st1" d="M94.9,195.3c0,0,6.7-6.5,19.1-11.2c2.2-0.8,10.1-2.6,15.7-6.6c4.5-3.2,10.6-7.8,13.8-12
			c4.9-6.5,15.8-8.9,23.6-16.3c6.3-5.9,8-12.4,14.5-19.3c6-6.3,9.7-7.6,15.5-14.3c5.1-5.9,7.5-14.7,12.3-20.5c5.7-7,12-9,16.8-15.5
			c5.3-7.2,5.4-11.8,9.1-17.8c8-14.9,6.9-18.9,1.9-21.2c-8.9,3-14.7,7.2-18.2,12.3c-4.4,5.8-11.4,16.1-18,23.5
			C190,88.6,184.3,92.4,171,105.8c-11.9,11.9-25.6,29.6-40.2,38.2c-17.6,10.3-26.4,25.4-29.6,27.4C91.8,177.2,94,186.5,94.9,195.3
			L94.9,195.3z"/>
		<path class="st2" d="M214.7,85.2c7-0.8,10.4-4.7,13.4-12.4L214.7,85.2z"/>
		<path class="st2" d="M200.3,107.7c-2.3,6.4-9.9,14.1-17.7,16L200.3,107.7z"/>
		<path class="st2" d="M171.6,141.3c-2.8,4.1-10.4,12.5-17.4,13.6C159.9,152.1,167.9,144.1,171.6,141.3z"/>
		<path class="st2" d="M118.9,177.8c5.3,1.4,14.3-2.9,20.9-11.1C134.7,170.4,125.7,176.5,118.9,177.8z"/>
		<path class="st2" d="M236.7,41.9c3.6,1.5,3.7,5,2.5,7L236.7,41.9z"/>
		<path class="st3" d="M201.9,80c-5.2,2.6-8.4,6-10.2,9.8C198,88.8,202,85.8,201.9,80z"/>
		<path class="st3" d="M171.3,110.1c-6.2,4.9-11.6,10.6-16.5,16.9C164.5,124,169.5,118,171.3,110.1L171.3,110.1z"/>
		<path class="st3" d="M113.7,163.2c-1.3,9.2-6.7,12.4-14,12.8C97.9,175.5,104.4,170.2,113.7,163.2z"/>
		<path class="st3" d="M230.1,45.5c-4.2,2.3-7.3,5.9-10,9.9C227,55.5,229.6,49.9,230.1,45.5z"/>
	</g>
</g>
<g>
	<path class="st4" d="M163.9,251.8c0,0,58.9-18.8,32.9-71.5"/>
	<line class="st4" x1="164.1" y1="252.4" x2="187.9" y2="259.2"/>
	<line class="st4" x1="164.6" y1="252.1" x2="170.5" y2="229.9"/>
</g>
<g>
	<path class="st4" d="M18.8,341.6c0,0-12.5-60.5,46.2-63.6"/>
	<line class="st4" x1="18.2" y1="341.7" x2="0.6" y2="324.2"/>
	<line class="st4" x1="18.2" y1="341.1" x2="34.7" y2="325.1"/>
</g>
<g>
	<path class="st5" d="M126.6,278.3c6.1-4.9,26.5-8.3,26.5-22.9c-1.3-18.7-23.1-17.8-46.6-0.9c-17.5,14-28.9,29.1-14.2,38.6
		C112.5,300.7,120.5,283.2,126.6,278.3z"/>
	<path class="st6" d="M121.5,281.4c1.1-4.8,3.9-7.1,8.8-6.5C127.5,276.2,124.6,278.5,121.5,281.4z"/>
	<path class="st6" d="M116.9,249.9c0,0,23.4-15.8,32.1-1.9C139.7,246.1,129,246.8,116.9,249.9z"/>
	<path class="st7" d="M148.6,254.3c-1.4-1.7-4.3-0.3-5.8,0.8c-2,1.4-13.2,18.7-7.4,16.7C135.4,271.8,150.1,256,148.6,254.3z"/>
	<path class="st7" d="M107,265.5c-2.9-1.8-9.9,1.6-7.6,4c2.4,2.4,2.8,2.6,6.6,1.5S109.9,267.4,107,265.5L107,265.5z"/>
	<path class="st7" d="M110.6,286.7c-1.1,3.6-13.3,6.1-13.9,5C96.1,290.7,111.8,283.2,110.6,286.7z"/>
</g>
</svg>
