<?xml version="1.0" encoding="UTF-8"?><svg xmlns="http://www.w3.org/2000/svg" viewBox="0 0 251.28 368.88"><defs><style>.d{fill:#943750;stroke-width:1.2px;}.d,.e,.f,.g{stroke:#1d1d1b;stroke-miterlimit:10;}.e{fill:none;stroke-width:1.63px;}.h{fill:#ebbe8f;}.i{fill:#8b4422;}.j{fill:#7b3b52;}.f{fill:#336233;stroke-width:.9px;}.g{fill:#c3905a;stroke-width:.85px;}.k{fill:#f2f5f2;opacity:.37;}</style></defs><g id="a"/><g id="b"><g id="c"><g><g><g><path class="f" d="M187.9,18.27s.6-13.49-1.54-16.77l7.75-.99,1.07,18.01"/><path class="d" d="M164.32,225.51s1.59-9.19,8.93-20.29c1.32-1.93,6.72-8,8.89-14.49,1.74-5.2,4.02-12.49,4.15-17.81,.2-8.1,7.56-16.48,9.58-26.98,1.63-8.46-.75-14.69,.51-24.14,1.15-8.63,3.44-11.8,4.25-20.66,.71-7.76-2.48-16.31-2.05-23.84,.52-9.03,4.46-14.31,4.54-22.41,.08-8.89-2.55-12.77-3.04-19.71-2.2-16.73-5.44-19.33-10.88-18.35-5.46,7.67-7.7,14.47-7.58,20.65-.16,7.23,.2,19.75-.84,29.63-1.71,16.24-4.12,22.75-7.12,41.32-2.69,16.62-3.48,39.05-10.28,54.49-8.21,18.65-6.59,36.1-8.01,39.55-4.18,10.16,3.07,16.48,8.94,23.04Z"/><path class="k" d="M197.17,66.19c5.21-4.78,5.7-9.91,3.67-17.91l-3.67,17.91Z"/><path class="k" d="M198.61,92.86c1.87,6.5,.18,17.22-4.96,23.31l4.96-23.31Z"/><path class="k" d="M194.94,136.86c.11,5-1.09,16.18-6.13,21.17,2.94-5.52,4.8-16.78,6.13-21.17Z"/><path class="k" d="M173.6,197.31c5.06-1.98,9.96-10.69,10.5-21.25-2.09,5.97-5.8,16.19-10.5,21.25Z"/><path class="k" d="M189.65,18.21c3.79-.9,5.88,1.9,6.08,4.18l-6.08-4.18Z"/><path class="j" d="M183.71,69.41c-2.71,5.21-3.26,9.76-2.56,13.94,4.55-4.49,6-9.25,2.56-13.94Z"/><path class="j" d="M176.47,111.74c-2.13,7.58-3.25,15.37-3.56,23.35,6.15-8.06,6.76-15.91,3.56-23.35Z"/><path class="j" d="M160.77,188.49c4.33,8.22,1.76,13.96-3.88,18.55-1.72,.69,.44-7.46,3.88-18.55Z"/><path class="j" d="M186.41,24.98c-2.04,4.35-2.49,9.08-2.34,13.94,5.61-4.06,4.5-10.08,2.34-13.94Z"/></g><g><path class="f" d="M222.61,26.72s5.46-12.34,4.66-16.18l7.58,1.89-5.55,17.16"/><path class="d" d="M125.31,211.22s4.82-7.98,15.69-15.65c1.94-1.32,9.17-5.02,13.55-10.27,3.51-4.21,8.28-10.17,10.34-15.08,3.13-7.48,13.04-12.6,18.73-21.65,4.6-7.29,4.64-13.96,9.25-22.31,4.21-7.62,7.49-9.74,11.47-17.7,3.49-6.97,3.62-16.1,6.76-22.96,3.76-8.22,9.36-11.71,12.37-19.23,3.31-8.25,2.26-12.82,4.33-19.46,4.03-16.39,1.96-19.99-3.47-21.05-7.87,5.16-12.43,10.69-14.56,16.48-2.77,6.68-6.99,18.47-11.55,27.3-7.5,14.51-12.11,19.7-21.65,35.9-8.54,14.51-17.44,35.11-29.38,47.02-14.43,14.39-19.26,31.23-21.84,33.93-7.59,7.95-3.13,16.47-.05,24.72Z"/><path class="k" d="M213.83,74.74c6.59-2.56,8.91-7.16,9.93-15.35l-9.93,15.35Z"/><path class="k" d="M205.48,100.11c-.62,6.73-6.09,16.11-13.1,19.91l13.1-19.91Z"/><path class="k" d="M186.06,139.77c-1.72,4.7-6.9,14.68-13.4,17.5,4.75-4.07,10.57-13.88,13.4-17.5Z"/><path class="k" d="M144.21,188.33c5.44,0,13.16-6.34,17.5-15.98-4.12,4.8-11.29,12.97-17.5,15.98Z"/><path class="k" d="M224.26,27.31c3.86,.54,4.79,3.91,4.15,6.1l-4.15-6.1Z"/><path class="j" d="M200.11,72.84c-4.42,3.86-6.58,7.91-7.45,12.06,5.87-2.53,8.95-6.43,7.45-12.06Z"/><path class="j" d="M177.99,109.65c-4.74,6.29-8.62,13.14-11.8,20.46,8.66-5.28,12.08-12.37,11.8-20.46Z"/><path class="j" d="M135.46,175.44c1.05,9.23-3.43,13.65-10.36,15.87-1.86,.02,3.12-6.79,10.36-15.87Z"/><path class="j" d="M218.78,32.44c-3.48,3.32-5.62,7.55-7.24,12.14,6.71-1.74,7.86-7.75,7.24-12.14Z"/></g><g><path class="f" d="M235.22,40.94s8.37-10.59,8.56-14.5l6.87,3.73-9.66,15.23"/><path class="d" d="M94.93,195.29s6.66-6.52,19.11-11.24c2.2-.8,10.13-2.57,15.69-6.56,4.46-3.2,10.56-7.78,13.78-12.02,4.89-6.46,15.77-8.95,23.55-16.28,6.27-5.91,7.98-12.36,14.53-19.29,5.98-6.33,9.69-7.56,15.53-14.28,5.12-5.88,7.52-14.68,12.27-20.54,5.7-7.02,11.99-9.01,16.78-15.53,5.26-7.16,5.39-11.85,9.05-17.77,8-14.86,6.89-18.86,1.9-21.25-8.91,3.03-14.71,7.24-18.22,12.32-4.35,5.77-11.38,16.14-18,23.55-10.88,12.18-16.64,16.05-29.93,29.36-11.89,11.91-25.65,29.65-40.19,38.2-17.56,10.33-26.45,25.43-29.62,27.4-9.33,5.8-7.15,15.16-6.22,23.92Z"/><path class="k" d="M214.73,85.24c7.02-.84,10.41-4.71,13.45-12.38l-13.45,12.38Z"/><path class="k" d="M200.3,107.72c-2.28,6.36-9.92,14.08-17.66,16.01l17.66-16.01Z"/><path class="k" d="M171.6,141.27c-2.84,4.12-10.35,12.49-17.35,13.6,5.62-2.76,13.7-10.81,17.35-13.6Z"/><path class="k" d="M118.94,177.84c5.26,1.35,14.33-2.86,20.94-11.1-5.19,3.62-14.17,9.74-20.94,11.1Z"/><path class="k" d="M236.68,41.92c3.61,1.48,3.66,4.98,2.49,6.95l-2.49-6.95Z"/><path class="j" d="M201.92,79.98c-5.24,2.64-8.35,6.02-10.22,9.81,6.32-.98,10.27-4,10.22-9.81Z"/><path class="j" d="M171.3,110.09c-6.16,4.9-11.62,10.57-16.54,16.86,9.7-2.95,14.78-8.96,16.54-16.86Z"/><path class="j" d="M113.69,163.18c-1.29,9.2-6.73,12.36-13.99,12.78-1.8-.44,4.72-5.8,13.99-12.78Z"/><path class="j" d="M230.08,45.52c-4.2,2.34-7.33,5.9-10.04,9.94,6.93-.01,9.54-5.55,10.04-9.94Z"/></g></g><g><path class="e" d="M163.85,278.43s58.91-18.75,32.87-71.48"/><line class="e" x1="164.07" y1="279.03" x2="187.94" y2="285.85"/><line class="e" x1="164.59" y1="278.69" x2="170.49" y2="256.53"/></g><g><path class="e" d="M18.84,368.2s-12.49-60.55,46.24-63.65"/><line class="e" x1="18.2" y1="368.3" x2=".57" y2="350.82"/><line class="e" x1="18.24" y1="367.68" x2="34.69" y2="351.68"/></g><g><path class="g" d="M126.61,304.91c6.08-4.89,26.52-8.28,26.49-22.86-1.29-18.72-23.1-17.8-46.55-.87-17.47,14.05-28.89,29.07-14.23,38.64,20.14,7.44,28.21-10.02,34.29-14.91Z"/><path class="h" d="M121.51,308.04c1.07-4.82,3.92-7.1,8.75-6.54-2.73,1.32-5.68,3.64-8.75,6.54Z"/><path class="h" d="M116.87,276.51s23.39-15.76,32.09-1.93c-9.25-1.88-20.01-1.13-32.09,1.93Z"/><path class="i" d="M148.6,280.91c-1.45-1.68-4.31-.31-5.8,.76-1.98,1.43-13.25,18.69-7.4,16.71,0,0,14.65-15.79,13.2-17.47Z"/><path class="i" d="M107.02,292.13c-2.9-1.83-9.92,1.6-7.55,4.04,2.37,2.44,2.75,2.59,6.64,1.53s3.81-3.74,.92-5.57Z"/><path class="i" d="M110.61,313.34c-1.14,3.59-13.28,6.1-13.89,5.04-.61-1.07,15.03-8.62,13.89-5.04Z"/></g></g></g></g></svg>