<?xml version="1.0" encoding="UTF-8"?><svg xmlns="http://www.w3.org/2000/svg" viewBox="0 0 108.17 60.05"><defs><style>.d{fill:#1d1d1b;}.e{fill:#589f46;}</style></defs><g id="a"/><g id="b"><g id="c"><g><path class="d" d="M.37,17.47c-.03-.14-.03-.31-.03-.69,0-.25,0-.47-.03-.61-.03-.31,.2-.5,.57-.5,.33,0,.53,.17,.57,.44,.03,.14,.03,.31,.03,.67q0,.56,.03,.58c.03,1.05,.43,1.53,1.37,1.53s1.63-.28,1.9-.81c.27-.39,.43-1.44,.43-2.97v-.67c0-2.03,0-3.5-1.47-4.19l.03,.03-.8-.33c-.7-.33-1.37-.61-1.83-1-.8-.61-1.13-1.58-1.13-3.11,0-.64,.07-1.42,.17-2.42,0-.06,0-.11,.03-.19v-.14C.43,1.03,1.57,.09,3.67,.23c.97,.08,1.67,.42,2.03,.92,.37,.5,.53,1.19,.53,2.05,0,.25-.03,.56-.07,.86v.06c0,.28-.23,.47-.57,.47s-.57-.19-.57-.47v-.17c.03-.31,.07-.56,.07-.81,0-.69-.13-1.19-.33-1.53-.2-.28-.8-.47-1.47-.47-.43,0-.87,.11-1.13,.28-.6,.44-1.03,2.17-1.03,4.25,0,1.31,.27,2.19,.8,2.61,.33,.25,.77,.44,2.13,1.03v.03l.27,.11c2.03,1.03,2.03,2.92,2,5.05v.61c0,3.39-.6,4.44-2.9,4.69-.2,.03-.4,.03-.53,.03-1.53,0-2.47-.89-2.53-2.36Z"/><path class="d" d="M10.5,19.58c-.5-.11-.53-.61-.23-.83,.1-1.44,.17-3.17,.17-5.16,0-1.17-.1-5.14-.13-5.66-.13-4.11-.2-6.53-.2-7.25l.43,.36h-.07c-.33,0-.57-.19-.57-.47s.23-.47,.57-.47c.5,0,1.2,0,2.17-.03h2.17c.33,0,.57,.19,.57,.47s-.23,.47-.57,.47h-2.03c-.63,.03-1.13,.03-1.53,.03,.03,.94,.1,3.11,.2,6.44,.03,.36,.03,.72,.03,1.08v.5c.03,.08,.03,.19,.03,.31,.2,.03,.47,.06,.77,.06,.17,0,.2,0,.3-.03h.37c.1-.03,.2-.03,.33-.03,.4-.03,.67-.03,.83-.03,.33,0,.57,.19,.57,.47s-.23,.47-.57,.47c-.17,0-.43,0-.77,.03-.2,0-.23,0-.33,.03h-.37c-.13,.03-.27,.03-.4,.03-.27,0-.5,0-.73-.03v-.22c.03,1.25,.07,2.42,.07,3.5,0,1.92-.07,3.64-.17,5.14,.23,.03,.53,.03,.83,.03,.73,0,1.63-.06,2.77-.14,.37,0,.6,.19,.6,.47s-.2,.47-.53,.47c-.9,.08-1.83,.14-2.77,.14-.87,0-1.4-.03-1.8-.14Z"/><path class="d" d="M22.39,19.25c-.47-4.28-1.3-9.41-2.5-15.38-.03-.22-.13-.61-.3-1.19v-.03s-.03-.06-.03-.08c-.03-.06-.03-.11-.07-.17v-.08l-.03-.08,.83-.11c0,.11,0,.33,.03,.64,.1,1.94,.37,7.47,.37,11.97,0,1.92-.03,3.33-.13,4.39,0,.25-.23,.44-.57,.44s-.57-.19-.57-.47c.1-1.53,.17-3.11,.17-4.75,0-1.33-.03-2.83-.1-4.5-.23-5.3-.33-8.25-.33-8.83l-.07-.44c0-.31,.2-.5,.57-.5,.33,0,.63,.22,.63,.53v.33c.13,.67,.6,2.3,.73,2.75,1.1,5.64,1.9,10.5,2.4,14.66l-.87-.03c.33-1.72,.8-4.55,1.37-8.52,.63-4.25,1.17-7.36,1.6-9.41,.1-.36,.63-.47,.97-.25,.17,.08,.3,.25,.3,.44,0,.64-.03,2.61-.13,5.89v1.14c-.03,.89-.07,1.64-.07,2.28,0,1.28,.03,2.11,.1,2.44,.1,1.69,.13,3.28,.13,4.69,0,.89,0,1.61-.07,2.19,0,.28-.23,.44-.57,.44-.13,0-.57-.47-.57-.47,.07-.56,.07-1.28,.07-2.17,0-1.22-.03-2.78-.13-4.66,0-.22,0-.44-.03-.64v-.56c0-.58,0-1.11-.03-1.56v-.97c0-.86,.03-2.11,.1-3.75,0-.22,0-.42,.03-.67v-.5c0-.61,0-1.17,.03-1.67v-.92l.87,.06c-.4,1.97-.9,4.89-1.47,8.75-.63,4.33-1.17,7.44-1.53,9.36-.03,.28-.27,.42-.57,.42h-.03l-.2-.03c-.2-.11-.33-.25-.33-.42Z"/><path class="d" d="M31.02,19.58c-.5-.11-.53-.61-.23-.83,.1-1.44,.17-3.17,.17-5.16,0-1.17-.1-5.14-.13-5.66-.13-4.11-.2-6.53-.2-7.25l.43,.36h-.07c-.33,0-.57-.19-.57-.47s.23-.47,.57-.47c.5,0,1.2,0,2.17-.03h2.17c.33,0,.57,.19,.57,.47s-.23,.47-.57,.47h-2.03c-.63,.03-1.13,.03-1.53,.03,.03,.94,.1,3.11,.2,6.44,.03,.36,.03,.72,.03,1.08v.5c.03,.08,.03,.19,.03,.31,.2,.03,.47,.06,.77,.06,.17,0,.2,0,.3-.03h.37c.1-.03,.2-.03,.33-.03,.4-.03,.67-.03,.83-.03,.33,0,.57,.19,.57,.47s-.23,.47-.57,.47c-.17,0-.43,0-.77,.03-.2,0-.23,0-.33,.03h-.37c-.13,.03-.27,.03-.4,.03-.27,0-.5,0-.73-.03v-.22c.03,1.25,.07,2.42,.07,3.5,0,1.92-.07,3.64-.17,5.14,.23,.03,.53,.03,.83,.03,.73,0,1.63-.06,2.77-.14,.37,0,.6,.19,.6,.47s-.2,.47-.53,.47c-.9,.08-1.83,.14-2.77,.14-.87,0-1.4-.03-1.8-.14Z"/><path class="d" d="M44.62,19.27h.43s-.03,.03-.13,.03l-.47,.03s-.03-.08-.03-.11c-.03-.33-.13-.81-.4-1.67-.37-.94-.47-1.28-.5-1.47-.1-.44-.63-2.8-1.53-7.08-.57-2.72-1.13-4.89-1.67-6.55l.87-.08c.03,1.61,.03,3,.03,4.08s0,1.94-.03,2.53c0,.08,0,.31-.03,.61,0,.33,0,.78-.03,1.33-.13,2.14-.13,2.36-.13,4.03v1.11c0,1.11,.03,2.03,.13,3,0,.31-.23,.5-.57,.5s-.57-.17-.57-.44c-.1-.92-.13-1.83-.13-3.05v-1.11c0-1.67,0-1.92,.13-4.05,0-.17,0-.31,.03-.47,0-.22,0-.44,.03-.64,0-.31,0-.58,.03-.83,0-.83,.03-1.47,.03-2.64,0-.92,0-1.97-.03-3.11-.03-1.14-.03-2-.03-2.64,0-.28,.23-.47,.57-.47s.57,.19,.57,.47V1.59c.03,.06,.07,.08,.1,.17,.57,1.78,1.2,4.14,1.83,7.11,0,.08,.03,.17,.07,.28,0,.08,.03,.19,.07,.31l.1,.47c.3,1.33,.53,2.44,.7,3.33,.1,.53,.2,1,.3,1.39,.13,.69,.23,1.08,.3,1.25,.03,.22,.17,.64,.43,1.28,.2,.72,.33,1.17,.4,1.5l-.87,.06c0-1.94,0-4.94,.03-8.97s.03-7.08,.03-9.16c0-.28,.23-.47,.57-.47s.57,.19,.57,.47c0,2.08,0,5.19-.03,9.33-.03,4.17-.03,7.28-.03,9.36,0,.28-.23,.47-.57,.47s-.57-.19-.57-.47Z"/><path class="d" d="M52.01,19.8c-1.13-.25-2.07-.97-2.37-1.75-.3-1-.43-2.08-.43-3.42,0-1.44,0-1.83,.13-3.61l.1-1.5v-.31c.03-.14,.03-.33,.03-.64v-.75c-.03-.33-.03-.72-.03-1.14-.03-.28-.03-.53-.03-.78v-1.03c0-1.17,.03-2.03,.13-2.64,.17-1.19,1.43-2.11,2.93-2.11,.23,0,.37,0,.5,.03,1.5,.17,2.43,1.19,2.43,2.67,0,.39-.03,.75-.13,1.08-.17,.61-1.27,.39-1.13-.19,.07-.31,.1-.61,.1-.89,0-1.11-.63-1.75-1.7-1.75-.93,0-1.77,.56-1.87,1.25-.1,.64-.13,1.5-.13,2.55v1.03c0,.25,0,.5,.03,.72,0,.44,0,.83,.03,1.19v.75c0,.25,0,.5-.03,.69v.31l-.1,1.5c-.13,1.75-.13,2.11-.13,3.53s.13,2.36,.43,3.22c.1,.42,.77,.86,1.57,1.11,.37,.08,.6,.11,.8,.11,.83,0,1.13-.61,1.13-2.64,0-.28,.23-.47,.57-.47s.57,.19,.57,.47c0,1.31-.13,2.11-.4,2.55-.4,.64-1.2,1-2.07,1-.3,0-.6-.06-.93-.17Z"/><path class="d" d="M59.58,19.58c-.5-.11-.53-.61-.23-.83,.1-1.44,.17-3.17,.17-5.16,0-1.17-.1-5.14-.13-5.66-.13-4.11-.2-6.53-.2-7.25l.43,.36h-.07c-.33,0-.57-.19-.57-.47s.23-.47,.57-.47c.5,0,1.2,0,2.17-.03h2.17c.33,0,.57,.19,.57,.47s-.23,.47-.57,.47h-2.03c-.63,.03-1.13,.03-1.53,.03,.03,.94,.1,3.11,.2,6.44,.03,.36,.03,.72,.03,1.08v.5c.03,.08,.03,.19,.03,.31,.2,.03,.47,.06,.77,.06,.17,0,.2,0,.3-.03h.37c.1-.03,.2-.03,.33-.03,.4-.03,.67-.03,.83-.03,.33,0,.57,.19,.57,.47s-.23,.47-.57,.47c-.17,0-.43,0-.77,.03-.2,0-.23,0-.33,.03h-.37c-.13,.03-.27,.03-.4,.03-.27,0-.5,0-.73-.03v-.22c.03,1.25,.07,2.42,.07,3.5,0,1.92-.07,3.64-.17,5.14,.23,.03,.53,.03,.83,.03,.73,0,1.63-.06,2.77-.14,.37,0,.6,.19,.6,.47s-.2,.47-.53,.47c-.9,.08-1.83,.14-2.77,.14-.87,0-1.4-.03-1.8-.14Z"/><path class="d" d="M67.9,17.47c-.03-.14-.03-.31-.03-.69,0-.25,0-.47-.03-.61-.03-.31,.2-.5,.57-.5,.33,0,.53,.17,.57,.44,.03,.14,.03,.31,.03,.67q0,.56,.03,.58c.03,1.05,.43,1.53,1.37,1.53s1.63-.28,1.9-.81c.27-.39,.43-1.44,.43-2.97v-.67c0-2.03,0-3.5-1.47-4.19l.03,.03-.8-.33c-.7-.33-1.37-.61-1.83-1-.8-.61-1.13-1.58-1.13-3.11,0-.64,.07-1.42,.17-2.42,0-.06,0-.11,.03-.19v-.14c.23-2.05,1.37-3,3.47-2.86,.97,.08,1.67,.42,2.03,.92,.37,.5,.53,1.19,.53,2.05,0,.25-.03,.56-.07,.86v.06c0,.28-.23,.47-.57,.47s-.57-.19-.57-.47v-.17c.03-.31,.07-.56,.07-.81,0-.69-.13-1.19-.33-1.53-.2-.28-.8-.47-1.47-.47-.43,0-.87,.11-1.13,.28-.6,.44-1.03,2.17-1.03,4.25,0,1.31,.27,2.19,.8,2.61,.33,.25,.77,.44,2.13,1.03v.03l.27,.11c2.03,1.03,2.03,2.92,2,5.05v.61c0,3.39-.6,4.44-2.9,4.69-.2,.03-.4,.03-.53,.03-1.53,0-2.47-.89-2.53-2.36Z"/><path class="d" d="M42.48,42.02c0-.11,.03-.19,.1-.28,.03-.25,0-.64-.07-1.25v-.17c-.03-.31-.07-.61-.07-.89,0-.11,0-.25,.03-.33v-.22c.1-.78,.13-1.67,.13-2.64,0-1.44-.1-3.08-.27-4.94-.07-.86-.1-1.83-.1-2.92v-1.11c0-.31,0-.75,.03-1.31,0-.19,0-.39,.03-.61,0-.44,0-.83,.03-1.22v-.89c0-.08,0-.14,.03-.19,0-.28,.3-.53,.7-.47,.03,0,.1,.03,.13,.03-.03,0-.07-.03-.17-.06l1.07,.22c.13,.03,.27,.06,.37,.06,.1,.03,.23,.03,.37,.06h-.07c.07,0,.2,.03,.27,.06h.03c1.63,.33,2.23,.89,2.6,2.42,.07,.39,.13,.86,.2,1.42,.03,.08,.03,.22,.03,.33v.11c.03,.06,.03,.11,.03,.19,.1,1.33,.17,2.94,.17,4.58,0,2.47-.13,4.72-.33,6.36-.17,1.72-.5,2.89-.93,3.3-.83,.83-1.93,.83-3.8,.83-.33,0-.57-.19-.57-.47Zm3.5-1c.1-.03,.2-.31,.33-.86,.13-.47,.23-1.11,.33-1.89,.23-1.75,.33-4.03,.33-6.25,0-1.58-.07-3.22-.17-4.64v-.06c-.03-.08-.03-.14-.03-.19v-.17c-.1-.58-.17-1.08-.23-1.47-.23-1.08-.53-1.39-1.67-1.61l-.97-.17c-.33-.06-.63-.11-.87-.14v-.33h.43v.94c-.03,.39-.03,.78-.03,1.22-.03,.17-.03,.36-.03,.56-.03,.56-.03,1-.03,1.31v1.11c0,1.11,.03,2.05,.1,2.86,.17,2,.27,3.64,.27,5,0,1.05-.03,1.92-.13,2.69v.19l-.03,.11v.19c0,.28,.03,.61,.07,.97,.03,.5,.07,.86,.07,1.14,1.17,0,1.83-.06,2.27-.53Z"/><path class="d" d="M52.24,42.19c-.5-.11-.53-.61-.23-.83,.1-1.44,.17-3.17,.17-5.16,0-1.17-.1-5.14-.13-5.66-.13-4.11-.2-6.53-.2-7.25l.43,.36h-.07c-.33,0-.57-.19-.57-.47s.23-.47,.57-.47c.5,0,1.2,0,2.17-.03h2.17c.33,0,.57,.19,.57,.47s-.23,.47-.57,.47h-2.03c-.63,.03-1.13,.03-1.53,.03,.03,.94,.1,3.11,.2,6.44,.03,.36,.03,.72,.03,1.08v.5c.03,.08,.03,.19,.03,.31,.2,.03,.47,.06,.77,.06,.17,0,.2,0,.3-.03h.37c.1-.03,.2-.03,.33-.03,.4-.03,.67-.03,.83-.03,.33,0,.57,.19,.57,.47s-.23,.47-.57,.47c-.17,0-.43,0-.77,.03-.2,0-.23,0-.33,.03h-.37c-.13,.03-.27,.03-.4,.03-.27,0-.5,0-.73-.03v-.22c.03,1.25,.07,2.42,.07,3.5,0,1.92-.07,3.64-.17,5.14,.23,.03,.53,.03,.83,.03,.73,0,1.63-.06,2.77-.14,.37,0,.6,.19,.6,.47s-.2,.47-.53,.47c-.9,.08-1.83,.14-2.77,.14-.87,0-1.4-.03-1.8-.14Z"/><path class="d" d="M65.16,42.74c.1-.06,.17-.86,.13-1.86,0-.31,0-.56-.03-.78v-.5c-.03-.39-.03-.64-.03-.78,.07-.39,.1-1.39,.1-2.97v-1.42c-.03-.61-.03-1.28-.03-1.97-.03-.33-.03-.67-.03-1-.1-3.78-.13-6.16-.13-7.11-.23-.11-.33-.36-.2-.58,.17-.28,.47-.39,.8-.19-.07-.03-.13-.05-.13-.05,.03-.03,.07-.03,.1-.03,.13,0,.27,.03,.37,.11,.17,.03,.43,.03,.77,.06,.4,.03,.67,.06,.83,.08,1.87,.14,2.5,.78,2.83,2.64,.13,.75,.23,1.8,.23,2.92,0,.58-.03,1.19-.07,1.67-.13,.86-.27,1.36-.57,1.64-.77,.89-2.13,1.33-4.03,1.33v-.36s-.03,0-.07-.03h.43v1.58c0,1.36-.03,2.61-.07,3.72,0,.08,0,.28,.03,.56v.64c.03,.39,.03,.83,.03,1.36,0,.69-.07,1.31-.13,1.58-.17,.61-1.3,.36-1.13-.25Zm.83-9.75c1.6,0,2.63-.31,3.2-.94,.23-.25,.4-1.33,.4-2.86,0-1.8-.27-3.47-.6-3.91-.3-.33-.8-.53-1.57-.58,.03-.03-.17-.06-.67-.08-.17,0-.33-.03-.5-.03,0,1.25,.03,3.16,.07,4.91,.03,1.03,.07,2,.07,2.8,.03,.28,.03,.5,.03,.72l-.4,.33-.03-.36Z"/><path class="d" d="M72.92,42.69c.13-.42,.17-.89,.2-1.64v-.83c.03-.64,.17-1.64,.4-3.11v-.08c.13-.81,.23-1.42,.27-1.86l.3,.36h-.17c-.33,0-.57-.19-.57-.47s.23-.47,.57-.47c.17,0,.37,.03,.47,.06l-.57,.33c0-.08,0-.19,.03-.31v-.14c0-.17,0-.33,.03-.5,.07-1.22,.3-2.86,.67-5,.43-2.39,.7-3.97,.8-4.72v-.06c0-.31,.23-.58,.6-.58,.5,0,.6,.28,.53,.67,.03,.17,.07,.36,.07,.56l.7,4.64,.6,3.89,.17,1.17h.07c.33,0,.57,.19,.57,.47s-.23,.47-.57,.47h.03c.37,2.78,.53,5.17,.53,7.19,0,.28-.23,.47-.57,.47s-.57-.19-.57-.47c0-2-.17-4.36-.53-7.19h-.23c-.33,.03-.6,.03-.77,.03h-.37c-.1,.03-.23,.03-.43,.03-.17,0-.37-.03-.47-.06l.13,.03h.03c-.03,.22-.07,.44-.1,.69-.03,.28-.07,.58-.13,.92v.03c-.23,1.42-.37,2.44-.4,3.05,0,.33-.03,1.25-.07,1.8-.03,.36-.07,.61-.13,.86-.17,.61-1.27,.39-1.13-.22Zm2.6-8.08h.47c.17,0,.4,0,.67-.03h.2l-.13-1.05-.6-3.78v-.03c-.03-.08-.03-.14-.03-.19,0-.11-.03-.11,0-.05l-.03-.17v-.06c-.2-1.17-.33-2.17-.43-2.97-.03-.33-.1-.64-.13-.89h.87l-.2,1.08c-.03,.28-.1,.67-.2,1.08-.03,.22-.1,.5-.13,.78-.03,.25-.07,.56-.13,.83-.37,2.06-.6,3.67-.67,4.91l-.03,.53h-.1c.1,.03,.13,.03,.3,.03,.2,0,.27,0,.33-.03Z"/><path class="d" d="M83.15,42.74c.1-1.03,.17-2.58,.17-4.66,0-.36,0-1.05-.03-2.06,0-.25,0-.47-.03-.67,0-.42,0-.75-.03-1.03v-.5c-.03-.06-.07-.11-.07-.19v-.03c-.03-.53-.2-1.03-.4-1.8-.03-.03-.03-.08-.07-.11t0,0l-.03-.17v.03l-.3-.92-.03-.03c-.8-2.89-1.3-5.05-1.47-6.61,0-.31,.23-.5,.57-.5s.57,.17,.57,.44c.17,1.47,.63,3.61,1.47,6.47,0,.19-.07-.11,0,0,.03,.06,.03,.11,.07,.19,0,.03,0,.06,.03,.14v.06l.23,.61c-.27-.19-.4-.25-.4-.25l.43,.36,.17,.61c.07,.19,.1,.33,.13,.47,0,.03,.03,.06,.03,.06l-.87,.03c.27-1.69,.83-3.58,1.57-5.94,.13-.47,.27-.92,.4-1.33,.07-.19,.1-.39,.17-.56,.03-.11,.07-.19,.1-.31v-.08c.03-.08,.03-.14,.07-.19,0-.03,0-.06,.03-.08v-.03c.1-.64,1.2-.47,1.13,.11,0,0,.03-.03,.03-.06l-.87,2.92c-.93,2.83-1.4,4.72-1.63,6.5l-.37-.28h.43v.64c.03,.33,.03,.72,.03,1.11,.03,.28,.03,.53,.03,.81,.03,1.14,.03,1.86,.03,2.17,0,1.92-.07,3.58-.17,4.72,0,.25-.23,.44-.57,.44s-.57-.19-.57-.5Z"/><path class="d" d="M90.48,40.99c-.03-.14-.03-.31-.03-.69,0-.25,0-.47-.03-.61-.03-.31,.2-.5,.57-.5,.33,0,.53,.17,.57,.44,.03,.14,.03,.31,.03,.67q0,.56,.03,.58c.03,1.05,.43,1.53,1.37,1.53s1.63-.28,1.9-.81c.27-.39,.43-1.44,.43-2.97v-.67c0-2.03,0-3.5-1.47-4.19l.03,.03-.8-.33c-.7-.33-1.37-.61-1.83-1-.8-.61-1.13-1.58-1.13-3.11,0-.64,.07-1.42,.17-2.42,0-.06,0-.11,.03-.19v-.14c.23-2.05,1.37-3,3.47-2.86,.97,.08,1.67,.42,2.03,.92,.37,.5,.53,1.19,.53,2.05,0,.25-.03,.56-.07,.86v.06c0,.28-.23,.47-.57,.47s-.57-.19-.57-.47v-.17c.03-.31,.07-.56,.07-.81,0-.69-.13-1.19-.33-1.53-.2-.28-.8-.47-1.47-.47-.43,0-.87,.11-1.13,.28-.6,.44-1.03,2.17-1.03,4.25,0,1.31,.27,2.19,.8,2.61,.33,.25,.77,.44,2.13,1.03v.03l.27,.11c2.03,1.03,2.03,2.92,2,5.05v.61c0,3.39-.6,4.44-2.9,4.69-.2,.03-.4,.03-.53,.03-1.53,0-2.47-.89-2.53-2.36Z"/><g><path class="e" d="M102.27,54.36c-3.23,0-5.95-2.78-5.89-6.35,.06-3.36,2.67-6.17,6.02-6.1,3.18,.06,5.84,2.82,5.77,6.36-.06,3.37-2.67,6.09-5.9,6.08Zm2.67-4.98c.22-.9,.26-1.8,.09-2.71-.2-1-.63-1.89-1.23-2.68-.37-.48-.79-.92-1.28-1.27-.09-.06-.17-.06-.26,0-.87,.65-1.59,1.44-2.1,2.42-.53,1.02-.72,2.11-.56,3.26,.11,.8,.38,1.54,.75,2.25,.08,.16,.17,.32,.26,.48l-.02,.02c-.16-.13-.33-.25-.48-.39-.89-.82-1.4-1.87-1.65-3.08-.03-.13-.04-.27-.07-.4-.02-.06-.07-.11-.11-.17-.05,.04-.1,.08-.14,.13-.02,.03-.03,.08-.05,.12-.31,1-.37,2.02-.13,3.04,.32,1.35,1.05,2.37,2.25,2.97,.94,.47,1.93,.57,2.94,.4,1.47-.23,2.51-1.08,3.08-2.53,.36-.92,.44-1.88,.31-2.86-.13-.96-.46-1.84-.98-2.64-.03-.04-.05-.09-.09-.12-.02-.02-.07-.04-.08-.03-.02,.01-.03,.06-.03,.09,0,.05,.02,.09,.03,.14,.03,.22,.08,.44,.1,.67,.04,.38,0,.76-.04,1.14-.08,.6-.24,1.18-.49,1.73Z"/><g><path class="e" d="M99.67,56.12c.18,0,.35,.02,.5,.05,.15,.03,.28,.09,.39,.16,.11,.07,.19,.17,.25,.29,.06,.12,.09,.27,.09,.45,0,.19-.04,.36-.13,.48-.09,.13-.22,.24-.39,.32,.24,.07,.41,.19,.53,.36,.12,.17,.18,.38,.18,.62,0,.19-.04,.36-.11,.5-.08,.14-.18,.26-.31,.35-.13,.09-.27,.16-.44,.2-.16,.04-.33,.06-.5,.06h-1.87v-3.85h1.81Zm-.11,1.56c.15,0,.28-.04,.37-.11,.1-.07,.15-.19,.15-.35,0-.09-.02-.16-.05-.22-.03-.06-.08-.1-.13-.13-.05-.03-.12-.05-.19-.07-.07-.01-.14-.02-.22-.02h-.79v.9h.86Zm.05,1.63c.08,0,.16,0,.24-.02s.14-.04,.2-.08,.1-.09,.14-.15,.05-.15,.05-.25c0-.2-.06-.34-.17-.42-.11-.08-.26-.13-.44-.13h-.92v1.06h.91Z"/><path class="e" d="M102.5,56.12v3.85h-.85v-3.85h.85Z"/><path class="e" d="M103.21,57.26c.09-.25,.21-.46,.37-.64,.16-.18,.36-.33,.6-.43,.24-.1,.5-.16,.8-.16s.57,.05,.8,.16c.23,.1,.43,.25,.59,.43,.16,.18,.29,.4,.37,.64,.09,.25,.13,.51,.13,.8s-.04,.54-.13,.78c-.09,.24-.21,.45-.37,.63-.16,.18-.36,.32-.59,.42-.23,.1-.5,.15-.8,.15s-.56-.05-.8-.15c-.24-.1-.43-.24-.6-.42-.16-.18-.29-.39-.37-.63-.09-.24-.13-.5-.13-.78s.04-.55,.13-.8Zm.77,1.27c.04,.15,.1,.29,.18,.41,.08,.12,.19,.22,.32,.29,.13,.07,.3,.11,.49,.11s.35-.04,.49-.11c.13-.07,.24-.17,.32-.29,.08-.12,.14-.26,.18-.41s.06-.31,.06-.47-.02-.33-.06-.49c-.04-.16-.1-.3-.18-.42-.08-.12-.19-.22-.32-.3-.13-.07-.3-.11-.49-.11s-.35,.04-.49,.11c-.13,.07-.24,.17-.32,.3-.08,.12-.14,.26-.18,.42-.04,.16-.06,.32-.06,.49s.02,.32,.06,.47Z"/></g></g></g></g></g></svg>