<?xml version="1.0" encoding="UTF-8"?><svg xmlns="http://www.w3.org/2000/svg" viewBox="0 0 255.33 321.04"><defs><style>.d{opacity:.1;}.e{stroke-width:1.63px;}.e,.f,.g{fill:none;}.e,.f,.g,.h,.i{stroke:#1d1d1b;}.e,.g,.h,.i{stroke-miterlimit:10;}.f{stroke-linecap:round;stroke-linejoin:round;}.f,.g{stroke-width:.64px;}.j{fill:#e9d5ab;}.k{fill:#eace90;}.l,.i{fill:#e69e79;}.m{fill:#a57b59;}.n{fill:#e19a80;}.o{fill:#c6886c;}.p{fill:#e2bb78;}.q{fill:#e1b781;}.h{fill:#c59569;stroke-width:.67px;}.r{opacity:.17;}.s{opacity:.34;}.t{opacity:.46;}.i{stroke-width:.64px;}</style></defs><g id="a"/><g id="b"><g id="c"><g><g><g><path class="i" d="M163.79,10.98c-5.57,10.44-9.97,15.54-14.07,19.27-41.3,31.08-42.18,47.31-41.69,63.03,1.96,28.83,15.01,41.98,33.16,47.93,15.72,5.65,27.16,9.8,41.36,7.88,33.05-2.58,47.45-11.29,55.12-22.21l.42-.54c13.49-15.5,18.89-31.9,16.29-49.17l-.3-1.24c-6.84-20.59-20.04-34.68-37.23-44.7l-26.1-19.04-4.95-2.86c-11.28,7.91-19.39,9.91-22.01,1.65Z"/><path class="h" d="M165.06,1.96c-.96,.71-1.58,1.5-1.76,2.41l.06,.85c.58,2.39,.78,4.59,.09,6.4,0,0,0,.01,0,.02,2.78,8.71,10.87,7.51,23.26-1.69,.01-.01,.01-.03,0-.04-4.21-2.31-7.99-5.03-10.54-8.92,0,0,0,0-.01,0-2.4-.62-4.97-.85-7.85-.34l-3.24,1.34Z"/><path class="m" d="M185.99,9.88c-7.87,6.49-19.14,11.72-22.04,1.68,7.58,2.02,14.32-1.42,16.22-5.6,1.71,1.42,3.63,2.81,5.82,3.92Z"/></g><g class="d"><path class="o" d="M186.4,10.69l-1.98,1.36c-.17,.12-.31,.27-.37,.48-.05,.19-.03,.44,.08,.61s.27,.32,.48,.37,.44,.04,.61-.08l1.98-1.36c.17-.12,.31-.27,.37-.48,.05-.19,.03-.44-.08-.61s-.27-.32-.48-.37-.44-.04-.61,.08h0Z"/></g><g class="r"><path class="o" d="M145.64,55.26c-5.09,7.96-9.09,17.21-7.05,26.82,.21,1,1.75,.58,1.53-.42-1.94-9.17,2.05-18.03,6.89-25.6,.55-.87-.82-1.66-1.37-.8h0Z"/></g><g class="r"><path class="o" d="M216.42,54.3c2.8,8.49,5.55,17,8.07,25.58,2.43,8.28,4.52,16.81,4.56,25.48,.02,4.82-.66,9.59-2.21,14.16-.33,.97,1.21,1.39,1.53,.42,5.72-16.83-.49-34.79-5.56-50.96-1.58-5.05-3.2-10.08-4.86-15.11-.32-.97-1.86-.55-1.53,.42h0Z"/></g><g class="d"><path class="o" d="M179.08,117.45c1.02,0,1.03-1.59,0-1.59s-1.03,1.59,0,1.59h0Z"/></g><g class="d"><path class="n" d="M170.69,46.13c-.37,.71-.33,1.49,0,2.2s1.01,1.18,1.78,1.26c.81,.09,1.58-.37,2.05-1.01,.54-.74,.57-1.95-.25-2.51-.41-.28-1-.32-1.48-.37s-.94-.05-1.41,0c-.26,.02-.46,.1-.62,.31-.14,.18-.24,.47-.14,.69,.33,.79,.76,1.5,1.33,2.14,.19,.21,.51,.28,.77,.2,.29-.08,.45-.29,.56-.56,.42-1.06,.1-2.34-.68-3.14-.29-.3-.84-.31-1.12,0s-.31,.81,0,1.12c.04,.04,.08,.08,.11,.12,.09,.1-.12-.17,0,0,.06,.09,.12,.19,.17,.29,.09,.19-.04-.13,0,0,.02,.05,.04,.11,.05,.16,.03,.11,.05,.22,.07,.33l-.03-.21c.02,.2,.03,.39,0,.59l.03-.21c-.02,.18-.07,.36-.14,.53l1.33-.35c-.05-.06-.11-.12-.16-.19-.03-.04-.06-.08-.09-.12,.03,.03,.1,.13,.03,.04-.1-.14-.2-.28-.29-.43s-.17-.28-.25-.43c-.04-.07-.07-.15-.11-.22-.02-.05-.14-.34-.05-.1l-.77,1.01c.53-.05,1.05-.04,1.57,.03l-.21-.03c.23,.03,.46,.08,.69,.14,.15,.04-.15-.09-.03-.01,.07,.04,.05,.03-.06-.05,.06,.06,.04,.04-.04-.06l.02,.04c.04,.07,.03,.05-.02-.07-.01,.03,.04,.14,.04,.18l-.03-.21c.01,.1,.01,.2,0,.3l.03-.21c-.01,.07-.03,.15-.05,.22s-.08,.14,.03-.05c-.02,.03-.03,.07-.05,.1s-.04,.07-.06,.1c-.02,.03-.09,.12,0,.01,.09-.12,0,0-.02,.02-.03,.03-.05,.06-.08,.08-.02,.02-.05,.04-.07,.06-.11,.1,.15-.11,.04-.03-.06,.04-.13,.08-.2,.12-.07,.04-.15,.03,.05-.02-.04,0-.07,.03-.11,.04-.07,.02-.15,.04-.22,.05l.21-.03c-.11,.01-.23,.02-.34,0l.21,.03c-.09-.01-.17-.04-.25-.06-.12-.04,.18,.09,.06,.03-.03-.02-.06-.03-.09-.05s-.06-.04-.09-.06c-.12-.07,.16,.14,.04,.03-.06-.05-.11-.11-.16-.16-.09-.1,.11,.17,.04,.05-.02-.03-.04-.06-.06-.09-.02-.03-.13-.18-.12-.22,0,.03,.08,.21,.03,.06-.01-.03-.02-.07-.03-.1-.02-.08-.04-.16-.05-.24l.03,.21c-.02-.14-.02-.28,0-.42l-.03,.21c.01-.08,.03-.15,.05-.22,.01-.03,.02-.07,.03-.1,.02-.06-.1,.2-.01,.04,.19-.37,.11-.88-.29-1.09-.36-.19-.89-.11-1.09,.29h0Z"/></g><g class="d"><path class="q" d="M174.02,31.57l-.5,4.23c-.12,1.02-.59,2.72,.62,3.31,.3,.15,.72,.15,.96-.12,.54-.62,1.06-1.26,1.54-1.92s.59-1.48,.1-2.2c-.35-.52-.65-.99-.79-1.62s-.09-1.23,.1-1.82l-1.56-.21c-.11,1.63-.31,3.25-.6,4.85-.08,.42,.12,.86,.56,.98,.39,.11,.9-.13,.98-.56,.32-1.74,.54-3.51,.66-5.28,.06-.92-1.31-1.04-1.56-.21-.4,1.3-.26,2.72,.37,3.92,.14,.27,.32,.5,.49,.74,.06,.09,.12,.17,.14,.28-.03-.15-.07,.07-.14,.17-.4,.62-.91,1.19-1.4,1.75l.96-.12c-.16-.08-.01-.01,0,.04,0-.03-.01-.03-.02-.12-.02-.2,.01-.4,.04-.59,.07-.61,.14-1.22,.22-1.83l.43-3.67c.05-.43-.4-.8-.8-.8-.47,0-.74,.37-.8,.8h0Z"/></g><path class="q" d="M162.11,84.65v7.91c-.02,.75-.02,1.54,.48,2.15,.78,.96,2.41,.82,3.11-.17,.45-.64,.32-1.42,.13-2.13-.22-.8-.44-1.59-.63-2.4-.45-1.88-.8-3.77-1.07-5.68-.05-.39-.53-.62-.87-.57-.41,.06-.65,.38-.69,.78-.27,3.09,0,6.21,.82,9.2,.27,.99,1.8,.57,1.53-.42-.77-2.86-1.02-5.82-.76-8.78l-1.56,.21c.24,1.76,.56,3.51,.96,5.24,.21,.89,.44,1.78,.69,2.67,.12,.41,.43,1.02-.12,1.12-.41,.07-.42-.38-.42-.77-.02-.94,0-1.88,0-2.82v-5.53c.01-1.02-1.58-1.03-1.58,0h0Z"/><g class="s"><path class="q" d="M176.06,44.11c-.21,1.37-.43,2.75-.59,4.13-.08,.68-.15,1.36-.2,2.05-.04,.51-.05,1.03,.1,1.53,.33,1.08,1.52,1.74,2.51,.98,1.06-.82,.77-2.1,.34-3.17-.53-1.3-.37-2.65-.16-4.01,.06-.42-.11-.86-.56-.98-.38-.1-.91,.13-.98,.56-.2,1.32-.39,2.66-.11,3.99,.13,.63,.49,1.18,.61,1.81,.04,.22,0,.28-.05,.48,0,.02-.07,.11-.06,.07,0,0,.07,0,.07,.02,0,.09-.04-.06,0,0-.1-.18,0,.05-.07-.16s-.08-.38-.07-.59c0-.67,.1-1.35,.17-2.01,.16-1.43,.38-2.84,.6-4.26,.07-.42-.11-.86-.56-.98-.38-.1-.91,.13-.98,.56h0Z"/></g><g class="s"><path class="q" d="M166.99,66.33c.08,.56,.51,1.13,1.01,1.37,.13,.06,.28,.13,.43,.16,.25,.05,.44,.05,.69,0,.3-.05,.56-.21,.78-.41,.45-.39,.68-1.1,.48-1.66-.12-.32-.32-.6-.62-.77-.23-.13-.5-.2-.77-.2-.28,0-.59,.08-.83,.24-.28,.19-.53,.48-.58,.82-.03,.11-.04,.21-.01,.32,0,.11,.04,.2,.09,.3,.1,.17,.29,.32,.48,.37,.2,.05,.43,.04,.61-.08,.16-.1,.34-.28,.37-.48,0-.04,.02-.08,.03-.12l-.08,.19s.04-.07,.06-.11l-.12,.16s.06-.07,.1-.1l-.16,.12s.1-.07,.15-.09l-.19,.08c.06-.03,.13-.04,.19-.05l-.21,.03c.07,0,.15-.01,.22,0l-.21-.03c.07,0,.13,.03,.19,.05l-.19-.08s.1,.05,.14,.08l-.16-.12s.07,.06,.1,.1l-.12-.16s.05,.08,.07,.12l-.08-.19c.02,.06,.04,.11,.04,.17l-.03-.21c0,.06,0,.12,0,.18l.03-.21c-.01,.07-.03,.15-.06,.22l.08-.19c-.03,.08-.08,.15-.13,.22l.12-.16c-.05,.06-.1,.11-.16,.16l.16-.12c-.06,.05-.13,.09-.2,.12l.19-.08c-.06,.03-.13,.04-.2,.05l.21-.03c-.07,0-.15,0-.22,0l.21,.03c-.08-.01-.16-.03-.24-.07l.19,.08c-.09-.04-.16-.08-.24-.14l.16,.12c-.08-.06-.15-.14-.22-.22l.12,.16c-.06-.08-.11-.17-.16-.27l.08,.19c-.04-.1-.07-.19-.08-.3-.03-.18-.21-.39-.37-.48-.17-.1-.42-.14-.61-.08s-.38,.18-.48,.37l-.08,.19c-.04,.14-.04,.28,0,.42h0Z"/></g><g class="s"><path class="q" d="M186.36,81.27c1.02,0,1.03-1.59,0-1.59s-1.03,1.59,0,1.59h0Z"/></g><path class="q" d="M162.24,102.8c-.31,.45-.09,1.06,.37,1.3,.29,.15,.59,.17,.9,.21l-.21-.03s.08,.02,.13,.04l-.19-.08s.08,.04,.11,.06l-.16-.12s.08,.07,.11,.11l-.12-.16c.04,.06,.08,.12,.11,.19l-.08-.19c.03,.07,.05,.14,.06,.21l-.03-.21c.01,.08,.01,.17,0,.25l.03-.21c-.01,.08-.03,.15-.06,.22l.08-.19c-.04,.1-.1,.18-.16,.27l.12-.16c-.11,.14-.24,.26-.38,.37l.16-.12c-.12,.09-.25,.18-.38,.27l1.17,.48c-.05-.18-.09-.36-.12-.54l.03,.21c-.04-.33-.04-.66,0-.98l-.03,.21v-.04c.04-.22,.04-.41-.07-.61-.1-.17-.29-.32-.48-.37-.2-.05-.43-.04-.61,.08-.16,.1-.34,.28-.37,.48-.1,.67-.08,1.34,.11,1.99,.14,.47,.73,.76,1.17,.48,.29-.19,.6-.39,.84-.65,.31-.34,.52-.74,.55-1.2,.02-.34-.07-.72-.27-1-.13-.19-.28-.35-.49-.46-.22-.12-.43-.14-.68-.17l.21,.03c-.12-.02-.23-.04-.35-.08l.19,.08s-.06-.03-.09-.05l.16,.12s-.02-.02-.02-.02l.12,.16s-.01-.02-.02-.03l.08,.19h0l.03,.2s0-.02,0-.03l-.03,.21s0-.02,.01-.03l-.08,.19s.01-.03,.02-.04c.11-.16,.13-.43,.08-.61s-.19-.38-.37-.48c-.18-.1-.41-.15-.61-.08s-.35,.19-.48,.37h0Z"/><path class="q" d="M162.62,114.64c-.52,3.05-.23,6.2,.95,9.08,.15,.37,.45,.63,.87,.57,.35-.05,.74-.38,.69-.78l-.92-7.4c-.05-.43-.33-.8-.8-.8-.39,0-.85,.37-.8,.8l.92,7.4,1.56-.21c-1.07-2.6-1.43-5.46-.95-8.23,.07-.42-.11-.86-.56-.98-.38-.11-.91,.13-.98,.56h0Z"/><g class="s"><path class="q" d="M195.91,36.96c.42,1.02,.74,2.07,.93,3.15s.19,2.19,.27,3.29c.05,.71,.82,1.02,1.36,.56,1.06-.89,1.08-2.4,.82-3.65-.31-1.49-.93-2.94-1.63-4.28-.48-.91-1.85-.1-1.37,.8,.6,1.15,1.1,2.36,1.41,3.62,.12,.48,.19,.92,.14,1.43-.04,.38-.16,.68-.49,.96l1.36,.56c-.09-1.2-.1-2.39-.3-3.58-.2-1.13-.52-2.22-.96-3.28-.16-.4-.53-.68-.98-.56-.37,.1-.72,.58-.56,.98h0Z"/></g><path class="q" d="M201.36,50.65c-.04,.87,.1,1.76,.42,2.57,.16,.42,.36,.83,.6,1.21,.26,.4,.57,.88,.97,1.15,.58,.38,1.3,.14,1.62-.45,.18-.34,.26-.76,.22-1.14-.07-.71-.42-1.32-.81-1.9-.2-.3-.41-.61-.59-.93-.04-.07-.07-.15-.11-.23-.05-.1,.05,.14,.02,.04-.01-.04-.03-.09-.05-.13-.03-.09-.05-.17-.07-.26,0-.02-.02-.1-.02-.11-.02,.02,.02,.19,0,0-.02-.41-.35-.82-.8-.8-.41,.02-.82,.35-.8,.8,.03,.64,.27,1.23,.6,1.77,.28,.46,.62,.89,.87,1.38,.03,.06,.05,.11,.08,.17,.05,.09-.05-.15-.02-.04,0,.02,.02,.05,.03,.07,.02,.06,.04,.11,.05,.17,0,.02,.01,.05,.02,.07,.04,.16,0-.13,0-.04,0,.06,0,.12,0,.17,0,.01,0,.1,0,.1,0,0,.04-.16,.01-.09-.02,.06-.03,.12-.04,.18-.01,.04-.05,.07,0,.01s.07-.11,.14-.14c.01,0,.54,0,.53,.02l.03,.02s-.05-.05-.07-.08c-.06-.06-.11-.13-.17-.2-.09-.11,.03,.04-.06-.07-.06-.08-.12-.16-.17-.24-.1-.14-.18-.29-.27-.45-.04-.08-.08-.15-.12-.23-.02-.03-.03-.07-.05-.1-.1-.21,.03,.08-.02-.05-.14-.37-.26-.75-.33-1.14,0-.04-.01-.07-.02-.11-.04-.23,0,.09,0-.05,0-.1-.02-.2-.03-.3-.01-.21-.01-.42,0-.63,.02-.42-.38-.81-.8-.8-.45,.02-.78,.35-.8,.8h0Z"/><path class="q" d="M208.48,75.56c-.07,2.61,.04,5.22,.34,7.82,.1,.89,1.24,1.08,1.56,.21,.92-2.49,.69-5.3-.55-7.63-.48-.9-1.85-.1-1.37,.8,1.05,1.98,1.17,4.32,.39,6.41l1.56,.21c-.3-2.59-.41-5.21-.34-7.82,.03-1.02-1.56-1.02-1.59,0h0Z"/><path class="q" d="M212.94,105.02c-.21,2.88-.83,5.72-1.82,8.44l1.53,.42c1.01-2.86,1.53-5.87,1.57-8.9,.01-.77-1.11-1.11-1.48-.4-1.32,2.54-1.94,5.4-1.73,8.26,.03,.43,.34,.8,.8,.8,.41,0,.83-.36,.8-.8-.19-2.58,.32-5.16,1.52-7.45l-1.48-.4c-.04,2.9-.55,5.75-1.52,8.48-.14,.41,.16,.87,.56,.98,.44,.12,.83-.15,.98-.56,1.04-2.85,1.66-5.83,1.87-8.86,.03-.43-.39-.8-.8-.8-.46,0-.76,.37-.8,.8h0Z"/><path class="q" d="M209.48,126.06c-.12,.39-.21,.81-.17,1.22,.05,.48,.22,.95,.59,1.28,.2,.18,.4,.3,.65,.38s.51,.08,.77,.03c.23-.04,.43-.18,.61-.33,.13-.11,.24-.26,.31-.42,.1-.22,.18-.45,.16-.7-.02-.32-.14-.6-.36-.83-.15-.14-.36-.23-.56-.23s-.43,.09-.56,.23c-.29,.32-.32,.81,0,1.12,.02,.02,.03,.03,.04,.05l-.12-.16s.04,.06,.05,.09l-.08-.19s.03,.08,.03,.12l-.03-.21s0,.1,0,.15l.03-.21c0,.06-.03,.11-.05,.17l.08-.19c-.02,.05-.05,.1-.09,.15l.12-.16s-.08,.09-.13,.12l.16-.12s-.07,.05-.11,.07l.19-.08c-.05,.02-.1,.03-.15,.04l.21-.03c-.05,0-.11,0-.16,0l.21,.03c-.07-.01-.14-.03-.21-.06l.19,.08c-.07-.03-.13-.07-.19-.11l.16,.12c-.07-.06-.14-.12-.2-.2l.12,.16c-.06-.08-.1-.16-.14-.24l.08,.19c-.04-.1-.06-.21-.08-.32l.03,.21c-.02-.15-.01-.3,0-.45l-.03,.21c.03-.19,.07-.37,.13-.55,.12-.4-.15-.89-.56-.98-.43-.1-.85,.13-.98,.56h0Z"/><path class="q" d="M146.37,38.82c-.42,1.48-1.44,2.69-2.27,3.96-.88,1.35-1.63,2.94-1.44,4.6,.12,1.03,1.46,1.01,1.59,0,.32-2.49,1.3-4.85,2.75-6.89,.25-.35,.06-.89-.29-1.09-.4-.23-.84-.07-1.09,.29-1.63,2.28-2.61,4.92-2.97,7.69h1.59c-.17-1.55,.62-2.91,1.46-4.15s1.77-2.49,2.19-3.98c.28-.99-1.25-1.41-1.53-.42h0Z"/><path class="q" d="M161.77,19.78s.01,.07,.02,.1c-.01-.12-.02-.16-.02-.09,0,.02,0,.03,0,.05,.01,.09,.04-.16,.01-.07-.01,.04-.02,.08-.03,.12,0,.03-.03,.06-.03,.09,0-.04,.07-.15,.02-.05-.04,.07-.07,.13-.12,.2s-.09,.13-.13,.19c-.06,.08,0,0,.03-.04-.03,.03-.05,.07-.08,.1-.12,.15-.25,.31-.36,.47-.21,.33-.34,.69-.38,1.08-.05,.44,.12,.84,.39,1.17,.12,.14,.38,.24,.56,.23,.22,0,.4-.09,.56-.23,1.07-.94,1.7-2.29,1.83-3.7,.04-.42-.39-.81-.8-.8-.46,.02-.76,.35-.8,.8v.1c-.02,.15,.01-.14,0-.04-.01,.07-.02,.13-.03,.2-.03,.14-.06,.28-.1,.41s-.08,.27-.14,.4c-.04,.11-.02,.04,.01-.03-.02,.03-.03,.06-.04,.09-.03,.07-.06,.14-.1,.2-.06,.13-.14,.25-.21,.37-.04,.06-.07,.11-.11,.17-.02,.03-.04,.05-.06,.08,0,.01-.11,.15-.03,.04,.07-.1,0,0-.02,.02-.02,.03-.04,.05-.06,.08-.05,.06-.1,.11-.15,.17-.1,.11-.21,.21-.32,.31h1.12s.1,.14,.05,.05c-.05-.1,.03,.05,.03,.07,0-.02-.01-.06-.02-.08,.06,.13,.01,.16,.01,.06,0-.03,0-.06,0-.09,0-.09-.04,.17,0,.08,.02-.06,.03-.12,.05-.18,0-.02,.05-.13,0-.02-.05,.12,0,0,.02-.04,.03-.06,.06-.11,.1-.17s.08-.1,.11-.16c-.02,.03-.11,.13-.04,.05,.03-.03,.05-.07,.08-.1,.48-.61,.92-1.28,.7-2.09-.11-.4-.57-.69-.98-.56s-.67,.55-.56,.98h0Z"/><path class="q" d="M135.66,60.54c-1.03,1.04-1.94,2.22-2.69,3.48-.37,.63-.7,1.28-.98,1.94-.31,.72-.62,1.46-.68,2.25-.11,1.41,1.1,3.02,2.64,2.47,1.33-.47,1.59-2.07,1.85-3.27l1.23-5.67c.18-.84-1.02-1.45-1.45-.61-1.12,2.18-2.34,4.31-3.66,6.37-.55,.87,.82,1.66,1.37,.8,1.32-2.07,2.54-4.19,3.66-6.37l-1.45-.61-1.12,5.16c-.06,.27-.5,3.24-1.22,2.62-.52-.44-.18-1.31,.01-1.83,.25-.69,.57-1.35,.92-2,.73-1.33,1.64-2.54,2.7-3.62,.72-.73-.4-1.85-1.12-1.12h0Z"/><path class="q" d="M128.23,86.75c-.75,4.01-1.06,8.09-.92,12.16,.04,1.03,1.53,1.02,1.59,0l.6-10.56c.06-1.02-1.53-1.02-1.59,0l-.6,10.56h1.59c-.13-3.93,.15-7.87,.87-11.74,.19-1-1.35-1.43-1.53-.42h0Z"/><path class="q" d="M176.65,17.42l-.83,1.51c-.2,.36-.1,.88,.29,1.09,.18,.1,.41,.15,.61,.08s.35-.19,.48-.37l1.58-2.16c.11-.16,.13-.43,.08-.61s-.19-.38-.37-.48c-.18-.1-.41-.15-.61-.08s-.35,.19-.48,.37l-1.58,2.16,1.37,.8,.83-1.51c.2-.36,.1-.88-.29-1.09s-.87-.1-1.09,.29h0Z"/><g class="s"><path class="q" d="M174.29,34.16c.28,5.7,.87,11.38,1.77,17.01,.14,.89,1.59,.67,1.56-.21-.16-5.23-1.09-10.41-2.78-15.36-.28-.81-1.59-.73-1.56,.21l.28,10.51c.03,1.02,1.62,1.03,1.59,0l-.28-10.51-1.56,.21c1.65,4.82,2.58,9.84,2.73,14.93l1.56-.21c-.87-5.49-1.44-11.03-1.71-16.59-.05-1.02-1.64-1.03-1.59,0h0Z"/></g><g class="s"><path class="q" d="M174.4,45.57c0,2.69,1.23,5.07,2.51,7.36l.69-1.2c-.78,.05-.78-.96-.81-1.51l-1.36,.56c.59,.64,.56,1.62,1.63,1.78,.88,.14,1.5-.58,1.5-1.42,0-1.09-.56-2.28-.86-3.31l-1.15-3.93c-.27-.92-1.46-.64-1.56,.21-.18,1.51,.17,2.99,.98,4.28,.39,.62,1.2,.43,1.45-.19,.84-2.1-.44-4.5-.94-6.54-.58-2.39-.92-4.81-1.04-7.26-.04-.86-1.36-1.13-1.56-.21-.61,2.75-.71,5.55-.27,8.33s2.02,5.47,1.7,8.3l1.48-.4c-1.18-2.43-1.68-5.11-1.86-7.79-.16-2.4-.44-5.22,.85-7.37,.53-.88-.85-1.68-1.37-.8-1.45,2.41-1.25,5.47-1.07,8.17,.2,2.97,.77,5.9,2.08,8.59,.38,.79,1.4,.3,1.48-.4,.3-2.68-1.03-5.15-1.57-7.72-.59-2.8-.54-5.7,.08-8.48l-1.56-.21c.11,2.25,.39,4.5,.87,6.7,.24,1.1,.52,2.18,.85,3.25,.35,1.13,.78,2.27,.32,3.43l1.45-.19c-.67-1.08-.91-2.22-.76-3.48l-1.56,.21,1.35,4.61,.35,1.19c.05,.17,.14,.84,.25,.89,.47,.23,.14-.54,.09-.63-.14-.29-.28-.51-.5-.75-.46-.49-1.39-.12-1.36,.56,.07,1.44,.61,3.23,2.4,3.1,.6-.04,1-.64,.69-1.2-1.14-2.04-2.3-4.15-2.3-6.56,0-1.02-1.59-1.03-1.59,0h0Z"/></g><g class="s"><path class="q" d="M174.45,46.11c-.06,.78,0,1.54,.1,2.31,.06,.39,.52,.62,.87,.57,.39-.05,.69-.38,.69-.78,0-1.12-.42-2.18-1.15-3.03-.18-.21-.52-.28-.77-.2-.29,.08-.45,.29-.56,.56-.31,.78-.08,1.64,.44,2.27,.36,.44,1.23,.21,1.33-.35,.1-.6,.16-1.2,.13-1.8l-1.56,.21c.08,.52,.33,.97,.65,1.38,.17,.22,.52,.27,.77,.2,.28-.08,.46-.29,.56-.56,.21-.59,.31-1.23,.3-1.86l-1.56,.21s.03,.08,.05,.12c0,.03,.03,.19,.03,.08s0,.03,0,.05c0,.05,0,.1-.01,.16h1.59v-1.17c0-.42-.37-.81-.8-.8s-.8,.35-.8,.8v1.17c0,.42,.37,.81,.8,.8,.47-.02,.74-.35,.8-.8,.03-.28,0-.57-.12-.83-.16-.37-.45-.63-.87-.57-.38,.05-.7,.38-.69,.78,0,.14,0,.28,0,.42,0,.06-.01,.12-.02,.17,0,.06,0,.05,0-.04,0,.03-.01,.07-.02,.1-.05,.27-.12,.52-.21,.78l1.33-.35c.12,.15-.04-.07-.06-.1-.02-.03-.15-.28-.06-.09-.07-.15-.1-.33-.13-.49-.06-.39-.52-.62-.87-.57-.37,.05-.71,.38-.69,.78,.01,.25,.01,.51,0,.76,0,.12-.02,.24-.03,.36,0,.07-.02,.16,0,.04-.01,.07-.02,.14-.03,.22l1.33-.35c.13,.15,.02,.02,0-.02-.02-.03-.05-.13-.08-.15,.04,.09,.05,.11,.03,.06,0-.03-.02-.05-.03-.08-.01-.04-.02-.13-.04-.17l.02,.1s0-.08,0-.11c0-.04-.01-.13,0-.17v.1s0-.06,0-.08c.02-.06,.04-.13,.06-.19l-1.33,.35s.07,.08,.1,.12c.06,.07-.08-.11,0,0,.06,.08,.11,.17,.17,.26s.1,.18,.14,.27c.01,.03,.11,.21,.02,.03,.02,.05,.04,.1,.05,.14,.07,.19,.12,.39,.16,.59,0,.02,.03,.15,.02,.15,0,0-.02-.18,0,0,0,.11,.01,.22,.01,.34l1.56-.21c-.01-.09-.01-.1,0,0,0-.05-.01-.1-.02-.14,0-.07-.01-.14-.02-.22-.01-.17-.02-.34-.03-.51-.01-.34,0-.68,.02-1.01,.03-.42-.39-.81-.8-.8-.46,.02-.76,.35-.8,.8h0Z"/></g><path class="l" d="M172.31,34.78c-.05,6.18-.04,12.57,2.34,18.38,.56,1.38,2.6,1.64,3.07,0l.2-.7h-3.07l.32,.84c.74,1.93,3.38,1.17,3.07-.85-.87-5.6-1.94-11.17-3.21-16.7l-3.07,.85,2.36,7.68c.75,2.45,1.35,5.03,2.53,7.31,.7,1.35,3.13,.78,2.96-.8-.63-6.03-1.82-11.98-3.62-17.78-.62-2-3.38-1.14-3.07,.85l2.66,16.67,1.53-2.01h-.23l.8,.21c-.26-.12-.46-.61-.62-.87l-.99-1.58-1.88-2.99c-.4-.63-1.08-.88-1.8-.73-2.37,.49-1.3,3.69-.81,5.18,.65,1.99,1.59,3.88,2.82,5.57,.5,.7,1.38,1.03,2.18,.57,.69-.4,1.08-1.48,.57-2.18-.81-1.12-1.52-2.31-2.05-3.59-.25-.6-.46-1.22-.63-1.85-.11-.37-.43-1.44-.37-1.61l-.41,.7,.11-.12-.7,.41,.15-.03-1.8-.73,2.58,4.1c.78,1.24,1.44,2.65,3.09,2.71,1.13,.03,1.69-1.04,1.53-2.01l-2.66-16.67-3.07,.85c1.71,5.52,2.9,11.19,3.5,16.94l2.96-.8c-1.1-2.13-1.62-4.63-2.32-6.92l-2.25-7.32c-.6-1.96-3.53-1.15-3.07,.85,1.27,5.52,2.34,11.09,3.21,16.7l3.07-.85-.32-.84c-.54-1.41-2.61-1.61-3.07,0l-.2,.7h3.07c-2.28-5.58-2.27-11.61-2.22-17.54,.02-2.05-3.17-2.05-3.18,0h0Z"/><path class="q" d="M172.47,34.28c-.1,3.59-.76,7.13-1.95,10.52-.29,.82,.78,1.23,1.33,.77,.63-.52,.91-1.3,1.08-2.07,.21-.96,.37-1.93,.5-2.9,.28-2.02,.41-4.05,.4-6.09,0-1.02-1.6-1.03-1.59,0,0,1.83-.09,3.65-.32,5.47-.11,.89-.26,1.77-.43,2.65-.13,.65-.22,1.37-.76,1.82l1.33,.77c1.24-3.52,1.91-7.22,2.01-10.94,.03-1.02-1.56-1.02-1.59,0h0Z"/><path class="q" d="M195.32,35.62c-.15,1.85-.03,3.71,.35,5.53,.29,1.37,.76,3.4,2.51,3.43,1.02,.02,1.02-1.57,0-1.59-.12,0-.17-.04-.29-.19-.13-.17-.23-.39-.3-.59-.23-.67-.38-1.39-.5-2.09-.26-1.48-.3-3-.18-4.5,.03-.43-.39-.8-.8-.8-.46,0-.76,.37-.8,.8h0Z"/><path class="q" d="M228.1,48.46c2.12,1.15,3.85,2.9,4.96,5.05,1.19,2.31,1.24,5.01,2.53,7.28,.51,.89,1.86,.1,1.37-.8-1.09-2.03-2.41-3.94-3.67-5.86l-3.85-5.89c-.36-.55-1.28-.5-1.45,.19-.32,1.28,.69,2.07,1.49,2.88,.84,.86,1.59,1.8,2.23,2.81,1.29,2.04,2.13,4.3,2.51,6.68,.16,1.01,1.69,.58,1.53-.42-.36-2.23-1.13-4.4-2.25-6.36-.54-.95-1.18-1.85-1.88-2.69-.37-.45-.76-.88-1.18-1.29-.25-.24-1.04-.79-.94-1.19l-1.45,.19,3.85,5.89c1.26,1.93,2.57,3.83,3.67,5.86l1.37-.8c-.69-1.21-.97-2.56-1.3-3.9s-.76-2.55-1.41-3.73c-1.23-2.22-3.11-4.06-5.34-5.27-.9-.49-1.7,.88-.8,1.37h0Z"/><path class="q" d="M242,74.74v12.77c0,1.02,1.59,1.03,1.59,0v-12.77c0-1.02-1.59-1.03-1.59,0h0Z"/><path class="q" d="M243.61,106.21c-.72,4.4-2.38,8.56-4.88,12.24-.58,.85,.8,1.65,1.37,.8,2.57-3.78,4.3-8.11,5.04-12.62,.16-1-1.37-1.43-1.53-.42h0Z"/><g class="t"><path class="m" d="M168.23,1.45c-.64,.22-1.16,.52-1.67,.97-.39,.35-.73,.8-.94,1.28-.28,.64-.47,1.3-.44,2s.21,1.38,.55,2.02c.41,.77,1.54,1.07,2.28,.6,.78-.5,1.04-1.46,.6-2.28-.04-.07-.08-.15-.11-.23l.17,.4c-.1-.24-.16-.48-.2-.73l.06,.44c-.03-.23-.03-.46,0-.69l-.06,.44c.03-.23,.09-.45,.18-.66l-.17,.4c.09-.21,.21-.41,.34-.59l-.26,.34c.14-.18,.3-.34,.48-.49l-.34,.26c.18-.14,.38-.26,.59-.35l-.4,.17c.07-.03,.14-.06,.21-.08,.41-.14,.77-.38,1-.77,.21-.36,.3-.88,.17-1.28s-.38-.79-.77-1-.86-.31-1.28-.17h0Z"/></g><path class="q" d="M168.36,64.21c-.07,1.41-.59,2.77-1.45,3.92l1.48,.4c-.19-1.97,.49-3.88,1.91-5.25l-1.33-.77-1.75,5.47,1.53,.42c.4-1.64,.84-3.26,1.31-4.88h-1.53c.33,.96,.42,2.07,.03,3.03-.04,.09-.15,.29-.22,.34,.04-.03-.07,.04-.09,.05-.12,.06,.09-.04-.03,0-.11,.04,.1,0-.02,.01-.02,0-.17,0-.09,0,.08,0-.07-.06-.02-.01,.03,.02,.06,.05,.09,.07,.06,.05,0-.06,0,.01,0,.03,.02,.16,.02,.09,.01-.11-.01,.14-.01,.02,0-.05,.06-.11,.01-.05-.04,.04-.05,.09-.1,.13-.03,.02-.2,.07-.06,.04,.42-.09,.67-.58,.56-.98-.12-.43-.56-.65-.98-.56-.88,.19-1.26,1.3-.84,2.06,.47,.84,1.64,.95,2.38,.43s1.04-1.47,1.15-2.36c.12-.93,.03-1.89-.28-2.77-.25-.73-1.31-.78-1.53,0-.47,1.62-.9,3.25-1.31,4.88-.1,.42,.13,.86,.56,.98s.85-.14,.98-.56l1.75-5.47c.25-.78-.78-1.3-1.33-.77-1.69,1.62-2.61,4.03-2.38,6.37,.08,.81,1,1.05,1.48,.4,1.02-1.37,1.58-3.03,1.66-4.73,.02-.43-.38-.8-.8-.8-.45,0-.77,.36-.8,.8h0Z"/><path class="q" d="M211.59,127.59c1.02,0,1.03-1.59,0-1.59s-1.03,1.59,0,1.59h0Z"/><path class="q" d="M211.07,126.81c1.02,0,1.03-1.59,0-1.59s-1.03,1.59,0,1.59h0Z"/><path class="q" d="M236.05,61.66c1.02,0,1.03-1.59,0-1.59s-1.03,1.59,0,1.59h0Z"/><path class="q" d="M133.75,69.35c.01-.11,.02-.21,.04-.31-.02,.15,.01-.1,.02-.1,.03-.18,.06-.37,.09-.55,.07-.35,.15-.7,.24-1.04s.2-.68,.32-1.02c.06-.17,.13-.35,.2-.52,.1-.24-.06,.14,.04-.1,.04-.1,.09-.19,.13-.29,.17-.38,.12-.87-.29-1.09-.35-.18-.9-.12-1.09,.29-.69,1.51-1.12,3.09-1.3,4.74-.04,.42,.4,.81,.8,.8,.47-.02,.75-.35,.8-.8h0Z"/><path class="q" d="M127.81,105.5c-.82,3.67-.41,7.48,1.17,10.89,.2,.43,.95,.55,1.25,.16,1.21-1.55,.2-3.27-.33-4.88-.62-1.86-.94-3.79-.97-5.75-.02-1.02-1.61-1.03-1.59,0,.03,1.78,.28,3.56,.75,5.27,.23,.82,.54,1.61,.84,2.41,.17,.48,.55,1.35,.18,1.82l1.25,.16c-1.38-3.01-1.73-6.44-1.01-9.67,.22-1-1.31-1.42-1.53-.42h0Z"/><path class="q" d="M199.69,23.57l3.08,2.39c.93,.72,1.92,1.41,2.79,2.21,.35,.33,.68,.68,.91,1.1s.23,.94,.4,1.4c.4,1.08,1.48,1.61,2.59,1.41,.58-.11,.77-.95,.35-1.33-2.82-2.57-5.66-5.1-8.83-7.24-.85-.58-1.65,.8-.8,1.37,3.06,2.07,5.78,4.51,8.51,6.99l.35-1.33c-.82,.15-.81-1.17-1-1.65-.36-.9-1.03-1.61-1.77-2.22-1.77-1.46-3.63-2.83-5.45-4.24-.34-.26-.79-.33-1.12,0-.27,.27-.34,.86,0,1.12h0Z"/></g><g><path class="e" d="M163.85,224.59s58.91-18.75,32.87-71.48"/><line class="e" x1="164.07" y1="225.2" x2="187.94" y2="232.01"/><line class="e" x1="164.59" y1="224.85" x2="170.49" y2="202.69"/></g><g><path class="e" d="M18.84,320.36s-12.49-60.55,46.24-63.65"/><line class="e" x1="18.2" y1="320.46" x2=".57" y2="302.98"/><line class="e" x1="18.24" y1="319.84" x2="34.69" y2="303.84"/></g><g><g><path class="k" d="M136.03,232.26l2.17,6.05c-4.82,1.24-9.11,6.73-9.49,8.64-.15,.47-.32,.94-.49,1.38l-.15-.05c-13.81,12.76-36.73,13.54-40.77,12.58l-.09,.1c-1.38-1.28-2.54-2.81-3.4-4.52-2.61-7.12,1.49-14.44,8.16-19.59,16.93-8.25,28.03-2.41,33.4-2.67,.05,.01,.09,.01,.14,0,4.11,.12,10.52-1.92,10.52-1.92Z"/><path class="j" d="M128.07,248.27l.15,.05c-7.42,19.8-30.6,22.49-41.01,12.63l.09-.1c4.04,.96,26.96,.18,40.77-12.58Z"/><path class="p" d="M125.37,234.18c-5.37,.26-16.48-5.59-33.4,2.67,9.03-6.98,22.79-10.02,30.93-3.25,.59,.38,1.45,.55,2.47,.59Z"/></g><g><path class="g" d="M125.37,234.18c-1.03-.04-1.88-.21-2.47-.59-8.14-6.77-21.9-3.73-30.93,3.25-6.68,5.15-10.78,12.47-8.16,19.59,.86,1.72,2.01,3.24,3.4,4.52,10.42,9.85,33.6,7.16,41.01-12.63,.17-.45,.33-.91,.49-1.38,.38-1.91,4.68-7.39,9.49-8.64l-2.17-6.05s-6.41,2.04-10.52,1.92"/><path class="f" d="M91.84,236.91s.09-.04,.13-.06"/></g></g></g></g></g></svg>